<svg id="Layer_1" viewBox="0 0 512 512" xmlns="http://www.w3.org/2000/svg" data-name="Layer 1"><g fill-rule="evenodd"><path d="m216.7 200.106a99.053 99.053 0 1 0 -99.05-99.056 99.169 99.169 0 0 0 99.05 99.056z" fill="#4caf50"/><path d="m68.7 448.158h193.55l.565 1.06a114.319 114.319 0 1 0 134.811-162.764l-1.061-.329-.281-1.076a99.4 99.4 0 0 0 -95.893-74.226h-167.382a99.211 99.211 0 0 0 -99.1 99.093v103.457a34.834 34.834 0 0 0 34.791 34.785z" fill="#4caf50"/><path d="m363.8 334.472a12 12 0 0 1 12 12v37.2h37.2a12 12 0 1 1 0 24h-37.2v37.2a12 12 0 0 1 -24 0v-37.2h-37.2a12 12 0 1 1 0-24h37.2v-37.2a12 12 0 0 1 12-12zm-147.1-310.472a77.054 77.054 0 1 1 -77.05 77.05 77.135 77.135 0 0 1 77.05-77.05zm0 178.106a101.053 101.053 0 1 0 -101.049-101.056 101.169 101.169 0 0 0 101.049 101.055zm-160.79 107.81v103.457a12.805 12.805 0 0 0 12.79 12.785h182.842a116.31 116.31 0 0 1 112.258-146.813c2.509 0 5 .09 7.473.25a77.042 77.042 0 0 0 -70.881-46.767h-167.384a77.183 77.183 0 0 0 -77.1 77.088zm400.219 85.756a92.33 92.33 0 1 0 -92.329 92.328 92.435 92.435 0 0 0 92.331-92.332zm-387.429 54.485h192.349a116.319 116.319 0 1 0 137.169-165.613 101.4 101.4 0 0 0 -97.828-75.72h-167.382a101.211 101.211 0 0 0 -101.098 101.092v103.457a36.835 36.835 0 0 0 36.79 36.784z"/></g></svg>