<svg clip-rule="evenodd" fill-rule="evenodd" height="2048" image-rendering="optimizeQuality" shape-rendering="geometricPrecision" text-rendering="geometricPrecision" viewBox="0 0 2048 2048" width="2048" xmlns="http://www.w3.org/2000/svg"><g id="Layer_x0020_1"><g id="_363025280" fill="#212121"><g fill-rule="nonzero"><path id="_356296200" d="m1024 677.555c80.1473 0 152.711 32.4898 205.238 85.0158 52.526 52.5272 85.0158 125.091 85.0158 205.238 0 80.1473-32.4898 152.711-85.0158 205.238-52.5272 52.526-125.091 85.0158-205.238 85.0158-80.1461 0-152.711-32.4898-205.237-85.0158-52.526-52.5272-85.0158-125.091-85.0158-205.238 0-80.1473 32.4898-152.711 85.0158-205.238 52.526-52.526 125.091-85.0158 205.237-85.0158zm159.988 130.266c-40.9418-40.9406-97.506-66.2646-159.988-66.2646-62.4804 0-119.046 25.324-159.986 66.2646-40.9406 40.9418-66.2646 97.506-66.2646 159.988 0 62.4815 25.324 119.046 66.2646 159.988 40.9406 40.9406 97.506 66.2646 159.986 66.2646 62.4815 0 119.046-25.324 159.988-66.2646 40.9406-40.9418 66.2646-97.506 66.2646-159.988 0-62.4815-25.324-119.046-66.2646-159.988z"/><path id="_356295720" d="m765.747 935.808c-17.6728 0-32.0008 14.328-32.0008 32.0008s14.328 32.0008 32.0008 32.0008h189.975c17.6728 0 32.0008-14.328 32.0008-32.0008s-14.328-32.0008-32.0008-32.0008z"/><path id="_356295696" d="m1024 867.529c27.6874 0 52.7575 11.2276 70.9064 29.374 18.1465 18.1488 29.374 43.2189 29.374 70.9064 0 27.6874-11.2264 52.7575-29.374 70.9064-18.1488 18.1465-43.2189 29.374-70.9064 29.374-27.6874 0-52.7575-11.2276-70.9064-29.374-18.1477-18.1488-29.374-43.2213-29.374-70.9064 0-27.6874 11.2276-52.7575 29.374-70.9064 18.1488-18.1465 43.2189-29.374 70.9064-29.374zm25.6559 74.6245c-6.56221-6.56221-15.6343-10.6228-25.6559-10.6228-10.0217 0-19.0937 4.06063-25.6559 10.6228-6.56221 6.56221-10.6228 15.6343-10.6228 25.6559 0 10.0217 4.06063 19.0937 10.6228 25.6559 6.56221 6.56221 15.6343 10.6228 25.6559 10.6228 10.0217 0 19.0937-4.06063 25.6559-10.6228 6.56221-6.56221 10.6228-15.6343 10.6228-25.6559 0-10.0217-4.06063-19.0937-10.6228-25.6559z"/><path id="_363023408" d="m1282.23 999.81c17.6728 0 32.0008-14.328 32.0008-32.0008s-14.328-32.0008-32.0008-32.0008h-190.054c-17.6728 0-32.0008 14.328-32.0008 32.0008s14.328 32.0008 32.0008 32.0008z"/><path id="_363018704" d="m1225.61 1162.55c0-17.6728-14.328-32.0008-32.0008-32.0008s-32.0008 14.328-32.0008 32.0008v427.63c0 37.8071-15.4925 72.2032-40.4481 97.1587-24.9555 24.9555-59.3516 40.4481-97.1587 40.4481h-.0011811c-37.8071 0-72.2032-15.4914-97.1599-40.4481-24.9555-24.9555-40.4469-59.3504-40.4469-97.1587v-427.629c0-17.6728-14.328-32.0008-32.0008-32.0008s-32.0008 14.328-32.0008 32.0008v427.629c0 55.4741 22.6736 105.885 59.1981 142.409 36.5256 36.5268 86.9375 59.1993 142.41 59.1993h.0011811c55.4729 0 105.884-22.6736 142.409-59.1993 36.5256-36.5256 59.1993-86.9363 59.1993-142.409v-427.63z"/></g><path id="_363029768" d="m1419.42 1155.84c-64.0335.00472441-128.05-24.0579-176.956-72.2516-12.574-12.3945-12.7217-32.641-.328347-45.2197 12.398-12.5847 32.6457-12.7228 45.2197-.333071 73.356 72.3024 192.36 71.8359 265.275-1.02402 35.4166-35.3906 54.9225-82.6489 54.9225-133.07 0-50.4225-19.5059-97.6867-54.9225-133.076l-380.35-380.181c-.715749-.71693-1.39843-1.46693-2.04331-2.24646-3.87166-4.68898-7.87796-9.08623-12.2374-13.4374-35.4083-35.3859-82.6205-54.8398-133.026-54.8398-.529134-.0011811-1.08662 0-1.63819 0-50.5937-.0011811-97.7646 19.4528-133.172 54.8339-4.35709 4.35591-8.36339 8.75788-12.2516 13.4539-.640158.775985-1.32284 1.52362-2.03386 2.23819l-380.468 380.177c-73.3241 73.3737-73.3241 192.778.0165354 266.165 72.9768 72.8127 192.041 73.2804 265.376 1.0063 12.5799-12.3933 32.824-12.2457 45.2233.333071 12.3945 12.5787 12.2457 32.8252-.333071 45.2197-98.2477 96.8257-257.714 96.2221-355.471-1.32402-49.1422-49.1705-73.7115-113.747-73.7162-178.319-.00472441-64.5745 24.5575-129.144 73.6819-178.301l379.447-379.158c4.86969-5.81811 9.89528-11.302 15.3201-16.7256 47.491-47.4579 110.711-73.552 178.11-73.552.733465.0011811 1.46102.0011811 2.17795 0 67.2225-.0011811 130.468 26.0894 177.958 73.5473 5.43071 5.42363 10.461 10.9122 15.326 16.7339l379.314 379.142c47.5028 47.465 73.6642 110.791 73.6642 178.309 0 67.513-26.1626 130.838-73.6678 178.311-49.0748 49.0359-113.752 73.5839-178.417 73.5875z"/></g></g><path d="m0 0h2048v2048h-2048z" fill="none"/></svg>