<svg id="Layer_1" enable-background="new 0 0 135 135" height="135" viewBox="0 0 135 135" width="135" xmlns="http://www.w3.org/2000/svg"><g><g><g><g><g><path d="m25.561 108.205c0 4.52-3.662 8.181-8.182 8.181-4.52 0-8.182-3.661-8.182-8.181v-23.736c0-4.52 3.662-8.183 8.182-8.183 4.52 0 8.182 3.663 8.182 8.183z" fill="#ff1a1a"/></g><g><path d="m17.379 76.287c-4.52 0-8.182 3.663-8.182 8.183v1.61c0 4.519 3.662 8.181 8.182 8.181s8.182-3.662 8.182-8.181v-1.61c0-4.52-3.663-8.183-8.182-8.183z" fill="#ff7676"/></g><g><path d="m17.379 117.885c-5.339 0-9.682-4.343-9.682-9.681v-23.735c0-5.339 4.343-9.683 9.682-9.683s9.682 4.344 9.682 9.683v23.735c0 5.338-4.343 9.681-9.682 9.681zm0-40.098c-3.685 0-6.682 2.998-6.682 6.683v23.735c0 3.684 2.997 6.681 6.682 6.681s6.682-2.997 6.682-6.681v-23.736c0-3.684-2.998-6.682-6.682-6.682z" fill="#33363a"/></g></g><g><g><path d="m125.803 108.205c0 4.52-3.662 8.181-8.183 8.181-4.519 0-8.181-3.661-8.181-8.181v-23.736c0-4.52 3.662-8.183 8.181-8.183 4.521 0 8.183 3.663 8.183 8.183z" fill="#ff1a1a"/></g><g><path d="m117.62 76.287c-4.519 0-8.181 3.663-8.181 8.183v1.61c0 4.519 3.662 8.181 8.181 8.181 4.521 0 8.183-3.662 8.183-8.181v-1.61c0-4.52-3.662-8.183-8.183-8.183z" fill="#ff7676"/></g><g><path d="m117.62 117.885c-5.338 0-9.681-4.343-9.681-9.681v-23.735c0-5.339 4.343-9.683 9.681-9.683 5.339 0 9.683 4.344 9.683 9.683v23.735c0 5.338-4.344 9.681-9.683 9.681zm0-40.098c-3.684 0-6.681 2.998-6.681 6.683v23.735c0 3.684 2.997 6.681 6.681 6.681 3.685 0 6.683-2.997 6.683-6.681v-23.736c0-3.684-2.998-6.682-6.683-6.682z" fill="#33363a"/></g></g></g><g><g><path d="m70.955 15.422h-6.912c-24.771 0-44.926 20.156-44.926 44.928v51.838c0 9.543 7.734 17.279 17.279 17.279h62.205c9.545 0 17.281-7.736 17.281-17.279v-51.838c.001-24.771-20.154-44.928-44.927-44.928z" fill="#8de4ff"/></g><g><path d="m70.955 27.625h-6.912c-24.771 0-44.926 20.156-44.926 44.928v39.635c0 9.543 7.734 17.279 17.279 17.279h62.205c9.545 0 17.281-7.736 17.281-17.279v-39.635c.001-24.771-20.154-44.928-44.927-44.928z" fill="#0af"/></g><g><path d="m98.602 130.967h-62.206c-10.354 0-18.779-8.424-18.779-18.779v-51.838c0-25.6 20.826-46.428 46.426-46.428h6.912c25.601 0 46.428 20.828 46.428 46.428v51.838c0 10.355-8.425 18.779-18.781 18.779zm-34.559-114.045c-23.945 0-43.426 19.481-43.426 43.428v51.838c0 8.701 7.078 15.779 15.779 15.779h62.205c8.702 0 15.781-7.079 15.781-15.779v-51.838c0-23.946-19.481-43.428-43.428-43.428z" fill="#33363a"/></g></g><g><path d="m99.664 100.574c0 8.091-6.559 14.652-14.65 14.652h-35.028c-8.09 0-14.65-6.562-14.65-14.652v-10.99c0-8.09 6.561-14.648 14.65-14.648h35.027c8.092 0 14.65 6.559 14.65 14.648v10.99z" fill="#ff1a1a"/></g><g><path d="m49.986 74.936c-5.369 0-10.051 2.896-12.603 7.205 2.552 4.31 7.233 7.209 12.603 7.209h35.027c5.369 0 10.051-2.899 12.602-7.209-2.551-4.309-7.232-7.205-12.602-7.205z" fill="#ff7676"/></g><g><path d="m85.014 116.726h-35.028c-8.905 0-16.15-7.246-16.15-16.152v-10.99c0-8.904 7.245-16.148 16.15-16.148h35.027c8.905 0 16.15 7.244 16.15 16.148v10.989c.001 8.907-7.244 16.153-16.149 16.153zm-35.028-40.29c-7.251 0-13.15 5.898-13.15 13.148v10.989c0 7.252 5.899 13.152 13.15 13.152h35.027c7.251 0 13.15-5.9 13.15-13.152v-10.989c0-7.25-5.899-13.148-13.15-13.148z" fill="#33363a"/></g><g><path d="m99.604 62.842c-.828 0-1.5-.671-1.5-1.5 0-15.61-12.7-28.31-28.312-28.31h-4.585c-15.61 0-28.311 12.7-28.311 28.31 0 .829-.672 1.5-1.5 1.5s-1.5-.671-1.5-1.5c0-17.264 14.046-31.31 31.311-31.31h4.585c17.266 0 31.312 14.045 31.312 31.31 0 .829-.672 1.5-1.5 1.5z" fill="#33363a"/></g><g><path d="m99.883 72.512c-1.287 0-2.334-1.048-2.334-2.336v-2.633c0-1.287 1.047-2.334 2.334-2.334s2.334 1.047 2.334 2.334v2.633c0 1.288-1.047 2.336-2.334 2.336z" fill="#33363a"/></g><g><path d="m81.641 21.174c-.828 0-1.5-.671-1.5-1.5 0-6.971-5.671-12.642-12.641-12.642s-12.641 5.671-12.641 12.642c0 .829-.672 1.5-1.5 1.5s-1.5-.671-1.5-1.5c0-8.625 7.017-15.642 15.641-15.642s15.641 7.017 15.641 15.642c0 .829-.672 1.5-1.5 1.5z" fill="#33363a"/></g></g><g><g><path d="m40.668 107.269h-4c-.828 0-1.5-.671-1.5-1.5s.672-1.5 1.5-1.5h4c.828 0 1.5.671 1.5 1.5s-.672 1.5-1.5 1.5z" fill="#33363a"/></g><g><path d="m86.665 107.269h-7.666c-.828 0-1.5-.671-1.5-1.5s.672-1.5 1.5-1.5h7.666c.828 0 1.5.671 1.5 1.5s-.672 1.5-1.5 1.5zm-15.332 0h-7.666c-.828 0-1.5-.671-1.5-1.5s.672-1.5 1.5-1.5h7.666c.828 0 1.5.671 1.5 1.5s-.672 1.5-1.5 1.5zm-15.333 0h-7.666c-.828 0-1.5-.671-1.5-1.5s.672-1.5 1.5-1.5h7.666c.828 0 1.5.671 1.5 1.5s-.672 1.5-1.5 1.5z" fill="#33363a"/></g><g><path d="m98.332 107.269h-4c-.828 0-1.5-.671-1.5-1.5s.672-1.5 1.5-1.5h4c.828 0 1.5.671 1.5 1.5s-.672 1.5-1.5 1.5z" fill="#33363a"/></g></g></g></svg>