<?xml version="1.0" encoding="UTF-8" standalone="no"?>
<!-- Created with Inkscape (http://www.inkscape.org/) -->

<svg
   version="1.1"
   id="svg4542"
   xml:space="preserve"
   width="682.66669"
   height="682.66669"
   viewBox="0 0 682.66669 682.66669"
   xmlns="http://www.w3.org/2000/svg"
   xmlns:svg="http://www.w3.org/2000/svg"><defs
     id="defs4546"><clipPath
       clipPathUnits="userSpaceOnUse"
       id="clipPath4560"><path
         d="M 0,512 H 512 V 0 H 0 Z"
         id="path4558" /></clipPath></defs><g
     id="g4548"
     transform="matrix(1.3333333,0,0,-1.3333333,0,682.66667)"><g
       id="g4550"
       transform="translate(42.3057,357.311)"><path
         d="M 0,0 V -121.692 H 429.582 V 0 L 214.777,124.017 Z"
         style="fill:#eceaec;fill-opacity:1;fill-rule:evenodd;stroke:none"
         id="path4552" /></g><g
       id="g4554"><g
         id="g4556"
         clip-path="url(#clipPath4560)"><g
           id="g4562"
           transform="translate(10.1191,342.0889)"><path
             d="m 0,0 c 5.414,-9.383 17.489,-12.614 26.872,-7.2 l 4.224,2.438 214.776,124.016 214.806,-124.016 4.223,-2.438 c 9.354,-5.414 21.458,-2.183 26.844,7.2 5.414,9.354 2.183,21.458 -7.2,26.873 L 256.672,158.43 c -3.118,1.814 -6.944,2.693 -10.8,2.693 -3.826,0 -7.682,-0.879 -10.8,-2.693 L 7.199,26.873 C -2.154,21.458 -5.414,9.354 0,0"
             style="fill:#9fd4fe;fill-opacity:1;fill-rule:evenodd;stroke:none"
             id="path4564" /></g><g
           id="g4566"
           transform="translate(35.3184,198.9946)"><path
             d="m 0,0 h 107.97 58.704 107.998 58.704 107.998 23.216 c 2.522,0 4.592,2.069 4.592,4.592 v 27.44 c 0,2.523 -2.07,4.592 -4.592,4.592 H 435.479 5.896 -23.215 c -2.523,0 -4.593,-2.069 -4.593,-4.592 V 4.592 c 0,-2.523 2.07,-4.592 4.593,-4.592 z"
             style="fill:#9fd4fe;fill-opacity:1;fill-rule:evenodd;stroke:none"
             id="path4568" /></g><g
           id="g4570"
           transform="translate(56.2949,166.2827)"><path
             d="m 0,0 h 66.018 16.525 c 2.437,0 4.45,2.013 4.45,4.451 V 32.712 H -20.977 V 4.451 C -20.977,2.013 -18.964,0 -16.526,0 Z"
             style="fill:#eceaec;fill-opacity:1;fill-rule:evenodd;stroke:none"
             id="path4572" /></g><g
           id="g4574"
           transform="translate(222.9971,166.2827)"><path
             d="m 0,0 h 65.989 16.526 c 2.465,0 4.478,2.013 4.478,4.451 V 32.712 H -21.005 V 4.451 C -21.005,2.013 -18.992,0 -16.526,0 Z"
             style="fill:#eceaec;fill-opacity:1;fill-rule:evenodd;stroke:none"
             id="path4576" /></g><g
           id="g4578"
           transform="translate(373.1738,166.2827)"><path
             d="m 0,0 h 16.525 65.99 16.525 c 2.466,0 4.479,2.013 4.479,4.451 V 32.712 H -4.479 V 4.451 C -4.479,2.013 -2.467,0 0,0"
             style="fill:#eceaec;fill-opacity:1;fill-rule:evenodd;stroke:none"
             id="path4580" /></g><path
           d="m 389.699,78.125 h 65.989 v 88.158 h -65.989 z"
           style="fill:#ffe07d;fill-opacity:1;fill-rule:evenodd;stroke:none"
           id="path4582" /><path
           d="m 222.997,78.125 h 65.989 v 88.158 h -65.989 z"
           style="fill:#ffe07d;fill-opacity:1;fill-rule:evenodd;stroke:none"
           id="path4584" /><path
           d="m 56.295,78.125 h 66.018 v 88.158 H 56.295 Z"
           style="fill:#ffe07d;fill-opacity:1;fill-rule:evenodd;stroke:none"
           id="path4586" /><g
           id="g4588"
           transform="translate(35.3184,45.4126)"><path
             d="m 0,0 h 107.97 v 28.233 c 0,2.466 -2.013,4.479 -4.45,4.479 H 86.994 20.977 4.45 C 2.013,32.712 0,30.699 0,28.233 Z"
             style="fill:#eceaec;fill-opacity:1;fill-rule:evenodd;stroke:none"
             id="path4590" /></g><g
           id="g4592"
           transform="translate(368.6943,45.4126)"><path
             d="m 0,0 h 107.998 v 28.233 c 0,2.466 -2.013,4.479 -4.478,4.479 H 86.994 21.005 4.479 C 2.013,32.712 0,30.699 0,28.233 Z"
             style="fill:#eceaec;fill-opacity:1;fill-rule:evenodd;stroke:none"
             id="path4594" /></g><g
           id="g4596"
           transform="translate(201.9922,45.4126)"><path
             d="m 0,0 h 107.998 v 28.233 c 0,2.466 -2.013,4.479 -4.478,4.479 H 86.994 21.005 4.479 C 2.013,32.712 0,30.699 0,28.233 Z"
             style="fill:#eceaec;fill-opacity:1;fill-rule:evenodd;stroke:none"
             id="path4598" /></g><g
           id="g4600"
           transform="translate(12.1035,8.7886)"><path
             d="m 0,0 h 487.805 c 2.522,0 4.591,2.069 4.591,4.592 v 27.44 c 0,2.523 -2.069,4.592 -4.591,4.592 H 464.589 356.591 297.887 189.889 131.185 23.215 0 c -2.523,0 -4.593,-2.069 -4.593,-4.592 V 4.592 C -4.593,2.069 -2.523,0 0,0"
             style="fill:#9fd4fe;fill-opacity:1;fill-rule:evenodd;stroke:none"
             id="path4602" /></g><g
           id="g4604"
           transform="translate(233.0879,392.9995)"><path
             d="m 0,0 c 0,-13.266 10.743,-24.01 24.009,-24.01 13.237,0 24.009,10.744 24.009,24.01 0,13.266 -10.772,24.01 -24.009,24.01 C 10.743,24.01 0,13.266 0,0"
             style="fill:#ffe07d;fill-opacity:1;fill-rule:evenodd;stroke:none"
             id="path4606" /></g><g
           id="g4608"
           transform="translate(122.3125,166.2827)"><path
             d="m 0,0 v -88.158 h 16.525 c 2.438,0 4.451,-2.013 4.451,-4.479 V -120.87 H 79.68 v 28.233 c 0,2.466 2.012,4.479 4.478,4.479 h 16.527 V 0 H 84.158 C 81.692,0 79.68,2.013 79.68,4.451 V 32.712 H 20.976 V 4.451 C 20.976,2.013 18.963,0 16.525,0 Z"
             style="fill:#b6b1b7;fill-opacity:1;fill-rule:evenodd;stroke:none"
             id="path4610" /></g><g
           id="g4612"
           transform="translate(288.9863,166.2827)"><path
             d="m 0,0 v -88.158 h 16.525 c 2.466,0 4.479,-2.013 4.479,-4.479 v -28.233 h 58.704 v 28.233 c 0,2.466 2.013,4.479 4.48,4.479 h 16.525 V 0 H 84.188 c -2.467,0 -4.48,2.013 -4.48,4.451 V 32.712 H 21.004 V 4.451 C 21.004,2.013 18.991,0 16.525,0 Z"
             style="fill:#b6b1b7;fill-opacity:1;fill-rule:evenodd;stroke:none"
             id="path4614" /></g><g
           id="g4616"
           transform="translate(255.9912,461.3433)"><path
             d="M 0,0 -214.776,-124.017 V -151.91 L 0,-27.893 214.806,-151.91 v 27.893 z"
             style="fill:#dad8db;fill-opacity:1;fill-rule:evenodd;stroke:none"
             id="path4618" /></g><g
           id="g4620"
           transform="translate(257.0967,417.0093)"><path
             d="m 0,0 c -13.266,0 -24.009,-10.744 -24.009,-24.01 0,-2.749 0.453,-5.357 1.304,-7.823 3.543,8.815 12.188,15.023 22.252,15.023 10.516,0 19.474,-6.774 22.705,-16.186 1.134,2.778 1.757,5.811 1.757,8.986 C 24.009,-10.744 13.237,0 0,0"
             style="fill:#ffc269;fill-opacity:1;fill-rule:evenodd;stroke:none"
             id="path4622" /></g><path
           d="m 56.295,142.301 h 66.018 v 23.981 H 56.295 Z"
           style="fill:#ffc269;fill-opacity:1;fill-rule:evenodd;stroke:none"
           id="path4624" /><path
           d="m 222.997,142.301 h 65.989 v 23.981 h -65.989 z"
           style="fill:#ffc269;fill-opacity:1;fill-rule:evenodd;stroke:none"
           id="path4626" /><path
           d="m 389.699,142.301 h 65.989 v 23.981 h -65.989 z"
           style="fill:#ffc269;fill-opacity:1;fill-rule:evenodd;stroke:none"
           id="path4628" /><path
           d="m 35.318,181.448 h 107.97 v 17.546 H 35.318 Z"
           style="fill:#dad8db;fill-opacity:1;fill-rule:evenodd;stroke:none"
           id="path4630" /><path
           d="M 201.992,181.448 H 309.99 v 17.546 H 201.992 Z"
           style="fill:#dad8db;fill-opacity:1;fill-rule:evenodd;stroke:none"
           id="path4632" /><path
           d="m 368.694,181.448 h 107.998 v 17.546 H 368.694 Z"
           style="fill:#dad8db;fill-opacity:1;fill-rule:evenodd;stroke:none"
           id="path4634" /><g
           id="g4636"
           transform="translate(41.2148,235.6187)"><path
             d="m 0,0 v 101.708 m 429.582,0 V 0"
             style="fill:none;stroke:#000000;stroke-width:15;stroke-linecap:round;stroke-linejoin:round;stroke-miterlimit:10;stroke-dasharray:none;stroke-opacity:1"
             id="path4638" /></g><g
           id="g4640"
           transform="translate(10.1191,342.0889)"><path
             d="M 0,0 C -5.414,9.354 -2.154,21.458 7.199,26.873 L 235.072,158.43 c 3.118,1.814 6.974,2.693 10.8,2.693 3.856,0 7.682,-0.879 10.8,-2.693 L 484.545,26.873 c 9.383,-5.415 12.614,-17.519 7.2,-26.873 -5.386,-9.383 -17.49,-12.614 -26.844,-7.2 L 245.872,119.254 26.872,-7.2 C 17.489,-12.614 5.414,-9.383 0,0 Z"
             style="fill:none;stroke:#000000;stroke-width:15;stroke-linecap:round;stroke-linejoin:round;stroke-miterlimit:10;stroke-dasharray:none;stroke-opacity:1"
             id="path4642" /></g><g
           id="g4644"
           transform="translate(240.3447,8.7886)"><path
             d="m 0,0 h -228.241 c -2.524,0 -4.593,2.069 -4.593,4.592 v 27.44 c 0,2.523 2.069,4.592 4.593,4.592 h 487.804 c 2.523,0 4.592,-2.069 4.592,-4.592 V 4.592 C 264.155,2.069 262.086,0 259.563,0 H 34.61"
             style="fill:none;stroke:#000000;stroke-width:15;stroke-linecap:round;stroke-linejoin:round;stroke-miterlimit:10;stroke-dasharray:none;stroke-opacity:1"
             id="path4646" /></g><g
           id="g4648"
           transform="translate(273.708,235.6187)"><path
             d="m 0,0 h 226.2 c 2.523,0 4.592,-2.069 4.592,-4.592 v -27.44 c 0,-2.523 -2.069,-4.592 -4.592,-4.592 h -487.804 c -2.524,0 -4.593,2.069 -4.593,4.592 v 27.44 c 0,2.523 2.069,4.592 4.593,4.592 h 228.241"
             style="fill:none;stroke:#000000;stroke-width:15;stroke-linecap:round;stroke-linejoin:round;stroke-miterlimit:10;stroke-dasharray:none;stroke-opacity:1"
             id="path4650" /></g><g
           id="g4652"
           transform="translate(35.3184,198.9946)"><path
             d="m 0,0 h 107.97 v -28.261 c 0,-2.438 -2.013,-4.451 -4.45,-4.451 H 4.45 c -2.437,0 -4.45,2.013 -4.45,4.451 z"
             style="fill:none;stroke:#000000;stroke-width:15;stroke-linecap:round;stroke-linejoin:round;stroke-miterlimit:10;stroke-dasharray:none;stroke-opacity:1"
             id="path4654" /></g><g
           id="g4656"
           transform="translate(35.3184,45.4126)"><path
             d="m 0,0 h 107.97 v 28.233 c 0,2.466 -2.013,4.479 -4.45,4.479 H 4.45 C 2.013,32.712 0,30.699 0,28.233 Z"
             style="fill:none;stroke:#000000;stroke-width:15;stroke-linecap:round;stroke-linejoin:round;stroke-miterlimit:10;stroke-dasharray:none;stroke-opacity:1"
             id="path4658" /></g><path
           d="m 56.295,78.125 h 66.018 v 88.158 H 56.295 Z"
           style="fill:none;stroke:#000000;stroke-width:15;stroke-linecap:round;stroke-linejoin:round;stroke-miterlimit:10;stroke-dasharray:none;stroke-opacity:1"
           id="path4660" /><g
           id="g4662"
           transform="translate(201.9922,198.9946)"><path
             d="m 0,0 h 107.998 v -28.261 c 0,-2.438 -2.013,-4.451 -4.478,-4.451 H 4.479 C 2.013,-32.712 0,-30.699 0,-28.261 Z"
             style="fill:none;stroke:#000000;stroke-width:15;stroke-linecap:round;stroke-linejoin:round;stroke-miterlimit:10;stroke-dasharray:none;stroke-opacity:1"
             id="path4664" /></g><g
           id="g4666"
           transform="translate(201.9922,45.4126)"><path
             d="m 0,0 h 107.998 v 28.233 c 0,2.466 -2.013,4.479 -4.478,4.479 H 4.479 C 2.013,32.712 0,30.699 0,28.233 Z"
             style="fill:none;stroke:#000000;stroke-width:15;stroke-linecap:round;stroke-linejoin:round;stroke-miterlimit:10;stroke-dasharray:none;stroke-opacity:1"
             id="path4668" /></g><path
           d="m 222.997,78.125 h 65.989 v 88.158 h -65.989 z"
           style="fill:none;stroke:#000000;stroke-width:15;stroke-linecap:round;stroke-linejoin:round;stroke-miterlimit:10;stroke-dasharray:none;stroke-opacity:1"
           id="path4670" /><g
           id="g4672"
           transform="translate(368.6943,198.9946)"><path
             d="m 0,0 h 107.998 v -28.261 c 0,-2.438 -2.013,-4.451 -4.478,-4.451 H 4.479 C 2.013,-32.712 0,-30.699 0,-28.261 Z"
             style="fill:none;stroke:#000000;stroke-width:15;stroke-linecap:round;stroke-linejoin:round;stroke-miterlimit:10;stroke-dasharray:none;stroke-opacity:1"
             id="path4674" /></g><g
           id="g4676"
           transform="translate(368.6943,45.4126)"><path
             d="m 0,0 h 107.998 v 28.233 c 0,2.466 -2.013,4.479 -4.478,4.479 H 4.479 C 2.013,32.712 0,30.699 0,28.233 Z"
             style="fill:none;stroke:#000000;stroke-width:15;stroke-linecap:round;stroke-linejoin:round;stroke-miterlimit:10;stroke-dasharray:none;stroke-opacity:1"
             id="path4678" /></g><path
           d="m 389.699,78.125 h 65.989 v 88.158 h -65.989 z"
           style="fill:none;stroke:#000000;stroke-width:15;stroke-linecap:round;stroke-linejoin:round;stroke-miterlimit:10;stroke-dasharray:none;stroke-opacity:1"
           id="path4680" /><g
           id="g4682"
           transform="translate(257.0967,368.9897)"><path
             d="M 0,0 C 13.209,0 24.009,10.8 24.009,24.01 24.009,37.219 13.209,48.02 0,48.02 -13.237,48.02 -24.009,37.219 -24.009,24.01 -24.009,10.8 -13.237,0 0,0 Z"
             style="fill:none;stroke:#000000;stroke-width:15;stroke-linecap:round;stroke-linejoin:round;stroke-miterlimit:10;stroke-dasharray:none;stroke-opacity:1"
             id="path4684" /></g><g
           id="g4686"
           transform="translate(161.2959,317.9194)"><path
             d="m 0,0 c 0,-7.401 -6.001,-13.402 -13.402,-13.402 -3.671,0 -16.918,-0.059 -16.918,-0.059 V 0 13.402 h 16.918 C -6.001,13.402 0,7.402 0,0 Z"
             style="fill:none;stroke:#000000;stroke-width:15;stroke-linecap:round;stroke-linejoin:round;stroke-miterlimit:10;stroke-dasharray:none;stroke-opacity:1"
             id="path4688" /></g><g
           id="g4690"
           transform="translate(166.5254,288.8242)"><path
             d="m 0,0 c 0,-8.658 -7.019,-15.677 -15.677,-15.677 -4.294,0 -19.873,-0.07 -19.873,-0.07 V 0 15.678 h 19.873 C -7.019,15.678 0,8.659 0,0 Z"
             style="fill:none;stroke:#000000;stroke-width:15;stroke-linecap:round;stroke-linejoin:round;stroke-miterlimit:10;stroke-dasharray:none;stroke-opacity:1"
             id="path4692" /></g><g
           id="g4694"
           transform="translate(194.7412,273.0776)"><path
             d="m 0,0 21.87,57.423 c 0.447,1.093 1.994,1.095 2.442,0.003 L 45.984,0"
             style="fill:none;stroke:#000000;stroke-width:15;stroke-linecap:round;stroke-linejoin:round;stroke-miterlimit:10;stroke-dasharray:none;stroke-opacity:1"
             id="path4696" /></g><g
           id="g4698"
           transform="translate(201.5615,287.3794)"><path
             d="M 0,0 H 32.453"
             style="fill:none;stroke:#000000;stroke-width:15;stroke-linecap:round;stroke-linejoin:round;stroke-miterlimit:10;stroke-dasharray:none;stroke-opacity:1"
             id="path4700" /></g><g
           id="g4702"
           transform="translate(271.3291,273.0776)"><path
             d="M 0,0 V 58.135 L 39.305,1.22 c 0.728,-1.053 1.508,-0.537 1.508,0.743 L 40.27,58.244"
             style="fill:none;stroke:#000000;stroke-width:15;stroke-linecap:round;stroke-linejoin:round;stroke-miterlimit:10;stroke-dasharray:none;stroke-opacity:1"
             id="path4704" /></g><g
           id="g4706"
           transform="translate(348.9277,332.0498)"><path
             d="M 0,0 V -58.972"
             style="fill:none;stroke:#000000;stroke-width:15;stroke-linecap:round;stroke-linejoin:round;stroke-miterlimit:10;stroke-dasharray:none;stroke-opacity:1"
             id="path4708" /></g><g
           id="g4710"
           transform="translate(380.6504,331.3057)"><path
             d="M 0,0 -29.835,-27.424 2.094,-58.228"
             style="fill:none;stroke:#000000;stroke-width:15;stroke-linecap:round;stroke-linejoin:round;stroke-miterlimit:10;stroke-dasharray:none;stroke-opacity:1"
             id="path4712" /></g></g></g></g></svg>
