<svg viewBox="0 0 24 24" xmlns="http://www.w3.org/2000/svg"><g id="Icon"><g fill="#fac1c9"><circle cx="11.24" cy="7.5" r="5.25"/><path d="m22 17a4.75 4.75 0 0 0 -4.75-4.75 4.7 4.7 0 0 0 -2.95 1.06 4.91 4.91 0 0 0 -.67-.06h-4.77a6.92 6.92 0 0 0 -6.61 5 2.75 2.75 0 0 0 2.64 3.51h12.7a2.76 2.76 0 0 0 1.24-.29 4.76 4.76 0 0 0 3.17-4.47z"/><path d="m4.83 21.75h7.23a.75.75 0 1 0 0-1.5h-7.23a1.25 1.25 0 0 1 -1.2-1.59 5.4 5.4 0 0 1 5.18-3.91h2.59a.75.75 0 0 0 0-1.5h-2.59a6.92 6.92 0 0 0 -6.63 5 2.76 2.76 0 0 0 2.65 3.51z"/></g><path d="m11.17 12.75a5.25 5.25 0 1 0 -5.25-5.25 5.25 5.25 0 0 0 5.25 5.25zm0-9a3.75 3.75 0 1 1 -3.75 3.75 3.75 3.75 0 0 1 3.75-3.75zm1.64 17.25a.76.76 0 0 1 -.75.75h-7.23a2.76 2.76 0 0 1 -2.65-3.51 6.92 6.92 0 0 1 6.63-5h2.59a.75.75 0 0 1 0 1.5h-2.59a5.4 5.4 0 0 0 -5.18 3.91 1.25 1.25 0 0 0 1.2 1.59h7.23a.76.76 0 0 1 .75.76zm9.11-4a4.75 4.75 0 0 0 -4.75-4.75 4.7 4.7 0 0 0 -3.4 1.46s0 .07-.07.1a4.73 4.73 0 0 0 6.73 6.64h.05s0 0 0 0a4.68 4.68 0 0 0 1.44-3.45zm-1.5 0a3.22 3.22 0 0 1 -.55 1.81l-4.51-4.51a3.25 3.25 0 0 1 5.06 2.7zm-6.5 0a3.25 3.25 0 0 1 .43-1.58l4.41 4.4a3.18 3.18 0 0 1 -1.59.43 3.26 3.26 0 0 1 -3.25-3.25z" fill="#ef314c"/></g></svg>