<?xml version="1.0" encoding="UTF-8" standalone="no"?>
<!-- Created with Inkscape (http://www.inkscape.org/) -->

<svg
   version="1.1"
   id="svg1239"
   xml:space="preserve"
   width="682.66669"
   height="682.66669"
   viewBox="0 0 682.66669 682.66669"
   xmlns="http://www.w3.org/2000/svg"
   xmlns:svg="http://www.w3.org/2000/svg"><defs
     id="defs1243"><clipPath
       clipPathUnits="userSpaceOnUse"
       id="clipPath1253"><path
         d="M 0,512 H 512 V 0 H 0 Z"
         id="path1251" /></clipPath></defs><g
     id="g1245"
     transform="matrix(1.3333333,0,0,-1.3333333,0,682.66667)"><g
       id="g1247"><g
         id="g1249"
         clip-path="url(#clipPath1253)"><g
           id="g1255"
           transform="translate(406,166)"><path
             d="m 0,0 c 0,74.559 -60.441,135 -135,135 h -60 -60 C -329.559,135 -390,74.559 -390,0 V -45 H -195 0 Z"
             style="fill:#99aaff;fill-opacity:1;fill-rule:nonzero;stroke:none"
             id="path1257" /></g><g
           id="g1259"
           transform="translate(406,121)"><path
             d="m 0,0 v 45 c 0,74.559 -60.441,135 -135,135 h -60 V 0 Z"
             style="fill:#8080ff;fill-opacity:1;fill-rule:nonzero;stroke:none"
             id="path1261" /></g><g
           id="g1263"
           transform="translate(391,211)"><path
             d="m 0,0 c -57.891,0 -105,-47.109 -105,-105 0,-57.891 47.109,-106 105,-106 57.891,0 105,48.109 105,106 C 105,-47.109 57.891,0 0,0"
             style="fill:#e65c73;fill-opacity:1;fill-rule:nonzero;stroke:none"
             id="path1265" /></g><g
           id="g1267"
           transform="translate(496,106)"><path
             d="M 0,0 C 0,57.891 -47.109,105 -105,105 V -106 C -47.109,-106 0,-57.891 0,0"
             style="fill:#cc3d54;fill-opacity:1;fill-rule:nonzero;stroke:none"
             id="path1269" /></g><g
           id="g1271"
           transform="translate(412.2109,106)"><path
             d="M 0,0 21.211,21.211 0,42.422 -21.211,21.211 -42.422,42.422 -63.633,21.211 -42.422,0 -63.633,-21.211 -42.422,-42.422 -21.211,-21.211 0,-42.422 21.211,-21.211 Z"
             style="fill:#f3f5f9;fill-opacity:1;fill-rule:nonzero;stroke:none"
             id="path1273" /></g><g
           id="g1275"
           transform="translate(433.4219,84.7891)"><path
             d="M 0,0 -21.211,21.211 0,42.422 -21.211,63.633 -42.422,42.422 V 0 l 21.211,-21.211 z"
             style="fill:#d4dae6;fill-opacity:1;fill-rule:nonzero;stroke:none"
             id="path1277" /></g><g
           id="g1279"
           transform="translate(211,512)"><path
             d="m 0,0 c -57.891,0 -105,-48.109 -105,-106 0,-57.891 47.109,-105 105,-105 57.891,0 105,47.109 105,105 C 105,-48.109 57.891,0 0,0"
             style="fill:#ffe6cc;fill-opacity:1;fill-rule:nonzero;stroke:none"
             id="path1281" /></g><g
           id="g1283"
           transform="translate(211,301)"><path
             d="M 0,0 C 57.891,0 105,47.109 105,105 105,162.891 57.891,211 0,211 Z"
             style="fill:#ffccb3;fill-opacity:1;fill-rule:nonzero;stroke:none"
             id="path1285" /></g></g></g></g></svg>
