<svg height="512" viewBox="0 0 64 64" width="512" xmlns="http://www.w3.org/2000/svg"><g id="Layer_2" data-name="Layer 2"><rect fill="#0a51ad" height="42" rx="1" width="58" x="3" y="12"/><path d="m60 12h-28v42h28a1 1 0 0 0 1-1v-40a1 1 0 0 0 -1-1z" fill="#1e7eeb"/><path d="m56 9v37a1 1 0 0 1 -1 1h-12.28a19 19 0 0 0 -8.5 2l-1.77.88c-.7.35-1.13-.21-2.67-.88a19 19 0 0 0 -8.5-2h-12.28a1 1 0 0 1 -1-1v-37a1 1 0 0 1 1-1h12.28.72a21.07 21.07 0 0 1 8.67 2.2l1.33.66 1.33-.66a21.12 21.12 0 0 1 9.39-2.2h12.28a1 1 0 0 1 1 1z" fill="#f08f1f"/><path d="m22 8v23a1 1 0 0 1 -1.55.83l-2.45-1.63-2.45 1.63a1 1 0 0 1 -1.55-.83v-23z" fill="#008abd"/><path d="m55 8h-12.28a22.19 22.19 0 0 0 -10.72 2.88v39.12c1 0 4.3-3 10.72-3h12.28a1 1 0 0 0 1-1v-37a1 1 0 0 0 -1-1z" fill="#ffd138"/><path d="m4 54h3v-42h-3a1 1 0 0 0 -1 1v40a1 1 0 0 0 1 1z" fill="#003996"/><path d="m9 47h3v-39h-3a1 1 0 0 0 -1 1v37a1 1 0 0 0 1 1z" fill="#f26c24"/><path d="m55 8h-3v39h3a1 1 0 0 0 1-1v-37a1 1 0 0 0 -1-1z" fill="#ffe37e"/><path d="m60 12h-3v42h3a1 1 0 0 0 1-1v-40a1 1 0 0 0 -1-1z" fill="#31b6eb"/></g><g id="Layer_3" fill="#0a0c0c" data-name="Layer 3"><path d="m38 38h12v2h-12z"/><path d="m38 34h8.13v2h-8.13z"/><path d="m38 30h12v2h-12z"/><path d="m38 26h8.13v2h-8.13z"/><path d="m38 22h12v2h-12z"/><path d="m60 12h-4v-3a1 1 0 0 0 -1-1h-12.28a22.19 22.19 0 0 0 -10.72 2.88 22.31 22.31 0 0 0 -10.72-2.88h-12.28a1 1 0 0 0 -1 1v3h-4a1 1 0 0 0 -1 1v40a1 1 0 0 0 1 1h56a1 1 0 0 0 1-1v-40a1 1 0 0 0 -1-1zm-17.28-2h11.28v35h-11.28a22.21 22.21 0 0 0 -9.72 2.38v-34.76a20.13 20.13 0 0 1 9.72-2.62zm-22.72 0v19.13l-1.45-1a1 1 0 0 0 -1.1 0l-1.45 1v-19.13zm-10 0h4v21a1 1 0 0 0 1.55.83l2.45-1.63 2.45 1.63a1 1 0 0 0 1.55-.83v-21a20.22 20.22 0 0 1 9 2.6v34.78a21.25 21.25 0 0 0 -9.72-2.38h-11.28zm49 42h-54v-38h3v32a1 1 0 0 0 1 1h12.28a19 19 0 0 1 8.5 2c1.6.7 2 1.23 2.67.88l1.77-.88a19 19 0 0 1 8.5-2h12.28a1 1 0 0 0 1-1v-32h3z"/></g></svg>