<svg id="Layer_1" viewBox="0 0 100 100" xmlns="http://www.w3.org/2000/svg" data-name="Layer 1"><path d="m60.21 14.94h-20.42a8.15 8.15 0 0 0 -8.14 8.14v3.06a1 1 0 0 0 1 1h4v-2.57a5.15 5.15 0 0 1 5.15-5.14h16.43a5.15 5.15 0 0 1 5.15 5.14v2.57h4a1 1 0 0 0 1-1v-3.06a8.15 8.15 0 0 0 -8.17-8.14z" fill="#734136"/><path d="m88.19 25.14h-76.38a8.82 8.82 0 0 0 -8.81 8.8v48.52a12 12 0 0 0 11.94 11.94h70.12a12 12 0 0 0 11.94-11.94v-48.52a8.82 8.82 0 0 0 -8.81-8.8z" fill="#734136"/><path d="m97 48.43v34a12 12 0 0 1 -11.94 11.97h-70.12a12 12 0 0 1 -11.94-11.94v-34a17.27 17.27 0 0 0 9.55 15.5 17.45 17.45 0 0 0 7.8 1.85h59.3a17.45 17.45 0 0 0 7.8-1.85 17.27 17.27 0 0 0 9.55-15.53z" fill="#7c4a42"/><path d="m88 60.75v12.3a11.43 11.43 0 0 1 -10.71 11.39h-.7-53.18-.7a11.43 11.43 0 0 1 -10.71-11.39v-12.3a1 1 0 0 1 1-1h74a1 1 0 0 1 1 1z" fill="#602c24"/><path d="m87 59.75h-1.75v11.35a11.43 11.43 0 0 1 -10.71 11.39h-.7-53.18-.7a11.22 11.22 0 0 1 -4.42-1.2 11.36 11.36 0 0 0 7.17 3.15h.7 53.18.7a11.43 11.43 0 0 0 10.71-11.39v-12.3a1 1 0 0 0 -1-1z" fill="#51221d"/><path d="m50 72.62a1 1 0 0 0 -1 1v1.53a1 1 0 0 0 2 0v-1.53a1 1 0 0 0 -1-1zm0 4.72a1 1 0 0 0 -1 1v6.12h2v-6.12a1 1 0 0 0 -1-1zm0-15.74a1 1 0 0 0 -1 1v8a1 1 0 0 0 2 0v-8a1 1 0 0 0 -1-1z" fill="#7a3f38"/><path d="m80.73 7.8h-1.2v-1.2a1 1 0 1 0 -2 0v1.2h-1.2a1 1 0 1 0 0 2h1.2v1.2a1 1 0 0 0 2 0v-1.2h1.2a1 1 0 0 0 0-2z" fill="#f2d0a7"/><path d="m77.4 18.43h-1.2v-1.2a1 1 0 0 0 -2 0v1.2h-1.2a1 1 0 0 0 0 2h1.2v1.2a1 1 0 0 0 2 0v-1.2h1.2a1 1 0 0 0 0-2z" fill="#f2d0a7"/><path d="m94.85 14.94a4 4 0 0 1 -3.94-3.94 1 1 0 0 0 -2 0 4 4 0 0 1 -3.91 3.94 1 1 0 1 0 0 2 4 4 0 0 1 3.94 3.94 1 1 0 0 0 2 0 4 4 0 0 1 3.94-3.94 1 1 0 0 0 0-2z" fill="#d8ae80"/><path d="m22.47 11v-1.2h1.2a1 1 0 0 0 0-2h-1.2v-1.2a1 1 0 0 0 -2 0v1.2h-1.2a1 1 0 1 0 0 2h1.2v1.2a1 1 0 0 0 2 0z" fill="#f2d0a7"/><path d="m27 18.43h-1.2v-1.2a1 1 0 0 0 -2 0v1.2h-1.2a1 1 0 0 0 0 2h1.2v1.2a1 1 0 0 0 2 0v-1.2h1.2a1 1 0 0 0 0-2z" fill="#f2d0a7"/><path d="m15 14.94a4 4 0 0 1 -3.91-3.94 1 1 0 0 0 -2 0 4 4 0 0 1 -3.94 3.94 1 1 0 0 0 0 2 4 4 0 0 1 3.94 3.94 1 1 0 0 0 2 0 4 4 0 0 1 3.91-3.94 1 1 0 1 0 0-2z" fill="#d8ae80"/><path d="m88.19 25.14h-76.38a8.82 8.82 0 0 0 -8.81 8.8v12.2a17.34 17.34 0 0 0 17.35 17.35h59.3a17.34 17.34 0 0 0 17.35-17.35v-12.2a8.82 8.82 0 0 0 -8.81-8.8z" fill="#91514a"/><path d="m90.07 25.34a8.82 8.82 0 0 1 1.09 4.24v12.2a17.34 17.34 0 0 1 -17.35 17.35h-59.3a17.56 17.56 0 0 1 -7.25-1.59 17.38 17.38 0 0 0 13.09 6h59.3a17.34 17.34 0 0 0 17.35-17.4v-12.2a8.82 8.82 0 0 0 -6.93-8.6z" fill="#7a3f3b"/><rect fill="#734136" height="33.99" rx="1" width="10.94" x="22.71" y="25.14"/><rect fill="#734136" height="33.99" rx="1" width="10.94" x="66.35" y="25.14"/><path d="m76.29 25.14h-1.53v30a1 1 0 0 1 -1 1h-7.41v2a1 1 0 0 0 1 1h8.94a1 1 0 0 0 1-1v-32a1 1 0 0 0 -1-1z" fill="#66322a"/><path d="m23.71 25.14h1.53v30a1 1 0 0 0 1 1h7.41v2a1 1 0 0 1 -1 1h-8.94a1 1 0 0 1 -1-1v-32a1 1 0 0 1 1-1z" fill="#66322a"/><path d="m33.65 67.07v17.39h-10.24-.7v-17.39a1 1 0 0 1 1-1h8.94a1 1 0 0 1 1 1z" fill="#734136"/><path d="m77.29 67.07v17.37h-.7-10.24v-17.37a1 1 0 0 1 1-1h8.94a1 1 0 0 1 1 1z" fill="#734136"/><path d="m76.29 66.07h-1.06v16.93h-.7-8.18v1.43h10.24.7v-17.36a1 1 0 0 0 -1-1z" fill="#66322a"/><path d="m32.65 66h-1.06v17h-.7-8.18v1.43h10.29.7v-17.43a1 1 0 0 0 -1.05-1z" fill="#66322a"/><path d="m29.47 43.51a1 1 0 0 1 -1-1v-12.27a1 1 0 1 1 2 0v12.27a1 1 0 0 1 -1 1z" fill="#935d54"/><path d="m29.47 50.43a1 1 0 0 1 -1-1v-3.82a1 1 0 0 1 2 0v3.82a1 1 0 0 1 -1 1z" fill="#935d54"/><path d="m70.29 43.51a1 1 0 0 1 -1-1v-12.27a1 1 0 1 1 2 0v12.27a1 1 0 0 1 -1 1z" fill="#935d54"/><path d="m70.29 50.43a1 1 0 0 1 -1-1v-3.82a1 1 0 0 1 2 0v3.82a1 1 0 0 1 -1 1z" fill="#935d54"/><rect fill="#f2d0a7" height="10.94" rx="1" width="15.07" x="20.64" y="57.13"/><rect fill="#f2d0a7" height="10.94" rx="1" width="15.07" x="64.29" y="57.13"/><path d="m22.14 58.63h12.07v7.94h-12.07z" fill="#91514a"/><path d="m65.79 58.63h12.07v7.94h-12.07z" fill="#91514a"/><g fill="#512a0a"><path d="m76.33 9.8h1.2v1.2a1 1 0 0 0 2 0v-1.2h1.2a1 1 0 0 0 0-2h-1.2v-1.2a1 1 0 1 0 -2 0v1.2h-1.2a1 1 0 1 0 0 2z"/><path d="m73 20.43h1.2v1.2a1 1 0 0 0 2 0v-1.2h1.2a1 1 0 0 0 0-2h-1.2v-1.2a1 1 0 0 0 -2 0v1.2h-1.2a1 1 0 0 0 0 2z"/><path d="m85 16.94a4 4 0 0 1 3.94 3.94 1 1 0 0 0 2 0 4 4 0 0 1 3.94-3.94 1 1 0 0 0 0-2 4 4 0 0 1 -3.97-3.94 1 1 0 0 0 -2 0 4 4 0 0 1 -3.91 3.94 1 1 0 1 0 0 2zm4.94-2.65a5.64 5.64 0 0 0 1.65 1.65 5.89 5.89 0 0 0 -1.65 1.65 6.17 6.17 0 0 0 -1.65-1.65 5.89 5.89 0 0 0 1.62-1.65z"/><path d="m19.27 9.8h1.2v1.2a1 1 0 0 0 2 0v-1.2h1.2a1 1 0 0 0 0-2h-1.2v-1.2a1 1 0 0 0 -2 0v1.2h-1.2a1 1 0 1 0 0 2z"/><path d="m23.8 17.23v1.2h-1.2a1 1 0 0 0 0 2h1.2v1.2a1 1 0 0 0 2 0v-1.2h1.2a1 1 0 0 0 0-2h-1.2v-1.2a1 1 0 0 0 -2 0z"/><path d="m5.15 16.94a4 4 0 0 1 3.94 3.94 1 1 0 0 0 2 0 4 4 0 0 1 3.91-3.94 1 1 0 1 0 0-2 4 4 0 0 1 -3.91-3.94 1 1 0 0 0 -2 0 4 4 0 0 1 -3.94 3.94 1 1 0 0 0 0 2zm4.94-2.65a5.89 5.89 0 0 0 1.65 1.65 6.17 6.17 0 0 0 -1.65 1.65 5.89 5.89 0 0 0 -1.65-1.65 5.64 5.64 0 0 0 1.65-1.65z"/><path d="m88.19 25.14h-19.84v-2.06a8.15 8.15 0 0 0 -8.14-8.14h-20.42a8.15 8.15 0 0 0 -8.14 8.14v2.06h-19.84a8.82 8.82 0 0 0 -8.81 8.8v48.52a12 12 0 0 0 11.94 11.94h70.12a12 12 0 0 0 11.94-11.94v-48.52a8.82 8.82 0 0 0 -8.81-8.8zm-37.19 57.32v-4.12a1 1 0 0 0 -2 0v4.12h-15.35v-14.39h1.06a1 1 0 0 0 1-1v-3.58h13.29v7.11a1 1 0 0 0 2 0v-7.11h13.29v3.58a1 1 0 0 0 1 1h1.06v14.39zm10.38-57.32h-22.76v-1.57a3.15 3.15 0 0 1 3.15-3.14h16.46a3.15 3.15 0 0 1 3.15 3.14zm14.91 40.93h-10v-6.94h11.07v6.94zm-40.58-4.58v-3.36a1 1 0 0 0 -1-1h-1.06v-30h32.7v30h-1.06a1 1 0 0 0 -1 1v3.36zm-3.06 4.58h-10v-6.94h11.06v6.94zm-7.94-38.93h6.94v30h-6.94zm43.64 30v-30h6.94v30zm-56.54-30h10.9v30h-1.07a1 1 0 0 0 -1 1v3.36h-.29a15.33 15.33 0 0 1 -15.35-15.36v-12.2a6.81 6.81 0 0 1 6.81-6.8zm2.19 35.14a17.47 17.47 0 0 0 6.35 1.21h.29v3.58a1 1 0 0 0 1 1h1.07v14.35a9.41 9.41 0 0 1 -8.71-9.37zm10.71 5.79h6.94v14.39h-6.94zm43.64 0h6.94v14.39h-6.94zm8.94 0h1.07a1 1 0 0 0 1-1v-3.58h.29a17.47 17.47 0 0 0 6.35-1.21v10.77a9.41 9.41 0 0 1 -8.71 9.37zm9.26-8.21a15.29 15.29 0 0 1 -6.9 1.63h-.29v-3.36a1 1 0 0 0 -1-1h-1.07v-30h10.9a6.81 6.81 0 0 1 6.81 6.81v12.2a15.3 15.3 0 0 1 -8.45 13.72zm-46.76-42.92h20.42a6.15 6.15 0 0 1 6.14 6.14v2.06h-3v-1.57a5.15 5.15 0 0 0 -5.15-5.14h-16.43a5.15 5.15 0 0 0 -5.15 5.14v1.57h-3v-2.06a6.15 6.15 0 0 1 6.17-6.14zm55.21 65.52a10 10 0 0 1 -9.94 9.94h-70.12a10 10 0 0 1 -9.94-9.94v-28.2a17.29 17.29 0 0 0 7 7.08v11.71a11.42 11.42 0 0 0 11.41 11.41h53.18a11.42 11.42 0 0 0 11.41-11.41v-11.71a17.29 17.29 0 0 0 7-7.08z"/><path d="m29.47 29.24a1 1 0 0 0 -1 1v12.27a1 1 0 0 0 2 0v-12.27a1 1 0 0 0 -1-1z"/><path d="m29.47 44.61a1 1 0 0 0 -1 1v3.82a1 1 0 1 0 2 0v-3.82a1 1 0 0 0 -1-1z"/><path d="m70.29 29.24a1 1 0 0 0 -1 1v12.27a1 1 0 1 0 2 0v-12.27a1 1 0 0 0 -1-1z"/><path d="m70.29 44.61a1 1 0 0 0 -1 1v3.82a1 1 0 0 0 2 0v-3.82a1 1 0 0 0 -1-1z"/><path d="m50 72.62a1 1 0 0 0 -1 1v1.53a1 1 0 0 0 2 0v-1.53a1 1 0 0 0 -1-1z"/></g></svg>