<?xml version="1.0" encoding="iso-8859-1"?>
<!-- Generator: Adobe Illustrator 19.0.0, SVG Export Plug-In . SVG Version: 6.00 Build 0)  -->
<svg version="1.1" id="Capa_1" xmlns="http://www.w3.org/2000/svg" xmlns:xlink="http://www.w3.org/1999/xlink" x="0px" y="0px"
	 viewBox="0 0 512 512" style="enable-background:new 0 0 512 512;" xml:space="preserve">
<path style="fill:#6C7A88;" d="M45.5,169c-20.987,0-38,17.013-38,38v282.499H46h210V169H45.5z"/>
<path style="fill:#4D5967;" d="M466.5,169H256v320.499h210h38.5V207C504.5,186.013,487.487,169,466.5,169z"/>
<path style="fill:#8B9BA9;" d="M437,140H75c-16.016,0-29,12.983-29,29v320.499h420V169C466,152.983,453.016,140,437,140z"/>
<path style="fill:#6C7A88;" d="M437,140h-1v319.499H46v30h420V169C466,152.983,453.016,140,437,140z"/>
<path style="fill:#FF5368;" d="M323.133,256H188.867c-8.372,0-15.159,6.786-15.159,15.159V504.5h164.584V271.159
	C338.292,262.786,331.505,256,323.133,256z"/>
<polygon style="fill:#C5324F;" points="302,259 302,474.5 173.708,474.5 173.708,504.5 248.5,504.5 263.5,504.5 338.292,504.5 
	338.292,259 "/>
<path style="fill:#FFF9EB;" d="M127.5,504.5v-222c0-33.137,26.863-60,60-60h137c33.137,0,60,26.863,60,60v222H332V289
	c0-7.732-6.268-14-14-14H194c-7.732,0-14,6.268-14,14v215.5H127.5z"/>
<g>
	<rect x="127.5" y="474.5" style="fill:#B6B0A2;" width="52.5" height="30"/>
	<path style="fill:#B6B0A2;" d="M354.5,282.5v192H332v30h52.5v-222c0-33.137-26.863-60-60-60l0,0
		c0,14.278,6.928,27.502,18.248,36.203C349.889,264.192,354.5,272.818,354.5,282.5z"/>
</g>
<path style="fill:#FF5368;" d="M384.5,87.5h-48.526c-0.537-43.735-36.126-80-79.974-80s-79.437,36.265-79.974,80H127.5
	C98.625,87.5,75,111.125,75,140s23.625,52.5,52.5,52.5h257c28.875,0,52.5-23.625,52.5-52.5S413.375,87.5,384.5,87.5z"/>
<path style="fill:#C5324F;" d="M256,37.5c-27.569,0-49.999,22.43-49.999,49.999h99.998C305.999,59.93,283.569,37.5,256,37.5z"/>
<path d="M148.555,161.225c2.929-2.928,2.929-7.678,0-10.605c-2.928-2.93-7.677-2.93-10.604,0c-5.847,5.848-15.363,5.846-21.21,0
	c-5.848-5.85-5.848-15.363,0-21.211c5.846-5.85,15.362-5.848,21.21,0c2.927,2.928,7.676,2.93,10.604-0.002
	c2.929-2.928,2.929-7.676,0-10.604c-11.694-11.695-30.726-11.697-42.421,0.002c-11.696,11.695-11.696,30.727,0,42.42
	C117.829,172.92,136.86,172.92,148.555,161.225z"/>
<path d="M161.563,169.518c3.88,1.451,8.201-0.51,9.656-4.389l0.987-2.633h17.728l0.988,2.633c1.128,3.012,3.985,4.867,7.021,4.867
	c0.875,0,1.765-0.152,2.633-0.479c3.876-1.453,5.841-5.775,4.387-9.654l-16.872-44.996c-1.099-2.926-3.896-4.863-7.021-4.863
	s-5.925,1.938-7.021,4.863l-16.873,44.996C155.72,163.742,157.687,168.064,161.563,169.518z M181.069,138.859l3.238,8.639h-6.479
	L181.069,138.859z"/>
<path d="M231.835,154.998h-11.249c-4.141,0-7.498,3.355-7.498,7.498s3.357,7.5,7.498,7.5h11.249c10.338,0,18.748-8.41,18.748-18.748
	s-8.41-18.748-18.748-18.748c-2.068,0-3.75-1.682-3.75-3.75c0-2.066,1.682-3.748,3.75-3.748h5.249c4.142,0,7.499-3.357,7.499-7.5
	s-3.357-7.498-7.499-7.498h-5.249c-10.338,0-18.747,8.41-18.747,18.746c0,10.338,8.409,18.748,18.747,18.748
	c2.068,0,3.75,1.684,3.75,3.75S233.904,154.998,231.835,154.998z"/>
<path d="M262.52,154.998c-4.141,0-7.498,3.355-7.498,7.498s3.357,7.5,7.498,7.5h21.997c4.142,0,7.499-3.357,7.499-7.5
	s-3.357-7.498-7.499-7.498h-3.499v-29.996h3.499c4.142,0,7.499-3.357,7.499-7.5s-3.357-7.498-7.499-7.498H262.52
	c-4.141,0-7.498,3.355-7.498,7.498s3.357,7.5,7.498,7.5h3.499v29.996H262.52z"/>
<path d="M308.161,169.996c4.141,0,7.499-3.355,7.499-7.498V140.41l19.449,26.521c1.439,1.965,3.705,3.064,6.049,3.064
	c0.778,0,1.563-0.121,2.332-0.373c3.083-1.008,5.167-3.885,5.167-7.127v-44.994c-0.001-4.141-3.358-7.498-7.5-7.498
	s-7.499,3.355-7.499,7.498v22.088l-19.45-26.521c-1.918-2.613-5.298-3.701-8.38-2.691c-3.082,1.008-5.165,3.885-5.165,7.125v44.996
	C300.663,166.641,304.02,169.996,308.161,169.996z"/>
<path d="M384.641,169.996c16.54,0,29.997-13.457,29.997-29.998c0-16.539-13.457-29.994-29.997-29.994
	c-16.539,0-29.996,13.455-29.996,29.994C354.645,156.539,368.102,169.996,384.641,169.996z M384.641,125.002
	c8.27,0,14.998,6.729,14.998,14.996c0,8.271-6.729,15-14.998,15s-14.997-6.729-14.997-15
	C369.644,131.73,376.372,125.002,384.641,125.002z"/>
<path d="M472.813,161.937c-2.846-14.454-14.25-25.873-28.697-28.739C440.728,103.304,415.284,80,384.5,80h-41.32
	C339.364,35.25,301.721,0,256,0s-83.364,35.25-87.18,80H127.5c-30.784,0-56.228,23.304-59.617,53.197
	c-14.446,2.866-25.851,14.285-28.697,28.739C17.075,165.02,0,184.053,0,207v282.499c0,4.143,3.357,7.5,7.5,7.5H120v7.501
	c0,1.97,0.8,3.91,2.2,5.3c1.39,1.399,3.319,2.2,5.3,2.2h257c1.979,0,3.91-0.801,5.3-2.2c1.4-1.39,2.2-3.33,2.2-5.3v-7.501h112.5
	c4.143,0,7.5-3.357,7.5-7.5V207C512,184.053,494.925,165.02,472.813,161.937z M256,15c37.445,0,68.35,28.534,72.114,65H214.16
	c3.493-19.616,20.708-35,41.84-35c13.99,0,27.1,6.92,35.069,18.529c2.337,3.404,7.01,4.276,10.431,1.94
	c3.41-2.34,4.279-7.021,1.939-10.43C292.7,39.359,274.96,30,256,30c-29.151,0-53.335,21.809-57.015,50h-15.099
	C187.65,43.534,218.555,15,256,15z M127.5,95h257c24.813,0,45,20.187,45,45s-20.187,45-45,45h-257c-24.813,0-45-20.187-45-45
	S102.687,95,127.5,95z M15,207c0-14.409,10.045-26.517,23.5-29.688V482H15V207z M324.5,289v208h-61V282.5H318
	C321.58,282.51,324.49,285.42,324.5,289z M248.5,497h-61V289c0.01-3.58,2.92-6.49,6.5-6.5h54.5V497z M384.5,305
	c-4.141,0-7.5,3.359-7.5,7.5V497h-37.5V289c0-0.092,0-0.183-0.002-0.274c0-0.017-0.001-0.032-0.001-0.049
	c-0.001-0.076-0.002-0.152-0.004-0.229c0-0.008-0.001-0.017-0.001-0.024c-0.145-5.525-2.369-10.701-6.292-14.624
	c-3.924-3.924-9.099-6.147-14.624-6.292c-0.008,0-0.017-0.001-0.025-0.001c-0.076-0.002-0.152-0.003-0.228-0.004
	c-0.016-0.001-0.032-0.001-0.049-0.001c-0.091-0.001-0.183-0.002-0.274-0.002H194c-0.092,0-0.183,0.001-0.274,0.002
	c-0.016,0-0.033,0-0.049,0.001c-0.076,0.001-0.152,0.002-0.228,0.004c-0.009,0-0.017,0.001-0.025,0.001
	c-5.524,0.145-10.7,2.368-14.624,6.292c-3.923,3.923-6.147,9.099-6.292,14.624c0,0.008-0.001,0.017-0.001,0.024
	c-0.002,0.076-0.003,0.152-0.004,0.229c0,0.017-0.001,0.032-0.001,0.049c-0.001,0.092-0.002,0.183-0.002,0.274v208H135l0,0
	c0-0.011,0-214.49,0-214.5l0,0c0-14.021,5.46-27.2,15.38-37.12S173.479,230,187.5,230h137c14.01,0,27.2,5.46,37.12,15.38
	S377,268.479,377,282.5c0,4.13,3.359,7.5,7.5,7.5c4.14,0,7.5-3.37,7.5-7.5c0-18.052-7.135-35.095-19.771-47.73
	C359.303,221.843,342.118,215,324.5,215h-137c-18.48,0-35.412,7.451-47.73,19.77C127.135,247.404,120,264.446,120,282.5v199.499
	H53.5V169c0-9.45,6.128-17.495,14.619-20.371C72.315,177.64,97.345,200,127.5,200h257c30.155,0,55.185-22.36,59.381-51.371
	C452.372,151.505,458.5,159.55,458.5,169v312.999H392V312.5C392,308.359,388.64,305,384.5,305z M497,481.999h-23.5V177.312
	C486.955,180.483,497,192.591,497,207V481.999z"/>
<path d="M226,483.319c4.14,0,7.5-3.35,7.5-7.5c0-4.14-3.36-7.5-7.5-7.5c-4.141,0-7.5,3.36-7.5,7.5
	C218.5,479.97,221.859,483.319,226,483.319z"/>
<path d="M226,454.64c4.14,0,7.5-3.36,7.5-7.49c0-4.149-3.36-7.51-7.5-7.51c-4.141,0-7.5,3.36-7.5,7.51
	C218.5,451.279,221.859,454.64,226,454.64z"/>
<path d="M226,311.26c4.14,0,7.5-3.36,7.5-7.51c0-4.141-3.36-7.49-7.5-7.49c-4.141,0-7.5,3.35-7.5,7.49
	C218.5,307.899,221.859,311.26,226,311.26z"/>
<circle cx="226" cy="361.11" r="7.5"/>
<path d="M226,397.29c4.14,0,7.5-3.36,7.5-7.5c0-4.15-3.36-7.5-7.5-7.5c-4.141,0-7.5,3.35-7.5,7.5
	C218.5,393.93,221.859,397.29,226,397.29z"/>
<path d="M226,425.97c4.14,0,7.5-3.36,7.5-7.51c0-4.141-3.36-7.49-7.5-7.49c-4.141,0-7.5,3.35-7.5,7.49
	C218.5,422.609,221.859,425.97,226,425.97z"/>
<circle cx="226" cy="332.43" r="7.5"/>
<path d="M286,368.529c4.14,0,7.5-3.35,7.5-7.5c0-4.14-3.36-7.489-7.5-7.489c-4.141,0-7.5,3.35-7.5,7.489
	C278.5,365.18,281.859,368.529,286,368.529z"/>
<circle cx="286" cy="389.71" r="7.5"/>
<circle cx="286" cy="418.39" r="7.5"/>
<path d="M286,454.569c4.14,0,7.5-3.359,7.5-7.5c0-4.149-3.36-7.5-7.5-7.5c-4.141,0-7.5,3.351-7.5,7.5
	C278.5,451.21,281.859,454.569,286,454.569z"/>
<path d="M286,468.239c-4.141,0-7.5,3.36-7.5,7.511c0,4.13,3.359,7.489,7.5,7.489c4.14,0,7.5-3.359,7.5-7.489
	C293.5,471.6,290.14,468.239,286,468.239z"/>
<circle cx="286" cy="303.68" r="7.5"/>
<path d="M286,339.859c4.14,0,7.5-3.359,7.5-7.5c0-4.149-3.36-7.51-7.5-7.51c-4.141,0-7.5,3.36-7.5,7.51
	C278.5,336.5,281.859,339.859,286,339.859z"/>
<g>
</g>
<g>
</g>
<g>
</g>
<g>
</g>
<g>
</g>
<g>
</g>
<g>
</g>
<g>
</g>
<g>
</g>
<g>
</g>
<g>
</g>
<g>
</g>
<g>
</g>
<g>
</g>
<g>
</g>
</svg>
