<svg id="_x30_1_Chat_balloons" enable-background="new 0 0 48 48" height="512" viewBox="0 0 48 48" width="512" xmlns="http://www.w3.org/2000/svg"><path d="m23 24h22c1.1 0 2 .9 2 2v14c0 1.1-.9 2-2 2h-3v4l-4-4h-15c-1.1 0-2-.9-2-2v-14c0-1.1.9-2 2-2z" fill="#fc5696"/><path d="m23 24c-1.1 0-2 .9-2 2v14c0 1.1.9 2 2 2h1l18-18z" fill="#fc92c3"/><path d="m35 24h-22c-1.1 0-2-.9-2-2v-14c0-1.1.9-2 2-2h3v-4l4 4h15c1.1 0 2 .9 2 2v14c0 1.1-.9 2-2 2z" fill="#f99f10"/><path d="m20 6-4-4v4h-3c-1.1 0-2 .9-2 2v14c0 1.1.9 2 2 2h2l18-18z" fill="#f9c900"/><path d="m25 15h-22c-1.1 0-2 .9-2 2v14c0 1.1.9 2 2 2h3v4l4-4h15c1.1 0 2-.9 2-2v-14c0-1.1-.9-2-2-2z" fill="#74cc5e"/><path d="m3 15c-1.1 0-2 .9-2 2v14c0 1.1.9 2 2 2h2l18-18z" fill="#a8ea92"/><path d="m9 24c0 1.1-.9 2-2 2s-2-.9-2-2 .9-2 2-2 2 .9 2 2zm21-8h2c.6 0 1-.4 1-1s-.4-1-1-1h-2c-.6 0-1 .4-1 1s.4 1 1 1zm-7 8c0-1.1-.9-2-2-2s-2 .9-2 2 .9 2 2 2 2-.9 2-2zm19.7 7.3c-.4-.4-1-.4-1.4 0l-1.3 1.3-1.3-1.3c-.4-.4-1-.4-1.4 0l-1.3 1.3-1.3-1.3c-.4-.4-1-.4-1.4 0l-1.3 1.3-1.3-1.3c-.4-.4-1-.4-1.4 0l-1.3 1.3-1.1-1.1c-.2.7-.7 1.2-1.4 1.4l1.8 1.8c.4.4 1 .4 1.4 0l1.3-1.3 1.3 1.3c.4.4 1 .4 1.4 0l1.3-1.3 1.3 1.3c.4.4 1 .4 1.4 0l1.3-1.3 1.3 1.3c.4.4 1 .4 1.4 0l2-2c.4-.4.4-1 0-1.4zm-28.7-9.3c-1.1 0-2 .9-2 2s.9 2 2 2 2-.9 2-2-.9-2-2-2z" fill="#fff"/><path d="m45 23h-7.2c.1-.3.2-.6.2-1v-14c0-1.7-1.3-3-3-3h-14.6l-3.7-3.7c-.3-.3-.7-.4-1.1-.2-.4.1-.6.5-.6.9v3h-2c-1.7 0-3 1.3-3 3v6h-7c-1.7 0-3 1.3-3 3v14c0 1.7 1.3 3 3 3h2v3c0 .4.2.8.6.9.1.1.3.1.4.1.3 0 .5-.1.7-.3l3.7-3.7h9.6v6c0 1.7 1.3 3 3 3h14.6l3.7 3.7c.2.2.4.3.7.3.1 0 .3 0 .4-.1.4-.2.6-.5.6-.9v-3h2c1.7 0 3-1.3 3-3v-14c0-1.7-1.3-3-3-3zm-33-15c0-.6.4-1 1-1h3c.6 0 1-.4 1-1v-1.6l2.3 2.3c.2.2.4.3.7.3h15c.6 0 1 .4 1 1v14c0 .6-.4 1-1 1h-7v-6c0-1.7-1.3-3-3-3h-13zm-2 24c-.3 0-.5.1-.7.3l-2.3 2.3v-1.6c0-.6-.4-1-1-1h-3c-.6 0-1-.4-1-1v-14c0-.6.4-1 1-1h22c.6 0 1 .4 1 1v14c0 .6-.4 1-1 1zm36 8c0 .6-.4 1-1 1h-3c-.6 0-1 .4-1 1v1.6l-2.3-2.3c-.2-.2-.4-.3-.7-.3h-15c-.6 0-1-.4-1-1v-6h3c1.7 0 3-1.3 3-3v-6h17c.6 0 1 .4 1 1z" fill="#474747"/></svg>