<svg clip-rule="evenodd" fill-rule="evenodd" height="512" stroke-linejoin="round" stroke-miterlimit="2" viewBox="0 0 32 32" width="512" xmlns="http://www.w3.org/2000/svg"><g><path d="m2.003 25 13.996-4 14 4v-14l-14-4-14 4z" fill="#dac733"/><path d="m27.5 17.5v-7l2.5.5v7.5z" fill="#ba9b0a"/><path d="m27.5 24.499v-7l2.5.5v7.5z" fill="#ba9b0a"/><path d="m2 18.501 2.5-1.001v-4l11.5-3.5 14 4v-2.5l-14-4.5-14 4.5z" fill="#faf35c"/><path d="m2 25.5 2.5-1.001v-4l11.5-3.5 14 4v-2.5l-14-4.5-14 4.5z" fill="#faf35c"/><path d="m15.983 6.002c-.088.001-.175.013-.26.037l-13.996 4c-.426.123-.722.516-.724.959v14.004c.002.548.453.998 1.001.998.091 0 .182-.013.27-.037l13.723-3.92 13.73 3.92c.088.024.179.037.27.037.547 0 .999-.45 1-.998v-14.004c-.001-.443-.297-.836-.723-.959l-13.996-4c-.097-.027-.196-.04-.295-.037zm.014 2.037 13.007 3.713v4.922l-12.726-3.637c-.097-.027-.195-.04-.295-.037-.087.001-.176.014-.26.037l-12.726 3.637v-4.922zm0 6.998 13.007 3.721v4.916l-12.726-3.633c-.181-.052-.374-.052-.555 0l-12.726 3.633v-4.916z"/></g></svg>