<svg clip-rule="evenodd" fill-rule="evenodd" height="512" stroke-linejoin="round" stroke-miterlimit="2" viewBox="0 0 32 32" width="512" xmlns="http://www.w3.org/2000/svg"><g><path d="m2 15v6.998l14-4.998 14 4.998v-6.998l-14-5z" fill="#dac733"/><path d="m27.5 21v-7l2.5.5v7.5z" fill="#ba9b0a"/><path d="m2 22.001 2.5-1.001v-4l11.5-4.5 14 5v-2.5l-14-5-14 5z" fill="#faf35c"/><path d="m15.944 8.999c-.096.006-.19.026-.281.059l-14.003 4.997c-.396.144-.659.524-.657.945v6.999c0 .548.451 1 1 1 .112 0 .223-.019.329-.056l13.664-4.88 13.663 4.88c.108.038.222.058.337.058.548 0 1-.451 1-1v-7.001c.002-.421-.262-.801-.657-.945l-14.005-4.997c-.125-.046-.257-.066-.39-.059zm.052 2.059 13.006 4.643v4.88l-12.668-4.525c-.216-.077-.453-.077-.671 0l-12.667 4.525v-4.872z"/></g></svg>