<svg id="Layer_1" height="512" viewBox="0 0 32 32" width="512" xmlns="http://www.w3.org/2000/svg"><g><g><path d="m12.7 14.7c-5.1 0-9.2 3-9.2 6.7 0 1.6.8 3.2 2.4 4.5.1.1.2.4.3.7 0 .3-.1.5-.2.7-.4.4-.8.8-1.2 1.2 1.1 0 2.2-.3 3.2-.9.3-.1.5-.2.8-.1 1.2.4 2.5.6 3.8.6 5.1 0 9.2-3 9.2-6.7s-4-6.7-9.1-6.7zm-.2 10h-3.8c-.6 0-1-.4-1-1 0-.5.4-1 1-1h3.7c.5 0 1 .5 1 1 .1.6-.4 1-.9 1zm3.7-3.4h-7.5c-.6 0-1-.4-1-1 0-.5.4-1 1-1h7.5c.6 0 1 .5 1 1s-.5 1-1 1zm11.9-3.2c-.2-.2-.3-.5-.2-.7 0-.3.1-.5.4-.7 1.5-1.2 2.4-2.8 2.4-4.5 0-3.7-4.1-6.7-9.2-6.7s-9.2 3-9.2 6.7v.5h.6c5 0 9.3 2.5 10.7 6.1.6-.1 1.2-.2 1.7-.4.3-.1.6-.1.8.1 1 .6 2.2.9 3.3.8-.6-.3-1-.7-1.3-1.2z" fill="#9fdaff"/></g><g style="fill:none;stroke:#0078ff;stroke-linecap:round;stroke-linejoin:round;stroke-miterlimit:10;stroke-width:2"><path d="m31 18.6c-.9.5-1.9.7-3 .7-1.3 0-2.5-.4-3.5-1-.8.3-1.8.5-2.7.6-.9-3.5-5.1-6.2-10-6.2-.5 0-.9 0-1.4.1-.1-.5-.2-1-.2-1.5 0-4.2 4.6-7.7 10.2-7.7 5.7 0 10.2 3.5 10.2 7.7 0 2-1 3.9-2.7 5.2.8 1 1.9 1.7 3.1 2.1z"/><path d="m21.9 20.4c0 4.3-4.6 7.7-10.2 7.7-1.5 0-2.9-.2-4.1-.6-1 .6-2.2 1-3.5 1-1.1 0-2.1-.3-3-.7 1.3-.4 2.3-1.1 3.2-2.1-1.7-1.4-2.7-3.2-2.7-5.2 0-4.3 4.6-7.7 10.2-7.7s10.1 3.4 10.1 7.6z"/><g><path d="m7.7 19.3h7.5"/><path d="m7.7 22.7h3.8"/></g></g></g></svg>