<svg id="Filled_Line" viewBox="0 0 24 24" xmlns="http://www.w3.org/2000/svg"><path d="m21.41 6.12c.78-.78.78-2.05 0-2.83l-.71-.71c-.78-.78-2.05-.78-2.83 0l-10.31 10.33c-.17.17-.27.38-.29.62l-.27 2.93c-.03.31.23.57.54.54l2.93-.27c.23-.02.45-.12.62-.29z" fill="#fcbf49"/><path d="m21.41 6.12-1.41 1.41-3.53-3.53 1.41-1.41c.78-.79 2.05-.79 2.83 0l.7.7c.79.78.79 2.05 0 2.83z" fill="#e63946"/><path d="m21.94 2.76-.71-.71c-1.07-1.07-2.82-1.07-3.89 0l-10.31 10.33c-.29.29-.47.67-.51 1.08l-.27 2.93c-.03.37.1.73.36 1 .24.24.55.37.88.37h.11l2.93-.27c.41-.04.79-.22 1.08-.51l10.32-10.32c.52-.52.81-1.21.81-1.94s-.29-1.43-.81-1.94zm-11.38 13.15s-.1.07-.15.07l-2.63.24.24-2.63c0-.06.03-.11.07-.16l8.38-8.38 2.47 2.47-8.38 8.38zm10.32-10.32-.88.88-2.47-2.47.88-.88c.24-.24.56-.37.88-.37s.64.12.88.37l.71.71c.24.24.37.55.37.88s-.13.65-.37.88zm-.13 7.6v5.81c0 2.07-1.68 3.75-3.75 3.75h-12c-2.07 0-3.75-1.68-3.75-3.75v-12c0-2.07 1.68-3.75 3.75-3.75h5.81c.41 0 .75.34.75.75s-.34.75-.75.75h-5.81c-1.24 0-2.25 1.01-2.25 2.25v12c0 1.24 1.01 2.25 2.25 2.25h12c1.24 0 2.25-1.01 2.25-2.25v-5.81c0-.41.34-.75.75-.75s.75.34.75.75z" fill="#050819"/></svg>