<svg id="Layer_28" viewBox="0 0 50 50" xmlns="http://www.w3.org/2000/svg" data-name="Layer 28"><path d="m13.40493801 46.91489287c-2.71781535 0-5.03286497-1.94300331-5.50474939-4.62071275l-2.56336493-14.53369891c-2.05905445-1.34568126-3.18287323-3.8203012-2.74170823-6.31454744l2.32443611-13.18204443c.28927454-1.64690224 1.2040306-3.08303512 2.57531137-4.04387031 1.05981999-.7432393 2.29798328-1.1349119 3.58051906-1.1349119.36863304 0 .74067935.03327937 1.1050458.09813148.44884486.07850518.86526366.26196839 1.22024363.53332326.28074137-.09215826.58196234-.14165066.89427645-.14165066.66132085 0 1.27058934.22698238 1.75442021.60841518.26538166-.08277177.54782966-.12629095.83881083-.12629095.16554354 0 .33364703.01450639.50260384.04522581l17.50921606 3.08730171c1.64604892.29012786 3.08132849 1.20573723 4.04216368 2.57701801.95998187 1.37128077 1.32861491 3.0326894 1.03848706 4.67873832l-.02645283.15189047c.82345112.13311749 1.60850296.45225813 2.30651645.94035558 1.22536353.85843712 2.04113479 2.14097291 2.29968991 3.61123848l2.85263947 16.17804119c.26026175 1.46855894-.06826538 2.95247758-.92414255 4.1769878-.85758381 1.22536353-2.14011959 2.04198811-3.61123848 2.30054323l-28.49994187 5.02518511c-.32170059.05631894-.64937441.08533172-.97278163.08533172z" fill="#f7e9e3"/><g><g><g><rect fill="#fce774" height="20.235" rx="3.918" transform="matrix(.985 .174 -.174 .985 3.44 -3.424)" width="29.923" x="6.326" y="7.828"/><path d="m19.932.764h3.495v29.923h-3.495z" fill="#379fdc" transform="matrix(.174 -.985 .985 .174 2.427 34.345)"/></g><g><rect fill="#b5da71" height="21.932" rx="2.752" transform="matrix(.985 -.174 .174 .985 -4.936 5.022)" width="34.444" x="9.009" y="19.755"/><path d="m39.10645098 24.70081847 1.28214763 7.27142053c-1.48831657 1.06988236-2.56417963 2.61709102-3.06045343 4.38156318l-19.5941004 3.45496856c-1.06982984-1.48832583-2.61860058-2.57274074-4.38302947-3.06907631l-1.28214763-7.27142053c1.48827331-1.06982058 2.57425955-2.60998695 3.07053334-4.37445911l19.5941004-3.45496856c1.06982984 1.48832583 2.6084774 2.56569845 4.37294955 3.06197224z" fill="#538836"/><g fill="#b5da71"><circle cx="26.231" cy="30.721" r="4.124"/><circle cx="17.491" cy="32.262" r="1.748"/><circle cx="34.958" cy="29.182" r="1.748"/></g></g></g><path d="m45.26151865 35.70668503-2.85263947-16.17889451c-.15786369-.8968364-.65534763-1.67762166-1.40029356-2.1998518-.74665257-.52223014-1.65458209-.72446632-2.54544527-.56318937l-1.14568503.20202285.51167034-2.90106522c.39081929-2.21435819-1.09309936-4.33399817-3.30916418-4.72481745l-17.51689591-3.08900834c-.35497996-.06399879-.69630685.17493003-.75859901.53161663-.06314547.35583328.17493003.69630685.53161663.75859901l17.51689591 3.08900834c1.50354494.26538166 2.51045926 1.70407449 2.24593093 3.20761943l-.35391332 2.00652211-28.17818794-4.96849285.35385999-2.00689544c.1288509-.72787959.53332326-1.3627476 1.13917849-1.78684626.60585523-.42495198 1.33714809-.58537561 2.06844094-.45908466.36095318.06570543.69630685-.17493003.75859901-.53161663.06314547-.35583328-.17493003-.69630685-.53161663-.75859901-1.07176643-.19199637-2.1554793.05034572-3.0471958.67497392-.89256981.62548152-1.48903855 1.5607172-1.67762166 2.63419026l-2.32443611 13.18375107c-.34260686 1.93959004.74985251 3.80590147 2.5563784 4.49874172l2.74869477 15.5900523c.29098117 1.65116882 1.73138064 2.81509351 3.35353668 2.81509351.19540964 0 .39423256-.01706634.59305547-.05205235l28.50079518-5.02518511c.8968364-.15786369 1.67762166-.65534763 2.1998518-1.40114688.52137682-.74579925.72190637-1.64946219.56318937-2.54544527zm-9.30403766-18.57132934-.01295976.07349195-6.09583157 1.07480637c-.01098646-.00250662-.0193063-.00997315-.03050609-.01194644l-22.4181367-3.95325869.3792995-2.15158604 28.17813461 4.96849285zm-29.92124836 4.9182538 1.13635188-6.44499831 18.92262937 3.33684366-16.13286871 2.84447962c-.8968364.15786369-1.67762166.65534763-2.1998518 1.40029356-.33812695.48367087-.52569674 1.0360871-.58372231 1.60738298-.86014376-.60094865-1.33442814-1.65532874-1.14253843-2.74400152zm37.58777027 15.44674834c-.32084728.45908466-.80126487.76542555-1.3525078.86270371l-28.50079518 5.02518511c-1.14259176.1979696-2.22886458-.56318937-2.42939413-1.6998079l-2.85263947-16.17974783c-.09727816-.55124292.02645283-1.10760575.34730011-1.5658371.32170059-.45908466.80211819-.76542555 1.35336111-.86270371l28.5016485-5.02518511c.12287768-.02133293.24660868-.03242605.36863304-.03242605.42580529 0 .84137078.12970422 1.19720406.37972616.45823135.32084728.76457223.80126487.86185039 1.3525078l2.85263947 16.17974783c.09727816.55124292-.02559952 1.10760575-.34730011 1.5658371zm-2.59067108-5.64042683-1.28168247-7.27196936c-.04351918-.24831531-.22527575-.44969818-.46761784-.51711024-1.61276955-.45311144-3.03951594-1.45234591-4.01827079-2.81338688-.14677056-.20479613-.39849914-.3071942-.64596114-.2628217l-19.59387003 3.45508143c-.24831531.04351918-.44884486.22527575-.51711024.46761784-.45311144 1.60935628-1.45575918 3.03695599-2.82277337 4.01912411-.20479613.14677056-.3071942.39849914-.2628217.64596114l1.28253578 7.27196936c.04351918.24831531.22527575.44969818.46761784.51711024 1.61703613.45481808 3.04804911 1.45575918 4.02765728 2.82021342.12458431.1732234.32340723.27306151.53246995.27306151.03754596 0 .07594523-.00341327.11349119-.01023981l19.59472335-3.45508143c.24831531-.04351918.44969818-.22527575.51711024-.46761784.4556714-1.6204494 1.45405254-3.04975575 2.81168024-4.02595065.20479613-.14762388.3071942-.39849914.2628217-.64596114zm-4.21368044 3.91843268-18.80540492 3.31599072c-1.05299345-1.32605496-2.48144648-2.32614274-4.08738949-2.86202596l-1.14344508-6.48265093c1.3277616-1.05384677 2.3287027-2.47888653 2.86458591-4.07885632l18.8045516-3.31599072c1.05128682 1.32264169 2.47632658 2.32016952 4.078003 2.85519942l1.14259176 6.48265093c-1.32008174 1.0504335-2.31675626 2.47803321-2.85349279 4.08568285zm-11.41909105-9.76365564c-1.25778958.22186248-2.3534489.91987596-3.08559507 1.96518956-.73214618 1.04616691-1.01288754 2.3141963-.79102506 3.57113257.22100916 1.25778958.91902265 2.3534489 1.96518956 3.08559507.81235799.56916259 1.75954011.86611698 2.73146842.86611698.27903473 0 .5597761-.0247462.84051746-.0742386 2.59408435-.45823135 4.33314485-2.94138446 3.87576682-5.53632213-.45823135-2.5966443-2.95077095-4.3408247-5.53632213-3.87747345zm1.43271961 8.12357994c-1.88497774.3319404-3.68718371-.93096909-4.01912411-2.8142402-.3319404-1.88412442.93011577-3.68633039 2.81338688-4.01912411.2030895-.03498601.40447236-.05290567.60329528-.05290567 1.65116882 0 3.11887444 1.18696425 3.41582884 2.86714586.33108708 1.88327111-.93096909 3.68633039-2.81338688 4.01912411zm-7.96400962-3.84419408c-.52564341-.36777972-1.16221806-.51199033-1.79537943-.39764583-.63230806.11093124-1.18355099.46164462-1.55133071.98728802-.36863304.52564341-.50943038 1.16392469-.39764583 1.79537943.11093124.63230806.46164462 1.18355099.98728802 1.55133071.40873895.28671459.88488996.4360451 1.37384073.4360451.13994402 0 .28159468-.01279976.42239202-.03754596.63145474-.11178456 1.18269767-.46249793 1.55047739-.98814134.36863304-.52564341.50943038-1.16392469.39764583-1.79623275-.11093124-.63145474-.46164462-1.18269767-.98728802-1.55047739zm-.30292761 1.77916641c.05034572.28671459-.01365308.57684244-.18090325.81577126s-.41812544.39849914-.70484002.44969818c-.28586127.04863908-.57769576-.01365308-.81662458-.18175657-.23892882-.16725018-.39764583-.41727212-.44884486-.70569334-.05034572-.28671459.01365308-.57684244.18090325-.81577126s.41727212-.39764583.70569334-.44884486c.06399879-.01109312.12799758-.01706634.19199637-.01706634.22186248 0 .43775173.06826538.62377489.1979696.23892882.16725018.39764583.41727212.44884486.70484002v.00085332zm18.75761915-3.30831087c-.11178456-.63145474-.46249793-1.18269767-.98814134-1.55047739-.52564341-.36863304-1.16563132-.51455028-1.79537943-.39764583-.63230806.11093124-1.18355099.46164462-1.55133071.98728802-.36863304.52564341-.50943038 1.16392469-.39764583 1.79537943.11093124.63230806.46164462 1.18355099.98728802 1.55133071.40873895.28586127.88403664.43519178 1.37298741.43519178.13994402 0 .28159468-.01194644.42239202-.03754596.63230806-.11093124 1.18355099-.46164462 1.55133071-.98728802.36863304-.52564341.5102837-1.16307137.39849914-1.79537943v-.00085332zm-1.47197221 1.04446028c-.16725018.23892882-.41727212.39764583-.70569334.44884486-.28586127.0494924-.57598912-.01365308-.81577126-.18090325-.23892882-.16725018-.39764583-.41727212-.44884486-.70569334-.05034572-.28671459.01365308-.57684244.18090325-.81577126s.41727212-.39764583.70569334-.44884486c.06399879-.01109312.12799758-.01706634.19199637-.01706634.22186248 0 .43775173.06826538.62377489.1979696.23892882.16725018.39849914.41812544.44969818.70569334.05034572.28671459-.01450639.57684244-.18175657.81577126zm-21.12898771 10.53505441c.08703836.47188442-.23636887.9267025-.70825329 1.00520769-.05205235.00853317-.10495802.01706634-.15701037.01706634-.41044558 0-.77822531-.29695439-.85673049-.72531964-.07850518-.47188442.23636887-.92584918.70825329-1.01288754.4804176-.0793585.93438236.23551555 1.01374086.71593315zm-3.30319096-13.68379496c-.04351918.00938649-.09642485.01791966-.1484772.01791966-.41983207 0-.78675848-.30634088-.85673049-.72531964-.08703836-.47188442.22698238-.92584918.70825329-1.01374086.47188442-.08703836.92584918.23636887 1.01374086.70825329.07850518.4804176-.23636887.93438236-.71678647 1.01288754zm30.48646436 8.88644554c.07850518.48127091-.23551555.9267025-.70739998 1.01374086-.05290567.00938649-.10495802.01791966-.15786369.01791966-.41044558 0-.78590516-.30634088-.85587717-.72531964-.08703836-.4804176.23551555-.9267025.70739998-1.01374086.48127091-.08703836.9267025.23636887 1.01374086.70739998zm-4.3160785-14.39119493c-.0793585-.47188442.23551555-.92584918.71593315-1.01374086.47188442-.07850518.9267025.23636887 1.00520769.71678647.08703836.47188442-.22698238.92584918-.70825329 1.00520769-.05205235.00853317-.09557153.01706634-.1484772.01706634-.41897876 0-.78590516-.29695439-.86441034-.72531964zm-23.95090777-14.741055c0-.36692641.28842122-.65534763.65534763-.65534763.35839323 0 .65534763.28842122.65534763.65534763 0 .35839323-.29695439.65534763-.65534763.65534763-.36692641 0-.65534763-.29695439-.65534763-.65534763z" fill="#5c3328"/></g></svg>