<svg id="Layer_1" enable-background="new 0 0 512 512" viewBox="0 0 512 512" xmlns="http://www.w3.org/2000/svg"><g><g clip-rule="evenodd" fill-rule="evenodd"><path d="m63.57 152.46h384.89c10.29 0 18.74 8.42 18.74 18.74v285.73c0 10.32-8.45 18.74-18.74 18.74h-384.89c-10.32 0-18.74-8.42-18.74-18.74v-285.73c0-10.32 8.42-18.74 18.74-18.74z" fill="#2f5274"/><path d="m6.45 448.52h499.1c3.54 0 6.46 2.89 6.46 6.43v23.81c0 16.64-13.63 30.27-30.27 30.27h-451.48c-16.64 0-30.27-13.63-30.27-30.27v-23.81c0-3.54 2.92-6.43 6.46-6.43z" fill="#53718e"/><path d="m90.56 190.68h330.89c6.89 0 12.5 5.61 12.5 12.5v190.54c0 6.89-5.61 12.5-12.5 12.5h-330.89c-6.89 0-12.5-5.61-12.5-12.5v-190.54c0-6.89 5.61-12.5 12.5-12.5z" fill="#aae6fa"/><path d="m90.56 190.68h14.51v215.55h-14.51c-6.89 0-12.5-5.61-12.5-12.5v-190.55c0-6.89 5.61-12.5 12.5-12.5z" fill="#99cfe1"/><path d="m149.8 448.52h212.4v11.48c0 6.32-5.16 11.48-11.48 11.48h-189.44c-6.32 0-11.48-5.16-11.48-11.48z" fill="#223c55"/><path d="m229.45 132.76c-9.18 2.41-17.86 6.07-25.88 10.74-1.93 1.11-4.11 1.16-6.09.17l-15.08-7.67c-2.49-1.28-5.41-.82-7.4 1.16l-15.28 15.31c-2.01 1.98-2.47 4.9-1.19 7.4l7.68 15.05c1.02 2.01.96 4.2-.17 6.12-4.68 8.02-8.33 16.7-10.74 25.88-.57 2.15-2.07 3.74-4.2 4.45l-16.07 5.22c-2.66.88-4.39 3.26-4.39 6.07v21.63c0 2.81 1.73 5.19 4.39 6.07l16.07 5.22c2.13.68 3.63 2.27 4.2 4.45 2.44 9.18 6.07 17.86 10.74 25.88 1.13 1.93 1.19 4.11.17 6.09l-7.68 15.08c-1.28 2.49-.82 5.41 1.19 7.4l15.28 15.26c1.98 1.98 4.9 2.47 7.4 1.19l15.08-7.68c1.98-1.02 4.17-.96 6.09.17 8.02 4.68 16.7 8.31 25.88 10.74 2.15.57 3.77 2.07 4.45 4.2l5.22 16.07c.88 2.66 3.26 4.39 6.07 4.39h21.63c2.81 0 5.19-1.73 6.07-4.39l5.22-16.07c.71-2.13 2.3-3.63 4.45-4.2 9.18-2.44 17.86-6.07 25.88-10.74 1.93-1.13 4.11-1.19 6.12-.17l15.05 7.68c2.49 1.28 5.41.79 7.4-1.19l15.31-15.28c1.98-1.98 2.44-4.9 1.16-7.4l-7.68-15.08c-1.02-1.98-.94-4.17.17-6.09 4.68-8.02 8.33-16.7 10.74-25.88.57-2.18 2.07-3.77 4.2-4.45l16.07-5.22c2.66-.88 4.39-3.26 4.39-6.07v-21.63c0-2.81-1.73-5.19-4.39-6.07l-16.07-5.22c-2.13-.71-3.63-2.3-4.2-4.45-2.41-9.18-6.07-17.86-10.74-25.88-1.11-1.93-1.19-4.11-.17-6.12l7.68-15.05c1.28-2.49.82-5.41-1.16-7.4l-15.32-15.29c-1.98-1.98-4.9-2.44-7.4-1.16l-15.05 7.68c-2.01.99-4.2.94-6.12-.17-8.02-4.68-16.7-8.33-25.88-10.74-2.15-.57-3.74-2.07-4.45-4.2l-5.22-16.07c-.88-2.66-3.26-4.39-6.07-4.39h-21.63c-2.81 0-5.19 1.73-6.07 4.39l-5.22 16.07c-.67 2.12-2.28 3.63-4.44 4.19z" fill="#ff4646"/><path d="m316.99 233.45c0 33.7-27.3 61-60.97 61-33.7 0-61-27.3-61-61 0-33.68 27.3-60.97 61-60.97 33.67 0 60.97 27.29 60.97 60.97z" fill="#ebf5fc"/><path d="m187.19 2.97h137.65c8.16 0 14.83 6.69 14.83 14.85v80.96c0 8.16-6.66 14.85-14.83 14.85h-39.71c-2.98 0-5.53 1.47-7 4.05l-15.11 26.14c-1.47 2.58-4.03 4.05-7 4.05-2.98 0-5.53-1.47-7.03-4.05l-15.08-26.14c-1.5-2.58-4.05-4.05-7.03-4.05h-39.69c-8.16 0-14.85-6.69-14.85-14.85v-80.96c0-8.16 6.69-14.85 14.85-14.85z" fill="#ffd400"/></g><path d="m291.22 80.72c-3.23 3.23-8.48 3.23-11.68 0-3.23-3.23-3.23-8.45 0-11.68l10.74-10.74-10.74-10.74c-3.23-3.23-3.23-8.45 0-11.68 3.2-3.23 8.45-3.23 11.68 0l16.58 16.58c3.23 3.23 3.23 8.45 0 11.68zm-35.26-54.09c1.16-4.39 5.7-7 10.09-5.84 4.39 1.19 7 5.7 5.84 10.12l-15.82 59.05c-1.19 4.39-5.7 7-10.12 5.84-4.39-1.19-7-5.7-5.84-10.09zm-23.47 42.41c3.2 3.23 3.2 8.45 0 11.68-3.23 3.23-8.48 3.23-11.68 0l-16.61-16.58c-3.2-3.23-3.2-8.45 0-11.68l16.61-16.58c3.2-3.23 8.45-3.23 11.68 0 3.2 3.23 3.2 8.45 0 11.68l-10.77 10.74z" fill="#fff"/><path clip-rule="evenodd" d="m187.19 2.97h13.63c-8.16 0-14.83 6.69-14.83 14.85v80.96c0 8.16 6.66 14.85 14.83 14.85h-13.63c-8.16 0-14.85-6.69-14.85-14.85v-80.96c0-8.16 6.69-14.85 14.85-14.85zm75.63 141.16c-1.5 2.38-3.97 3.74-6.8 3.74-2.98 0-5.53-1.47-7.03-4.05l-15.08-26.14c-1.5-2.58-4.05-4.05-7.03-4.05h13.66c2.98 0 5.53 1.47 7 4.05l15.11 26.14c.05.11.11.2.17.31z" fill="#e6bf00" fill-rule="evenodd"/><path clip-rule="evenodd" d="m229.45 132.76c-8.02 2.1-15.68 5.16-22.82 9.01l3.74 1.9c1.98.99 4.17.94 6.09-.2 8.02-4.65 16.7-8.31 25.88-10.71.08-.03.14-.03.23-.06l-6.41-11.08-2.27 6.94c-.67 2.13-2.28 3.64-4.44 4.2zm-42.63 5.47-4.42-2.23c-2.49-1.28-5.41-.82-7.4 1.16l-15.28 15.31c-2.01 1.98-2.47 4.9-1.19 7.4l7.68 15.05c1.02 2.01.96 4.2-.17 6.12-4.68 8.02-8.31 16.7-10.74 25.88-.57 2.15-2.07 3.74-4.2 4.45l-16.07 5.22c-2.66.88-4.39 3.26-4.39 6.07v21.63c0 2.81 1.73 5.19 4.39 6.07l16.07 5.22c2.13.68 3.63 2.27 4.2 4.45 2.44 9.18 6.07 17.86 10.74 25.88 1.13 1.93 1.19 4.11.17 6.09l-7.68 15.08c-1.28 2.49-.82 5.41 1.19 7.4l15.28 15.26c1.98 1.98 4.9 2.47 7.4 1.19l4.42-2.27-14.2-14.2c-1.98-1.98-2.47-4.9-1.19-7.4l7.68-15.08c1.02-1.98.96-4.17-.17-6.09-4.68-8.02-8.31-16.7-10.71-25.88-.57-2.18-2.07-3.77-4.2-4.45l-16.1-5.22c-2.66-.88-4.39-3.26-4.39-6.07v-21.63c0-2.81 1.73-5.19 4.42-6.07l16.04-5.22c2.13-.71 3.63-2.3 4.19-4.45 2.44-9.18 6.07-17.86 10.74-25.88 1.13-1.93 1.19-4.11.17-6.12l-7.68-15.05c-1.28-2.49-.79-5.41 1.19-7.4zm19.84 186.92c7.12 3.85 14.77 6.89 22.79 9.01 2.15.57 3.77 2.07 4.45 4.2l5.22 16.07c.88 2.66 3.26 4.39 6.07 4.39h12.9c-2.81 0-5.19-1.73-6.07-4.39l-5.22-16.07c-.68-2.13-2.27-3.63-4.45-4.2-9.18-2.44-17.86-6.07-25.85-10.74-1.96-1.13-4.14-1.19-6.12-.17z" fill="#e63f3f" fill-rule="evenodd"/><path clip-rule="evenodd" d="m260.52 294.28c-1.5.11-3 .17-4.51.17-33.7 0-61-27.3-61-61 0-33.68 27.3-60.97 61-60.97 1.5 0 3 .06 4.51.14-31.58 2.32-56.49 28.66-56.49 60.83s24.91 58.54 56.49 60.83z" fill="#d4dde3" fill-rule="evenodd"/><path clip-rule="evenodd" d="m6.45 448.52h22.2c-3.54 0-6.46 2.89-6.46 6.43v23.81c0 16.64 13.63 30.27 30.27 30.27h-22.2c-16.64 0-30.27-13.63-30.27-30.27v-23.81c0-3.54 2.92-6.43 6.46-6.43z" fill="#4b6680" fill-rule="evenodd"/></g></svg>