<?xml version="1.0" encoding="UTF-8" standalone="no"?>
<!-- Created with Inkscape (http://www.inkscape.org/) -->

<svg
   version="1.1"
   id="svg1302"
   xml:space="preserve"
   width="682.66669"
   height="682.66669"
   viewBox="0 0 682.66669 682.66669"
   xmlns="http://www.w3.org/2000/svg"
   xmlns:svg="http://www.w3.org/2000/svg"><defs
     id="defs1306"><clipPath
       clipPathUnits="userSpaceOnUse"
       id="clipPath1316"><path
         d="M 0,512 H 512 V 0 H 0 Z"
         id="path1314" /></clipPath></defs><g
     id="g1308"
     transform="matrix(1.3333333,0,0,-1.3333333,0,682.66667)"><g
       id="g1310"><g
         id="g1312"
         clip-path="url(#clipPath1316)"><g
           id="g1318"
           transform="translate(452.2031,235.3442)"><path
             d="m 0,0 h -364.502 c -15.411,0 -27.904,12.495 -27.904,27.907 0,15.413 12.493,27.907 27.904,27.907 H 0 C -8.964,38.458 -8.964,17.357 0,0"
             style="fill:#f7f7f7;fill-opacity:1;fill-rule:nonzero;stroke:none"
             id="path1320" /></g><g
           id="g1322"
           transform="translate(452.2031,291.1587)"><path
             d="M 0,0 H -364.502 V 0 H -30 c -8.964,-17.357 -8.964,-38.458 0,-55.814 H 0 C -8.964,-38.458 -8.964,-17.357 0,0"
             style="fill:#efefef;fill-opacity:1;fill-rule:nonzero;stroke:none"
             id="path1324" /></g><g
           id="g1326"
           transform="translate(91.7656,212.1011)"><path
             d="m 0,0 c -13.736,0 -26.637,5.389 -36.327,15.173 -9.687,9.783 -14.949,22.739 -14.817,36.48 0.272,27.928 23.467,50.648 51.707,50.648 h 363.939 c 8.333,0 15.113,-6.78 15.113,-15.113 0,-8.334 -6.78,-15.114 -15.113,-15.114 H 0 c -11.536,0 -20.921,-9.386 -20.921,-20.924 0,-11.537 9.385,-20.923 20.921,-20.923 h 364.502 c 8.333,0 15.113,-6.78 15.113,-15.114 C 379.615,6.78 372.835,0 364.502,0 Z"
             style="fill:#ff815c;fill-opacity:1;fill-rule:nonzero;stroke:none"
             id="path1328" /></g><g
           id="g1330"
           transform="translate(486.2676,30.7432)"><path
             d="m 0,0 h -424.502 c -15.411,0 -27.904,12.495 -27.904,27.907 0,15.413 12.493,27.907 27.904,27.907 H 0 C -8.964,38.458 -8.964,17.357 0,0"
             style="fill:#f7f7f7;fill-opacity:1;fill-rule:nonzero;stroke:none"
             id="path1332" /></g><g
           id="g1334"
           transform="translate(486.2676,86.5576)"><path
             d="m 0,0 h -30 c -8.964,-17.357 -8.964,-38.458 0,-55.814 H 0 C -8.964,-38.458 -8.964,-17.357 0,0"
             style="fill:#efefef;fill-opacity:1;fill-rule:nonzero;stroke:none"
             id="path1336" /></g><g
           id="g1338"
           transform="translate(61.7656,7.5)"><path
             d="m 0,0 c -13.736,0 -26.637,5.389 -36.327,15.173 -9.687,9.783 -14.949,22.739 -14.817,36.48 0.272,27.928 23.467,50.648 51.707,50.648 h 423.939 c 8.333,0 15.113,-6.78 15.113,-15.113 0,-8.334 -6.78,-15.114 -15.113,-15.114 H 0 c -11.536,0 -20.921,-9.386 -20.921,-20.924 0,-11.537 9.385,-20.923 20.921,-20.923 h 424.502 c 8.333,0 15.113,-6.78 15.113,-15.114 C 439.615,6.78 432.835,0 424.502,0 Z"
             style="fill:#ffe66b;fill-opacity:1;fill-rule:nonzero;stroke:none"
             id="path1340" /></g><g
           id="g1342"
           transform="translate(25.7319,188.8584)"><path
             d="m 0,0 h 424.502 c 15.412,0 27.905,-12.495 27.905,-27.907 0,-15.413 -12.493,-27.907 -27.905,-27.907 H 0 C 8.964,-38.458 8.964,-17.357 0,0"
             style="fill:#f7f7f7;fill-opacity:1;fill-rule:nonzero;stroke:none"
             id="path1344" /></g><g
           id="g1346"
           transform="translate(25.7319,109.8008)"><path
             d="m 0,0 c -8.333,0 -15.112,6.78 -15.112,15.113 0,8.334 6.779,15.114 15.112,15.114 h 424.502 c 11.536,0 20.922,9.386 20.922,20.923 0,11.538 -9.386,20.924 -20.922,20.924 H 0 c -8.333,0 -15.112,6.78 -15.112,15.114 0,8.333 6.779,15.112 15.112,15.112 h 424.503 c 13.736,0 26.637,-5.388 36.326,-15.173 9.688,-9.783 14.948,-22.738 14.817,-36.48 C 475.374,22.72 452.179,0 423.938,0 Z"
             style="fill:#c9f0ff;fill-opacity:1;fill-rule:nonzero;stroke:none"
             id="path1348" /></g><g
           id="g1350"
           transform="translate(486.561,196.9282)"><path
             d="m 0,0 c -9.689,9.784 -22.59,15.173 -36.326,15.173 h -30 C -52.59,15.173 -39.689,9.784 -30,0 c 9.688,-9.784 14.948,-22.739 14.816,-36.48 -0.271,-27.927 -23.466,-50.647 -51.707,-50.647 h 30 c 28.241,0 51.436,22.72 51.707,50.647 C 14.948,-22.739 9.688,-9.784 0,0"
             style="fill:#b5eaff;fill-opacity:1;fill-rule:nonzero;stroke:none"
             id="path1352" /></g><g
           id="g1354"
           transform="translate(396,314.4019)"><path
             d="m 0,0 h -280 l 30,101.009 h 220 z"
             style="fill:#288a9a;fill-opacity:1;fill-rule:nonzero;stroke:none"
             id="path1356" /></g><g
           id="g1358"
           transform="translate(230.1436,501.1606)"><path
             d="m 0,0 -199.009,-52.272 c -10.669,-2.802 -10.669,-17.947 0,-20.749 L 0,-125.293 c 16.95,-4.452 34.763,-4.452 51.713,0 l 199.009,52.272 c 10.669,2.802 10.669,17.947 0,20.749 L 51.713,0 C 34.763,4.453 16.95,4.453 0,0"
             style="fill:#3498ac;fill-opacity:1;fill-rule:nonzero;stroke:none"
             id="path1360" /></g><g
           id="g1362"
           transform="translate(480.8657,448.8887)"><path
             d="m 0,0 -199.009,52.272 c -16.95,4.453 -34.763,4.453 -51.713,0 l -30.239,-7.942 c 13.939,2.232 28.228,1.547 41.952,-2.058 L -40,-10 c 10.668,-2.802 10.668,-17.946 0,-20.749 l 40,10 C 10.668,-17.946 10.668,-2.802 0,0"
             style="fill:#288a9a;fill-opacity:1;fill-rule:nonzero;stroke:none"
             id="path1364" /></g><g
           id="g1366"
           transform="translate(345.4678,271)"><path
             d="m 0,0 h -43.164 c 0,0 0,65.138 21.582,65.138 C 0,65.138 0,0 0,0"
             style="fill:#ffe66b;fill-opacity:1;fill-rule:nonzero;stroke:none"
             id="path1368" /></g><g
           id="g1370"
           transform="translate(128.6733,79.5742)"><path
             d="M 0,0 -35.673,-18.716 V 102.301 H 0 Z"
             style="fill:#3498ac;fill-opacity:1;fill-rule:nonzero;stroke:none"
             id="path1372" /></g><g
           id="g1374"
           transform="translate(270.0967,434.9185)"><path
             d="m 0,0 c -9.327,-5.711 -20.349,-5.719 -29.656,0 v 21.319 c 0,8.189 6.639,14.828 14.828,14.828 C -6.639,36.147 0,29.508 0,21.319 Z"
             style="fill:#ffe66b;fill-opacity:1;fill-rule:nonzero;stroke:none"
             id="path1376" /></g><g
           id="g1378"
           transform="translate(448.8359,283.2998)"><path
             d="M 0,0 C -4.576,-13.218 -4.473,-27.817 0.311,-40.973"
             style="fill:none;stroke:#000000;stroke-width:15;stroke-linecap:round;stroke-linejoin:round;stroke-miterlimit:10;stroke-dasharray:none;stroke-opacity:1"
             id="path1380" /></g><g
           id="g1382"
           transform="translate(340.4995,314.4019)"><path
             d="m 0,0 h 115.769 c 8.333,0 15.112,-6.78 15.112,-15.113 0,-8.334 -6.779,-15.114 -15.112,-15.114 H 4.968"
             style="fill:none;stroke:#000000;stroke-width:15;stroke-linecap:round;stroke-linejoin:round;stroke-miterlimit:10;stroke-dasharray:none;stroke-opacity:1"
             id="path1384" /></g><g
           id="g1386"
           transform="translate(302.3037,284.1753)"><path
             d="m 0,0 h -210.538 c -11.536,0 -20.921,-9.386 -20.921,-20.924 0,-11.537 9.385,-20.924 20.921,-20.924 h 364.502 c 8.333,0 15.113,-6.779 15.113,-15.113 0,-8.333 -6.78,-15.113 -15.113,-15.113 h -364.502 c -13.736,0 -26.637,5.388 -36.327,15.173 -9.687,9.783 -14.949,22.738 -14.817,36.48 0.272,27.927 23.467,50.648 51.707,50.648 H 4.968"
             style="fill:none;stroke:#000000;stroke-width:15;stroke-linecap:round;stroke-linejoin:round;stroke-miterlimit:10;stroke-dasharray:none;stroke-opacity:1"
             id="path1388" /></g><g
           id="g1390"
           transform="translate(483.2119,79.5757)"><path
             d="M 0,0 C -4.784,-13.157 -4.888,-27.757 -0.311,-40.976"
             style="fill:none;stroke:#000000;stroke-width:15;stroke-linecap:round;stroke-linejoin:round;stroke-miterlimit:10;stroke-dasharray:none;stroke-opacity:1"
             id="path1392" /></g><g
           id="g1394"
           transform="translate(93,79.5742)"><path
             d="m 0,0 h -31.234 c -11.537,0 -20.922,-9.386 -20.922,-20.924 0,-11.537 9.385,-20.924 20.922,-20.924 h 424.502 c 8.333,0 15.112,-6.779 15.112,-15.113 0,-8.333 -6.779,-15.113 -15.112,-15.113 H -31.234 c -13.737,0 -26.638,5.388 -36.328,15.173 -9.687,9.783 -14.948,22.738 -14.816,36.48 0.272,27.927 23.467,50.648 51.707,50.648 H 0"
             style="fill:none;stroke:#000000;stroke-width:15;stroke-linecap:round;stroke-linejoin:round;stroke-miterlimit:10;stroke-dasharray:none;stroke-opacity:1"
             id="path1396" /></g><g
           id="g1398"
           transform="translate(410.3335,109.8008)"><path
             d="m 0,0 h 75.935 c 8.333,0 15.112,-6.78 15.112,-15.113 0,-8.334 -6.779,-15.114 -15.112,-15.114 H -281.66"
             style="fill:none;stroke:#000000;stroke-width:15;stroke-linecap:round;stroke-linejoin:round;stroke-miterlimit:10;stroke-dasharray:none;stroke-opacity:1"
             id="path1400" /></g><g
           id="g1402"
           transform="translate(129.4341,109.8008)"><path
             d="M 0,0 H 241.372"
             style="fill:none;stroke:#000000;stroke-width:15;stroke-linecap:round;stroke-linejoin:round;stroke-miterlimit:10;stroke-dasharray:none;stroke-opacity:1"
             id="path1404" /></g><g
           id="g1406"
           transform="translate(28.8237,140.125)"><path
             d="M 0,0 C 4.842,13.389 4.842,28.264 0,41.652"
             style="fill:none;stroke:#000000;stroke-width:15;stroke-linecap:round;stroke-linejoin:round;stroke-miterlimit:10;stroke-dasharray:none;stroke-opacity:1"
             id="path1408" /></g><g
           id="g1410"
           transform="translate(129.4341,140.0273)"><path
             d="m 0,0 h 320.8 c 11.536,0 20.922,9.386 20.922,20.924 0,11.537 -9.386,20.924 -20.922,20.924 h -424.502 c -8.333,0 -15.112,6.779 -15.112,15.113 0,8.333 6.779,15.113 15.112,15.113 h 424.503 c 13.736,0 26.636,-5.389 36.326,-15.173 9.687,-9.784 14.948,-22.739 14.816,-36.48 -0.271,-27.927 -23.466,-50.648 -51.707,-50.648"
             style="fill:none;stroke:#000000;stroke-width:15;stroke-linecap:round;stroke-linejoin:round;stroke-miterlimit:10;stroke-dasharray:none;stroke-opacity:1"
             id="path1412" /></g><g
           id="g1414"
           transform="translate(93,109.8008)"><path
             d="m 0,0 h -67.268 c -8.333,0 -15.112,6.78 -15.112,15.113 0,8.334 6.779,15.114 15.112,15.114 H 0"
             style="fill:none;stroke:#000000;stroke-width:15;stroke-linecap:round;stroke-linejoin:round;stroke-miterlimit:10;stroke-dasharray:none;stroke-opacity:1"
             id="path1416" /></g><g
           id="g1418"
           transform="translate(116,314.4019)"><path
             d="M 0,0 25.194,84.83"
             style="fill:none;stroke:#000000;stroke-width:15;stroke-linecap:round;stroke-linejoin:round;stroke-miterlimit:10;stroke-dasharray:none;stroke-opacity:1"
             id="path1420" /></g><g
           id="g1422"
           transform="translate(370.8057,399.2314)"><path
             d="M 0,0 25.194,-84.83"
             style="fill:none;stroke:#000000;stroke-width:15;stroke-linecap:round;stroke-linejoin:round;stroke-miterlimit:10;stroke-dasharray:none;stroke-opacity:1"
             id="path1424" /></g><g
           id="g1426"
           transform="translate(118.1904,471.7549)"><path
             d="m 0,0 -87.056,-22.866 c -10.669,-2.802 -10.669,-17.947 0,-20.749 l 199.009,-52.272 c 16.95,-4.452 34.763,-4.452 51.713,0 l 199.009,52.272 c 10.669,2.802 10.669,17.947 0,20.749 L 163.666,29.406 c -16.95,4.452 -34.763,4.452 -51.713,0 l -74,-19.437"
             style="fill:none;stroke:#000000;stroke-width:15;stroke-linecap:round;stroke-linejoin:round;stroke-miterlimit:10;stroke-dasharray:none;stroke-opacity:1"
             id="path1428" /></g><g
           id="g1430"
           transform="translate(270.4116,435.2661)"><path
             d="M 0,0 53.474,-48.487 V -99.128"
             style="fill:none;stroke:#000000;stroke-width:15;stroke-linecap:round;stroke-linejoin:round;stroke-miterlimit:10;stroke-dasharray:none;stroke-opacity:1"
             id="path1432" /></g><g
           id="g1434"
           transform="translate(345.4678,271)"><path
             d="m 0,0 h -43.164 c 0,0 0,65.138 21.582,65.138 C 0,65.138 0,0 0,0 Z"
             style="fill:none;stroke:#000000;stroke-width:15;stroke-linecap:round;stroke-linejoin:round;stroke-miterlimit:10;stroke-dasharray:none;stroke-opacity:1"
             id="path1436" /></g><g
           id="g1438"
           transform="translate(128.6733,79.5742)"><path
             d="M 0,0 -35.673,-18.716 V 102.301 H 0 Z"
             style="fill:none;stroke:#000000;stroke-width:15;stroke-linecap:round;stroke-linejoin:round;stroke-miterlimit:10;stroke-dasharray:none;stroke-opacity:1"
             id="path1440" /></g><g
           id="g1442"
           transform="translate(270.0967,434.9185)"><path
             d="m 0,0 c -9.327,-5.711 -20.349,-5.719 -29.656,0 v 21.319 c 0,8.189 6.639,14.828 14.828,14.828 C -6.639,36.147 0,29.508 0,21.319 Z"
             style="fill:none;stroke:#000000;stroke-width:15;stroke-linecap:round;stroke-linejoin:round;stroke-miterlimit:10;stroke-dasharray:none;stroke-opacity:1"
             id="path1444" /></g></g></g></g></svg>
