<?xml version="1.0" encoding="UTF-8"?>
<svg xmlns="http://www.w3.org/2000/svg" xmlns:xlink="http://www.w3.org/1999/xlink" version="1.1" id="Capa_1" x="0px" y="0px" viewBox="0 0 512 512" style="enable-background:new 0 0 512 512;" xml:space="preserve" width="512" height="512">
<g>
	<g>
		<polygon style="fill:#EB975D;" points="76,124.74 23.532,253.922 23.532,259.772 488.532,259.772 488.532,253.922 436,124.74 &#9;&#9;&#10;&#9;&#9;&#9;"/>
		<rect x="53.532" y="259.772" style="fill:#E3EDF6;" width="405" height="217.09"/>
		<polygon style="fill:#C5D9EC;" points="76.016,454.378 76.016,259.772 53.532,259.772 53.532,476.862 458.532,476.862 &#10;&#9;&#9;&#9;458.532,454.378 &#9;&#9;"/>
		<rect x="338.532" y="304.772" style="fill:#71E4BF;" width="60" height="172.09"/>
		<rect x="173.564" y="305.216" style="fill:#B6E6FA;" width="164.872" height="172.09"/>
		<polygon style="fill:#8AD8F6;" points="195.729,455.142 195.729,305.216 173.564,305.216 173.564,477.307 338.436,477.307 &#10;&#9;&#9;&#9;338.436,455.142 &#9;&#9;"/>
		<rect x="113.532" y="304.772" style="fill:#71E4BF;" width="60.128" height="172.09"/>
		<polygon style="fill:#00DBA8;" points="135.884,454.51 135.884,304.772 113.532,304.772 113.532,476.862 173.66,476.862 &#10;&#9;&#9;&#9;173.66,454.51 &#9;&#9;"/>
		<polygon style="fill:#00DBA8;" points="360.82,454.51 360.82,304.772 338.468,304.772 338.468,476.862 398.596,476.862 &#10;&#9;&#9;&#9;398.596,454.51 &#9;&#9;"/>
		<polygon style="fill:#B25E1E;" points="481.845,237.479 53.955,237.479 63.178,214.772 472.704,214.772 463.455,192.256 &#10;&#9;&#9;&#9;72.323,192.256 81.432,169.828 454.659,169.828 445.411,147.312 90.577,147.312 99.745,124.74 76,124.74 23.532,253.922 &#10;&#9;&#9;&#9;23.532,259.772 488.532,259.772 488.532,253.922 &#9;&#9;"/>
		<path style="fill:#B6E6FA;" d="M323.502,183.667l9.998-13.925c7.487-12.866,11.866-27.779,12.093-43.723&#10;&#9;&#9;&#9;c0.706-49.481-38.833-90.166-88.314-90.872c-49.481-0.706-90.166,38.833-90.872,88.314c-0.706,49.481,38.833,90.166,88.314,90.872&#10;&#9;&#9;&#9;C282.104,214.724,306.792,202.79,323.502,183.667z"/>
		<path style="fill:#8AD8F6;" d="M270.551,198.504c-49.481-0.706-89.021-41.391-88.314-90.872&#10;&#9;&#9;&#9;c0.289-20.242,7.271-38.817,18.805-53.657c-20.737,16.126-34.231,41.177-34.635,69.486c-0.706,49.481,38.833,90.166,88.314,90.872&#10;&#9;&#9;&#9;c27.382,0.391,52.071-11.543,68.781-30.667l2.351-3.274C310.497,192.015,291.299,198.8,270.551,198.504z"/>
		<polygon style="fill:#F88FA4;" points="301,109.74 271,109.74 271,79.74 241,79.74 241,109.74 211,109.74 211,139.74 241,139.74 &#10;&#9;&#9;&#9;241,169.964 271,169.964 271,139.74 301,139.74 &#9;&#9;"/>
		<g>
			<rect x="241" y="147.176" style="fill:#F05475;" width="30.064" height="22.787"/>
			<rect x="211" y="109.74" style="fill:#F05475;" width="22.404" height="30"/>
		</g>
		
			<line style="fill:none;stroke:#FFFFFF;stroke-width:15;stroke-miterlimit:10;" x1="143.484" y1="327.24" x2="143.484" y2="342.24"/>
		
			<line style="fill:none;stroke:#FFFFFF;stroke-width:15;stroke-miterlimit:10;" x1="203.548" y1="327.24" x2="203.548" y2="342.24"/>
		
			<line style="fill:none;stroke:#FFFFFF;stroke-width:15;stroke-miterlimit:10;" x1="233.612" y1="327.24" x2="233.612" y2="342.24"/>
	</g>
	<g>
		<line style="fill:none;stroke:#000000;stroke-width:15;stroke-miterlimit:10;" x1="278.5" y1="476.862" x2="512" y2="476.862"/>
		<line style="fill:none;stroke:#000000;stroke-width:15;stroke-miterlimit:10;" x1="248.5" y1="476.862" x2="263.5" y2="476.862"/>
		<line style="fill:none;stroke:#000000;stroke-width:15;stroke-miterlimit:10;" x1="0" y1="476.862" x2="233.5" y2="476.862"/>
		<polyline style="fill:none;stroke:#000000;stroke-width:15;stroke-miterlimit:10;" points="113.532,477.751 113.532,304.772 &#10;&#9;&#9;&#9;398.532,304.772 398.532,476.862 &#9;&#9;"/>
		
			<line style="fill:none;stroke:#000000;stroke-width:15;stroke-miterlimit:10;" x1="338.532" y1="304.772" x2="338.532" y2="476.862"/>
		
			<line style="fill:none;stroke:#000000;stroke-width:15;stroke-miterlimit:10;" x1="173.66" y1="304.772" x2="173.66" y2="476.862"/>
		<polyline style="fill:none;stroke:#000000;stroke-width:15;stroke-miterlimit:10;" points="53.532,476.862 53.532,259.772 &#10;&#9;&#9;&#9;458.532,259.772 458.532,476.862 &#9;&#9;"/>
		<polyline style="fill:none;stroke:#000000;stroke-width:15;stroke-miterlimit:10;" points="345.593,124.74 436,124.74 &#10;&#9;&#9;&#9;488.532,253.922 488.532,259.772 458.532,259.772 &#9;&#9;"/>
		<polyline style="fill:none;stroke:#000000;stroke-width:15;stroke-miterlimit:10;" points="53.532,259.772 23.532,259.772 &#10;&#9;&#9;&#9;23.532,253.922 76,124.74 166.407,124.74 &#9;&#9;"/>
		<polygon style="fill:none;stroke:#000000;stroke-width:15;stroke-miterlimit:10;" points="301,109.74 271,109.74 271,79.74 &#10;&#9;&#9;&#9;241,79.74 241,109.74 211,109.74 211,139.74 241,139.74 241,169.964 271,169.964 271,139.74 301,139.74 &#9;&#9;"/>
		<path style="fill:none;stroke:#000000;stroke-width:15;stroke-miterlimit:10;" d="M301.002,47.24&#10;&#9;&#9;&#9;c-12.866-7.487-27.779-11.866-43.723-12.093c-49.481-0.706-90.166,38.834-90.872,88.315&#10;&#9;&#9;&#9;c-0.706,49.481,38.834,90.166,88.315,90.872c49.481,0.706,90.166-38.834,90.872-88.315c0.391-27.382-11.543-52.071-30.667-68.781"/>
		
			<line style="fill:none;stroke:#000000;stroke-width:15;stroke-miterlimit:10;" x1="57.632" y1="169.772" x2="178.525" y2="169.772"/>
		
			<line style="fill:none;stroke:#000000;stroke-width:15;stroke-miterlimit:10;" x1="333.479" y1="169.772" x2="455.66" y2="169.772"/>
		<line style="fill:none;stroke:#000000;stroke-width:15;stroke-miterlimit:10;" x1="106" y1="214.772" x2="472.704" y2="214.772"/>
		<line style="fill:none;stroke:#000000;stroke-width:15;stroke-miterlimit:10;" x1="39.475" y1="214.772" x2="91" y2="214.772"/>
	</g>
</g>















</svg>
