<svg id="Icon" height="512" viewBox="0 0 64 64" width="512" xmlns="http://www.w3.org/2000/svg"><g><g fill="#ffcb29"><path d="m3 19.712c0 1.71 1.431 3.086 3.161 2.995 1.622-.085 2.838-1.541 2.838-3.165v-6.3l13.092 13.092c1.172 1.172 3.071 1.172 4.243 0 1.172-1.172 1.172-3.071 0-4.243l-13.091-13.091h6.3c1.624 0 3.08-1.217 3.165-2.839.091-1.73-1.285-3.161-2.995-3.161h-14.713c-1.105 0-2 .895-2 2z"/><path d="m61 44.288c0-1.71-1.431-3.086-3.161-2.995-1.622.085-2.838 1.541-2.838 3.165v6.3l-13.092-13.092c-1.172-1.172-3.071-1.172-4.243 0-1.172 1.172-1.172 3.071 0 4.243l13.092 13.092h-6.3c-1.624 0-3.08 1.217-3.165 2.839-.091 1.73 1.285 3.161 2.995 3.161h14.712c1.105 0 2-.895 2-2v-14.712z"/><path d="m44.288 3c-1.71 0-3.086 1.431-2.995 3.161.085 1.622 1.541 2.838 3.165 2.838h6.3l-13.092 13.092c-1.172 1.172-1.172 3.071 0 4.243 1.172 1.172 3.071 1.172 4.243 0l13.092-13.092v6.3c0 1.624 1.217 3.08 2.839 3.165 1.73.091 3.161-1.285 3.161-2.995v-14.712c0-1.105-.895-2-2-2h-14.712z"/></g><path d="m37.665 26.335c1.172 1.172 3.071 1.172 4.243 0l13.092-13.092v6.3c0 1.624 1.216 3.08 2.839 3.165 1.73.091 3.161-1.285 3.161-2.995v-14.713c0-.552-.224-1.052-.586-1.414z" fill="#f9a01b"/><path d="m26.335 22.092-13.092-13.092h6.3c1.624 0 3.08-1.216 3.165-2.839.091-1.73-1.285-3.161-2.995-3.161h-14.713c-.552 0-1.052.224-1.414.586l22.749 22.749c1.172-1.172 1.172-3.071 0-4.243z" fill="#f9a01b"/><path d="m19.712 61c1.71 0 3.086-1.431 2.995-3.161-.085-1.622-1.541-2.838-3.165-2.838h-6.3l13.092-13.092c1.172-1.172 1.172-3.071 0-4.243-1.172-1.172-3.071-1.172-4.243 0l-13.092 13.092v-6.3c0-1.624-1.217-3.08-2.839-3.165-1.73-.091-3.161 1.285-3.161 2.995v14.712c0 1.105.895 2 2 2h14.712z" fill="#ffcb29"/><path d="m22.092 37.665-13.092 13.092v-6.3c0-1.624-1.216-3.08-2.839-3.165-1.73-.091-3.161 1.285-3.161 2.995v14.712c0 .552.224 1.052.586 1.414l22.749-22.749c-1.172-1.172-3.071-1.172-4.243 0z" fill="#f9a01b"/><path d="m37.665 41.908 13.092 13.092h-6.3c-1.624 0-3.08 1.216-3.165 2.839-.091 1.73 1.285 3.161 2.995 3.161h14.712c.552 0 1.052-.224 1.414-.586l-22.749-22.749c-1.172 1.172-1.172 3.071 0 4.243z" fill="#f9a01b"/></g><g><path d="m59 2h-14.712c-1.092 0-2.149.455-2.901 1.248-.763.804-1.15 1.857-1.093 2.966.111 2.124 1.94 3.787 4.164 3.787h3.886l-11.386 11.385c-1.559 1.56-1.559 4.098 0 5.657 1.56 1.56 4.097 1.559 5.657 0l11.385-11.385v3.885c0 2.224 1.663 4.053 3.787 4.164 2.231.172 4.253-1.769 4.213-3.994v-14.713c0-1.654-1.346-3-3-3zm1 17.712c.026 1.116-.997 2.079-2.108 1.997-1.043-.055-1.892-1.027-1.892-2.167v-6.299c0-.404-.243-.769-.617-.924s-.804-.069-1.09.217l-13.092 13.092c-.778.779-2.049.78-2.829 0-.779-.78-.779-2.049 0-2.829l13.093-13.092c.286-.286.372-.716.217-1.09-.154-.374-.52-.617-.924-.617h-6.3c-1.14 0-2.111-.848-2.166-1.891-.085-1.116.88-2.133 1.996-2.108h14.712c.552 0 1 .448 1 1v14.712z"/><path d="m15.656 10h3.886c2.224 0 4.053-1.663 4.164-3.787.17-2.227-1.768-4.254-3.994-4.213h-14.712c-1.654 0-3 1.345-3 3v14.712c0 1.092.454 2.149 1.247 2.901.803.762 1.839 1.154 2.967 1.093 2.123-.111 3.786-1.94 3.786-4.164v-3.885l11.385 11.385c1.56 1.559 4.098 1.559 5.657 0s1.559-4.097 0-5.657zm9.972 15.627c-.778.779-2.049.78-2.829 0l-13.092-13.091c-.287-.288-.719-.371-1.09-.217-.374.155-.617.52-.617.924v6.299c0 1.14-.849 2.112-1.891 2.167-1.127.08-2.129-.879-2.109-1.997v-14.712c0-.551.448-1 1-1h14.712c1.116-.024 2.081.993 1.996 2.109-.055 1.043-1.026 1.891-2.166 1.891h-6.3c-.404 0-.77.244-.924.617-.155.374-.069.804.217 1.09l13.093 13.092c.779.78.779 2.049 0 2.829z"/><path d="m21.384 36.959-11.385 11.385v-3.885c0-2.224-1.663-4.053-3.787-4.164-1.113-.057-2.163.331-2.966 1.093-.793.752-1.247 1.81-1.247 2.901v14.712c0 1.654 1.346 3 3 3h14.712c1.092 0 2.149-.455 2.901-1.248.763-.804 1.15-1.857 1.093-2.966-.111-2.124-1.94-3.787-4.164-3.787h-3.886l11.386-11.385c1.559-1.56 1.559-4.098 0-5.657-1.561-1.56-4.097-1.56-5.657 0zm4.243 4.243-13.093 13.092c-.286.286-.372.716-.217 1.09.154.374.52.617.924.617h6.3c1.14 0 2.111.848 2.166 1.891.085 1.116-.88 2.133-1.996 2.108h-14.711c-.552 0-1-.448-1-1v-14.712c-.026-1.115.997-2.082 2.108-1.997 1.043.055 1.892 1.027 1.892 2.167v6.299c0 .404.243.769.617.924.374.154.803.07 1.09-.217l13.092-13.092c.778-.779 2.049-.78 2.829 0 .779.78.779 2.049 0 2.829z"/><path d="m57.786 40.294c-2.123.111-3.786 1.94-3.786 4.164v3.885l-11.385-11.385c-1.561-1.56-4.099-1.56-5.657 0-1.559 1.559-1.559 4.097 0 5.657l11.386 11.385h-3.886c-2.224 0-4.053 1.663-4.164 3.787-.058 1.109.33 2.162 1.093 2.966.752.792 1.81 1.247 2.901 1.247h14.712c1.654 0 3-1.345 3-3v-14.712c0-1.092-.454-2.149-1.247-2.901-.803-.762-1.837-1.149-2.967-1.093zm2.214 18.706c0 .551-.448 1-1 1h-14.712c-1.116.024-2.081-.993-1.996-2.109.055-1.043 1.026-1.891 2.166-1.891h6.3c.404 0 .77-.244.924-.617.155-.374.069-.804-.217-1.09l-13.093-13.092c-.779-.78-.779-2.049 0-2.829.778-.779 2.049-.78 2.829 0l13.092 13.092c.286.287.717.372 1.09.217.374-.155.617-.52.617-.924v-6.299c0-1.14.849-2.112 1.891-2.167 1.123-.083 2.13.881 2.109 1.997z"/></g></svg>