<?xml version="1.0" encoding="UTF-8"?>
<svg xmlns="http://www.w3.org/2000/svg" xmlns:xlink="http://www.w3.org/1999/xlink" version="1.1" id="Capa_1" x="0px" y="0px" viewBox="0 0 511.996 511.996" style="enable-background:new 0 0 511.996 511.996;" xml:space="preserve" width="512" height="512">
<g>
	<g>
		<path style="fill:#FFE559;" d="M467.442,30.791h-34.596l-7.847,6.993l4.46,7.414v137.086l-27.243,26.089&#10;&#9;&#9;&#9;c2.392,2.19,4.292,4.95,5.454,8.136l9.242,25.331c2.073,5.683,10.111,5.683,12.184,0l9.242-25.331&#10;&#9;&#9;&#9;c2.971-8.144,10.716-13.563,19.385-13.563h9.719c20.464,0,37.055-16.59,37.055-37.055V67.846&#10;&#9;&#9;&#9;C504.496,47.381,487.906,30.791,467.442,30.791z"/>
		<path style="fill:#FFD500;" d="M378.998,37.204v143.413l-10.333,9.474l2.207,12.854h17.412c6.191,0,11.9,2.773,15.747,7.32&#10;&#9;&#9;&#9;c19.448-4.507,33.947-21.927,33.947-42.745V51.39c0-7.446-1.861-14.455-5.133-20.599h-49.117L378.998,37.204z"/>
		<path style="fill:#6B7ED9;" d="M132.332,175.284v-137l-4.063-7.493H70.561l-10.035,4.493l-10.528,20.5v132.5l24.314,15.5&#10;&#9;&#9;&#9;l37.099,3.246c3.481-2.586,7.76-4.084,12.301-4.084h17.412v-10.328L132.332,175.284z"/>
		<path style="fill:#4D66D2;" d="M103.391,202.945h-9.718c-20.465,0-37.055-16.59-37.055-37.055V67.846&#10;&#9;&#9;&#9;c0-20.465,16.59-37.055,37.055-37.055H44.555C24.09,30.791,7.5,47.381,7.5,67.846v98.044c0,20.465,16.59,37.055,37.055,37.055&#10;&#9;&#9;&#9;h9.718c8.669,0,16.414,5.418,19.386,13.563l9.242,25.331c2.074,5.683,10.111,5.683,12.185,0l9.242-25.331&#10;&#9;&#9;&#9;c1.721-4.717,5.049-8.51,9.225-10.875C110.518,203.915,107.039,202.945,103.391,202.945z"/>
		<path style="fill:#60B9FE;" d="M344.97,7.5H196.106l-13.108,6.117l-16,22.667v152.75l13.75,15.25l17.21,7.126h16.916&#10;&#9;&#9;&#9;c5.674,0,11.009,1.967,15.245,5.349l38.629-1.725l9.965,4.756c4.552-5.214,11.207-8.38,18.409-8.38h47.848&#10;&#9;&#9;&#9;c24.24,0,43.89-19.65,43.89-43.89V51.39C388.86,27.15,369.21,7.5,344.97,7.5z"/>
		<path style="fill:#1CA8FF;" d="M263.992,211.41h-47.848c-24.24,0-43.89-19.65-43.89-43.89c0-19.526,0-98.432,0-116.13&#10;&#9;&#9;&#9;c0-24.24,19.65-43.89,43.89-43.89h-49.118c-24.24,0-43.89,19.65-43.89,43.89c0,17.698,0,96.604,0,116.13&#10;&#9;&#9;&#9;c0,24.24,19.65,43.89,43.89,43.89h47.848c10.269,0,19.442,6.418,22.961,16.065l10.947,30.003c2.456,6.731,11.976,6.731,14.432,0&#10;&#9;&#9;&#9;l10.947-30.003c1.366-3.745,3.593-6.995,6.396-9.58C276.138,213.821,270.274,211.41,263.992,211.41z"/>
		<g>
			<path style="fill:#FFE559;" d="M413.316,386.098h-14.065l-13.503,5.186l-15.25,14.5l-4.75,15.75v57.5l8.616,6.462h69.615&#10;&#9;&#9;&#9;&#9;c6.571,0,11.898-5.327,11.898-11.898V428.66C455.878,405.154,436.822,386.098,413.316,386.098z"/>
			<path style="fill:#6B7ED9;" d="M182.982,415.345c-5.591-16.983-21.572-29.247-40.426-29.247h-12.938l-9.953,2.853l-15,11.667&#10;&#9;&#9;&#9;&#9;l-7.833,14.833v60l3.5,7.333l4.192,2.712h68.696c1.907,0,3.703-0.46,5.301-1.258l7.144-9.621v-53.333L182.982,415.345z"/>
			<path style="fill:#FFCEBE;" d="M408.753,314.136h-5.755l-16.833,19.481c0,0-5.612,20.667-5.139,21.5&#10;&#9;&#9;&#9;&#9;c0.472,0.833,10.066,16.167,10.353,16.5c0.287,0.333,8.287,7.333,8.287,7.333l9.088,2.949&#10;&#9;&#9;&#9;&#9;c12.291-6.316,20.705-19.112,20.705-33.882S421.044,320.452,408.753,314.136z"/>
			<path style="fill:#FFCEBE;" d="M273.373,297.041L273.373,297.041h-4.375l-17.333,10.91c0,0-7.833,17.667-8.167,19.167&#10;&#9;&#9;&#9;&#9;c-0.333,1.5,0,20.901,0,20.901s4,13.933,4,14.433s8.5,10.333,8.5,10.333l8.667,7.167l8.708,1.723l0,0&#10;&#9;&#9;&#9;&#9;c16.644-6.841,28.367-23.206,28.367-42.317S290.017,303.882,273.373,297.041z"/>
			<path style="fill:#FFCEBE;" d="M137.993,314.136L137.993,314.136l-6.661,0l-15.624,20.148l-2.042,17.667l2.042,12.667&#10;&#9;&#9;&#9;&#9;l8.958,12.667l13.328,4.615v0c12.291-6.316,20.705-19.112,20.705-33.882C158.698,333.248,150.284,320.452,137.993,314.136z"/>
			<path style="fill:#FFB1A0;" d="M117.288,348.018c0-14.77,8.414-27.566,20.705-33.882c-5.211-2.678-11.114-4.199-17.375-4.199&#10;&#9;&#9;&#9;&#9;c-21.031,0-38.08,17.049-38.08,38.08s17.049,38.08,38.08,38.08c6.261,0,12.164-1.521,17.375-4.199&#10;&#9;&#9;&#9;&#9;C125.702,375.583,117.288,362.787,117.288,348.018z"/>
			<path style="fill:#FFB1A0;" d="M388.048,348.018c0-14.77,8.414-27.566,20.705-33.882c-5.211-2.678-11.114-4.198-17.375-4.198&#10;&#9;&#9;&#9;&#9;c-21.031,0-38.08,17.049-38.08,38.08s17.049,38.08,38.08,38.08c6.261,0,12.164-1.521,17.375-4.198&#10;&#9;&#9;&#9;&#9;C396.462,375.583,388.048,362.787,388.048,348.018z"/>
			<path style="fill:#FFB1A0;" d="M245.006,339.357c0-19.11,11.723-35.475,28.367-42.317c-5.358-2.203-11.223-3.425-17.375-3.425&#10;&#9;&#9;&#9;&#9;c-25.262,0-45.742,20.479-45.742,45.742s20.479,45.742,45.742,45.742c6.152,0,12.017-1.223,17.375-3.425&#10;&#9;&#9;&#9;&#9;C256.729,374.832,245.006,358.467,245.006,339.357z"/>
			<path style="fill:#FFD500;" d="M368.248,473.598V428.66c0-23.507,19.056-42.562,42.562-42.562h-41.37&#10;&#9;&#9;&#9;&#9;c-18.854,0-34.835,12.264-40.426,29.247l-3.266,5.439v56l7.727,7.455c1.598,0.798,3.394,1.258,5.302,1.258h41.37&#10;&#9;&#9;&#9;&#9;C373.575,485.496,368.248,480.169,368.248,473.598z"/>
			<path style="fill:#4D66D2;" d="M98.618,473.598V428.66c0-23.507,19.056-42.562,42.563-42.562h-42.5&#10;&#9;&#9;&#9;&#9;c-23.507,0-42.562,19.056-42.562,42.562v44.938c0,6.571,5.327,11.898,11.898,11.898h42.5&#10;&#9;&#9;&#9;&#9;C103.945,485.496,98.618,480.169,98.618,473.598z"/>
			<path style="fill:#60B9FE;" d="M282.349,385.099h-24.054c-6.252,1.737-11.548,3.185-11.548,3.185l-21.414,15.25l-8.836,19.75&#10;&#9;&#9;&#9;&#9;v74.75l11.175,6.462h91.51c7.894,0,14.292-6.399,14.292-14.292v-53.979C333.475,407.989,310.585,385.099,282.349,385.099z"/>
			<path style="fill:#1CA8FF;" d="M221.021,490.204v-53.979c0-28.236,22.89-51.126,51.126-51.126h-42.5&#10;&#9;&#9;&#9;&#9;c-28.236,0-51.126,22.89-51.126,51.126v53.979c0,7.893,6.399,14.292,14.292,14.292h42.5&#10;&#9;&#9;&#9;&#9;C227.42,504.496,221.021,498.097,221.021,490.204z"/>
		</g>
		<circle style="fill:#DBEDFF;" cx="188.171" cy="117.217" r="17.796"/>
		<circle style="fill:#DBEDFF;" cx="255.998" cy="117.217" r="17.796"/>
		<circle style="fill:#DBEDFF;" cx="323.825" cy="117.217" r="17.796"/>
	</g>
	<g>
		<g>
			
				<circle style="fill:none;stroke:#000000;stroke-width:15;stroke-linecap:round;stroke-linejoin:round;stroke-miterlimit:10;" cx="120.618" cy="348.018" r="38.08"/>
			
				<circle style="fill:none;stroke:#000000;stroke-width:15;stroke-linecap:round;stroke-linejoin:round;stroke-miterlimit:10;" cx="391.378" cy="348.018" r="38.08"/>
			<path style="fill:none;stroke:#000000;stroke-width:15;stroke-linecap:round;stroke-linejoin:round;stroke-miterlimit:10;" d="&#10;&#9;&#9;&#9;&#9;M282.349,385.099h-52.703c-28.236,0-51.126,22.89-51.126,51.126v53.979c0,7.893,6.399,14.292,14.292,14.292h126.37&#10;&#9;&#9;&#9;&#9;c7.893,0,14.292-6.399,14.292-14.292v-53.979C333.475,407.989,310.585,385.099,282.349,385.099z"/>
			
				<circle style="fill:none;stroke:#000000;stroke-width:15;stroke-linecap:round;stroke-linejoin:round;stroke-miterlimit:10;" cx="255.998" cy="339.357" r="45.742"/>
			<path style="fill:none;stroke:#000000;stroke-width:15;stroke-linecap:round;stroke-linejoin:round;stroke-miterlimit:10;" d="&#10;&#9;&#9;&#9;&#9;M413.316,386.098h-43.875c-18.854,0-34.835,12.264-40.426,29.247c2.858,6.377,4.461,13.439,4.461,20.88v48.013&#10;&#9;&#9;&#9;&#9;c1.598,0.798,3.394,1.258,5.302,1.258H443.98c6.571,0,11.898-5.327,11.898-11.898V428.66&#10;&#9;&#9;&#9;&#9;C455.878,405.154,436.822,386.098,413.316,386.098z"/>
			<path style="fill:none;stroke:#000000;stroke-width:15;stroke-linecap:round;stroke-linejoin:round;stroke-miterlimit:10;" d="&#10;&#9;&#9;&#9;&#9;M178.521,436.225c0-7.441,1.603-14.503,4.461-20.88c-5.591-16.983-21.572-29.247-40.426-29.247H98.68&#10;&#9;&#9;&#9;&#9;c-23.507,0-42.562,19.056-42.562,42.562v44.938c0,6.571,5.327,11.898,11.898,11.898h105.203c1.907,0,3.703-0.46,5.301-1.258&#10;&#9;&#9;&#9;&#9;V436.225z"/>
		</g>
		<path style="fill:none;stroke:#000000;stroke-width:15;stroke-linecap:round;stroke-linejoin:round;stroke-miterlimit:10;" d="&#10;&#9;&#9;&#9;M123.136,167.52c0-19.526,0-98.432,0-116.13c0-7.446,1.861-14.456,5.133-20.599H44.555C24.09,30.791,7.5,47.381,7.5,67.846v98.044&#10;&#9;&#9;&#9;c0,20.465,16.59,37.055,37.055,37.055h9.719c8.669,0,16.414,5.418,19.385,13.563l9.242,25.331c2.073,5.683,10.111,5.683,12.184,0&#10;&#9;&#9;&#9;l9.242-25.331c2.971-8.144,10.716-13.563,19.386-13.563h17.412C130.221,194.96,123.136,182.07,123.136,167.52z"/>
		
			<circle style="fill:none;stroke:#000000;stroke-width:15;stroke-linecap:round;stroke-linejoin:round;stroke-miterlimit:10;" cx="188.171" cy="117.217" r="17.796"/>
		
			<circle style="fill:none;stroke:#000000;stroke-width:15;stroke-linecap:round;stroke-linejoin:round;stroke-miterlimit:10;" cx="255.998" cy="117.217" r="17.796"/>
		
			<circle style="fill:none;stroke:#000000;stroke-width:15;stroke-linecap:round;stroke-linejoin:round;stroke-miterlimit:10;" cx="323.825" cy="117.217" r="17.796"/>
		<path style="fill:none;stroke:#000000;stroke-width:15;stroke-linecap:round;stroke-linejoin:round;stroke-miterlimit:10;" d="&#10;&#9;&#9;&#9;M238.498,7.5h-71.472c-24.24,0-43.89,19.65-43.89,43.89c0,17.698,0,96.604,0,116.13c0,24.24,19.65,43.89,43.89,43.89h47.848&#10;&#9;&#9;&#9;c10.268,0,19.442,6.418,22.961,16.065l10.947,30.003c2.456,6.731,11.976,6.731,14.432,0l10.947-30.003&#10;&#9;&#9;&#9;c3.52-9.647,12.693-16.065,22.961-16.065h47.848c24.24,0,43.89-19.65,43.89-43.89V51.39c0-24.24-19.65-43.89-43.89-43.89h-71.472"/>
		<path style="fill:none;stroke:#000000;stroke-width:15;stroke-linecap:round;stroke-linejoin:round;stroke-miterlimit:10;" d="&#10;&#9;&#9;&#9;M504.496,104.108V67.846c0-20.465-16.59-37.055-37.055-37.055h-83.714c3.272,6.143,5.132,13.153,5.132,20.599v116.13&#10;&#9;&#9;&#9;c0,14.55-7.085,27.44-17.988,35.426h17.412c8.669,0,16.414,5.418,19.386,13.563l9.242,25.331c2.073,5.683,10.111,5.683,12.184,0&#10;&#9;&#9;&#9;l9.242-25.331c2.971-8.144,10.716-13.563,19.385-13.563h9.719c20.464,0,37.055-16.59,37.055-37.055v-26.782"/>
	</g>
</g>















</svg>
