<svg height="512" viewBox="0 0 128 128" width="512" xmlns="http://www.w3.org/2000/svg"><path d="m127.074 114.983h-126v-70.863a3.2 3.2 0 0 1 3.208-3.19h119.584a3.2 3.2 0 0 1 3.208 3.19z" fill="#fff"/><path d="m127.074 58.569h-126v-14.449a3.2 3.2 0 0 1 3.208-3.19h119.584a3.2 3.2 0 0 1 3.208 3.19z" fill="#aad2ff"/><path d="m4.058 47.087a3.2 3.2 0 0 1 3.208-3.187h119.584c.07 0 .149.016.218.02a3.2 3.2 0 0 0 -3.2-2.987h-119.586a3.2 3.2 0 0 0 -3.208 3.19v14.446h2.984z" fill="#bee6ff"/><path d="m6.619 80.064h113.986v34.919h-113.986z" fill="#f0f0e6"/><path d="m12.928 86.619h36.542v23.226h-36.542z" fill="#f0dc78"/><path d="m39.058 63.697h81.546v10.964h-81.546z" fill="#f0dc78"/><path d="m6.619 63.697h28.497v10.964h-28.497z" fill="#c8beff"/><ellipse cx="9.392" cy="51.563" fill="#96bef0" rx="2.173" ry="2.16"/><ellipse cx="18.083" cy="51.563" fill="#96bef0" rx="2.173" ry="2.16"/><ellipse cx="26.774" cy="51.563" fill="#96bef0" rx="2.173" ry="2.16"/><ellipse cx="9.392" cy="50.708" fill="#e678a0" rx="2.173" ry="2.16"/><ellipse cx="18.083" cy="50.708" fill="#f0dc78" rx="2.173" ry="2.16"/><ellipse cx="26.774" cy="50.708" fill="#8d7bd4" rx="2.173" ry="2.16"/><path d="m70.546 77.527 1.409 2.537h23.753l1.409-2.537a7.854 7.854 0 0 1 2.75-2.866h-32.067a7.854 7.854 0 0 1 2.746 2.866z" fill="#f0f0e6"/><path d="m43.058 63.7h77.542v9.427a5.965 5.965 0 0 0 4-5.619v-8.939h-81.542z" fill="#f0f0e6"/><path d="m80.375 95.229a3.959 3.959 0 0 0 6.912 0l8.42-15.165h-23.752z" fill="#dcdcd2"/><path d="m43.058 63.7v3.8a5.983 5.983 0 0 0 6 5.966h14.576a7.913 7.913 0 0 1 4.166 1.195h32.067a7.913 7.913 0 0 1 4.162-1.191h14.571a6.006 6.006 0 0 0 2-.347v-9.423z" fill="#dcc864"/><path d="m43.058 43.898h81.546v14.671h-81.546z" fill="#96bef0"/><path d="m124.595 41.023a3.2 3.2 0 0 0 -.729-.092h-80.808v2.969h81.542v-2.874z" fill="#aad2ff"/><path d="m114.6 69.493h-14.571a7.9 7.9 0 0 0 -6.912 4.056l-9.829 17.7a3.959 3.959 0 0 1 -6.912 0l-9.829-17.7a7.9 7.9 0 0 0 -6.912-4.056h-14.577a5.983 5.983 0 0 1 -6-5.966v-44.561a5.983 5.983 0 0 1 6-5.966h69.542a5.983 5.983 0 0 1 6 5.966v44.561a5.983 5.983 0 0 1 -6 5.966z" fill="#e678a0"/><path d="m41.821 66.274v-44.561a5.983 5.983 0 0 1 6-5.966h69.546a6.027 6.027 0 0 1 2.634.608 6.009 6.009 0 0 0 -5.401-3.355h-69.542a5.983 5.983 0 0 0 -6 5.966v44.561a5.958 5.958 0 0 0 3.374 5.358 5.9 5.9 0 0 1 -.611-2.611z" fill="#fa8cb4"/><path d="m98.545 32.8v-10.412l-16.745 9.5h-16.694a5.13 5.13 0 0 0 -5.145 5.112v8.4a5.13 5.13 0 0 0 5.144 5.115l3.368 8.558a14.208 14.208 0 0 0 13.232 8.98l-6.905-17.531h7l16.748 9.5v-10.411c3-1.184 5.156-4.5 5.156-8.406s-2.163-7.222-5.159-8.405z" fill="#d2648c"/><path d="m72.8 46.545h-9.7a5.13 5.13 0 0 1 -5.145-5.115v-8.4a5.13 5.13 0 0 1 5.145-5.115h9.7z" fill="#aad2ff"/><path d="m63.106 27.91a5.13 5.13 0 0 0 -5.144 5.115v2.366a5.13 5.13 0 0 1 5.144-5.115h9.7v-2.366z" fill="#bee6ff"/><path d="m96.545 56.044-16.748-9.499v-18.635l16.748-9.499z" fill="#aad2ff"/><path d="m79.797 27.91v2.367l16.748-9.5v-2.366z" fill="#bee6ff"/><path d="m96.545 53.678v2.366l-16.748-9.499v-2.367z" fill="#96bef0"/><path d="m79.706 64.083a14.208 14.208 0 0 1 -13.232-8.983l-3.368-8.558h9.7z" fill="#c8beff"/><path d="m64.732 50.677h9.698l-1.626-4.132h-9.698z" fill="#b4aaf0"/><path d="m72.804 27.91h6.994v18.634h-6.994z" fill="#f0dc78"/><path d="m72.804 27.91h6.994v2.366h-6.994z" fill="#ffe885"/><path d="m63.106 46.545a5.13 5.13 0 0 1 -5.144-5.115v-2.367a5.13 5.13 0 0 0 5.144 5.115h9.7v2.367z" fill="#96bef0"/><path d="m72.804 44.178h6.994v2.366h-6.994z" fill="#dcc864"/><path d="m96.545 28.822v16.811c3-1.184 5.156-4.5 5.156-8.406s-2.16-7.221-5.156-8.405z" fill="#c8beff"/><path d="m96.545 41.156v4.478c3-1.184 5.156-4.5 5.156-8.406a10.222 10.222 0 0 0 -.267-2.239 8.465 8.465 0 0 1 -4.889 6.167z" fill="#b4aaf0"/><g fill="#785ae6"><path d="m127.074 115.983h-126a1 1 0 0 1 -1-1v-70.862a4.2 4.2 0 0 1 4.208-4.19h26.918a1 1 0 0 1 0 2h-26.918a2.2 2.2 0 0 0 -2.208 2.19v69.862h124v-69.862a2.2 2.2 0 0 0 -2.209-2.19h-2.265v21.6a6.991 6.991 0 0 1 -7 6.966h-14.571a6.9 6.9 0 0 0 -6.038 3.542l-9.829 17.7a4.959 4.959 0 0 1 -8.661 0l-9.829-17.7a6.9 6.9 0 0 0 -6.038-3.542h-14.575a6.991 6.991 0 0 1 -7-6.966v-22.6a1 1 0 0 1 2 0v22.6a4.989 4.989 0 0 0 5 4.966h14.575a8.9 8.9 0 0 1 7.786 4.571l9.829 17.7a2.96 2.96 0 0 0 5.165 0l9.829-17.7a8.9 8.9 0 0 1 7.786-4.571h14.571a4.989 4.989 0 0 0 5-4.966v-22.6a1 1 0 0 1 1-1h3.261a4.2 4.2 0 0 1 4.209 4.19v70.862a1 1 0 0 1 -.996 1z"/><path d="m120.6 115.983h-113.981a.986.986 0 0 1 -1-.983v-5.154a1 1 0 0 1 2 0v4.137h111.981v-32.919h-29.511l-5.927 10.673a4.959 4.959 0 0 1 -8.661 0l-5.927-10.673h-61.955v20.221a1 1 0 0 1 -2 0v-21.221a1 1 0 0 1 1-1h63.544a1 1 0 0 1 .874.515l6.212 11.188a2.96 2.96 0 0 0 5.165 0l6.212-11.187a1 1 0 0 1 .874-.515h31.1a1 1 0 0 1 1 1v34.935a.985.985 0 0 1 -1 .983z"/><path d="m127.074 59.569h-6.474a1 1 0 0 1 -1-1v-17.638a1 1 0 0 1 1-1h3.261a4.2 4.2 0 0 1 4.209 4.19v14.448a1 1 0 0 1 -.996 1zm-5.47-2h4.47v-13.448a2.2 2.2 0 0 0 -2.209-2.19h-2.265z"/><path d="m39.059 59.569h-37.985a1 1 0 0 1 -1-1v-14.448a4.2 4.2 0 0 1 4.208-4.19h26.918a1 1 0 0 1 0 2h-26.918a2.2 2.2 0 0 0 -2.208 2.19v13.448h35.985v-16.638a1 1 0 0 1 2 0v17.638a1 1 0 0 1 -1 1z"/><path d="m67.164 75.661a1 1 0 0 1 -.875-.515l-.617-1.111a6.9 6.9 0 0 0 -6.038-3.542h-14.575a6.987 6.987 0 0 1 -5-2.075v5.243h19.575a1 1 0 0 1 0 2h-20.576a1 1 0 0 1 -1-1v-10.961a1 1 0 0 1 2.008-.028 4.955 4.955 0 0 0 4.992 4.825h14.576a8.9 8.9 0 0 1 7.786 4.571l.617 1.111a1 1 0 0 1 -.873 1.485z"/><path d="m92.5 75.661a1 1 0 0 1 -.873-1.485l.617-1.111a8.9 8.9 0 0 1 7.786-4.571h14.57a4.954 4.954 0 0 0 4.991-4.825 1 1 0 0 1 2.009.028v10.964a1 1 0 0 1 -1 1h-20.571a1 1 0 1 1 0-2h19.571v-5.243a6.987 6.987 0 0 1 -5 2.075h-14.571a6.9 6.9 0 0 0 -6.038 3.542l-.617 1.111a1 1 0 0 1 -.874.515z"/><path d="m35.115 75.661h-28.496a1 1 0 0 1 -1-1v-10.961a1 1 0 0 1 1-1h28.5a1 1 0 0 1 1 1v10.961a1 1 0 0 1 -1.004 1zm-27.5-2h26.5v-8.961h-26.496z"/><path d="m68.5 91.4h-12.72a1 1 0 0 1 0-2h12.72a1 1 0 0 1 0 2z"/><path d="m114.446 91.4h-23.283a1 1 0 0 1 0-2h23.283a1 1 0 0 1 0 2z"/><path d="m114.446 97.884h-58.666a1 1 0 1 1 0-2h58.667a1 1 0 0 1 0 2z"/><path d="m114.446 104.365h-58.666a1 1 0 0 1 0-2h58.667a1 1 0 0 1 0 2z"/><path d="m114.446 110.846h-58.666a1 1 0 0 1 0-2h58.667a1 1 0 0 1 0 2z"/><path d="m49.47 110.846h-36.542a1 1 0 0 1 -1-1v-23.227a1 1 0 0 1 1-1h36.542a1 1 0 0 1 1 1v23.227a1 1 0 0 1 -1 1zm-35.542-2h34.542v-21.227h-34.542z"/><path d="m79.831 94.28a4.889 4.889 0 0 1 -4.33-2.543l-9.829-17.7a6.9 6.9 0 0 0 -6.038-3.542h-14.576a6.991 6.991 0 0 1 -7-6.966v-44.563a6.991 6.991 0 0 1 7-6.966 1 1 0 0 1 0 2 4.989 4.989 0 0 0 -5 4.966v44.561a4.989 4.989 0 0 0 5 4.966h14.576a8.9 8.9 0 0 1 7.786 4.571l9.829 17.7a2.96 2.96 0 0 0 5.165 0l9.829-17.7a8.9 8.9 0 0 1 7.786-4.571h14.571a4.989 4.989 0 0 0 5-4.966v-44.561a4.989 4.989 0 0 0 -5-4.966h-56.639a1 1 0 0 1 0-2h56.639a6.991 6.991 0 0 1 7 6.966v44.561a6.991 6.991 0 0 1 -7 6.966h-14.571a6.9 6.9 0 0 0 -6.038 3.542l-9.829 17.7a4.889 4.889 0 0 1 -4.331 2.545z"/><path d="m72.8 47.544h-9.7a6.137 6.137 0 0 1 -6.145-6.115v-8.4a6.137 6.137 0 0 1 6.145-6.115h9.7a1 1 0 0 1 1 1v18.63a1 1 0 0 1 -1 1zm-9.7-18.634a4.135 4.135 0 0 0 -4.145 4.115v8.4a4.135 4.135 0 0 0 4.145 4.115h8.7v-16.629z"/><path d="m96.545 57.044a1 1 0 0 1 -.493-.13l-16.752-9.5a1 1 0 0 1 -.507-.87v-18.633a1 1 0 0 1 .507-.87l16.747-9.5a1 1 0 0 1 1.493.87v37.633a1 1 0 0 1 -1 1zm-15.745-11.082 14.747 8.366v-34.2l-14.747 8.365z"/><path d="m79.706 65.083a15.12 15.12 0 0 1 -14.163-9.613l-3.368-8.559a1 1 0 0 1 .931-1.366h9.7a1 1 0 0 1 .931.634l6.9 17.538a1 1 0 0 1 -.931 1.366zm-15.132-17.539 2.83 7.192a13.109 13.109 0 0 0 10.801 8.264l-6.082-15.456z"/><path d="m79.8 47.544h-7a1 1 0 0 1 -1-1v-18.633a1 1 0 0 1 1-1h7a1 1 0 0 1 1 1v18.633a1 1 0 0 1 -1 1zm-5.994-2h4.994v-16.633h-5z"/><path d="m96.545 46.633a1 1 0 0 1 -1-1v-16.811a1 1 0 0 1 1.367-.93c3.463 1.369 5.789 5.12 5.789 9.336s-2.326 7.967-5.789 9.336a1 1 0 0 1 -.367.069zm1-16.126v13.441a8.287 8.287 0 0 0 3.156-6.721 8.287 8.287 0 0 0 -3.156-6.72z"/></g></svg>