<svg id="a" height="512" viewBox="0 0 60 60" width="512" xmlns="http://www.w3.org/2000/svg"><path d="m54 28.24v22.49l-8.27 8.27h-37.73c-1.11 0-2-.89-2-2v-28.76l23.35-19.76c.38-.32.92-.32 1.3 0z" fill="#f5f5f5"/><path d="m30.65 8.48c-.38-.32-.92-.32-1.3 0l-.85.719 22.5 19.041v22.49l-8.27 8.27h3l8.27-8.27v-22.49z" fill="#cfd8dc"/><path d="m58.29 27.94c-1.05 1.24-2.94 1.44-4.23.35l-.06-.05-23.35-19.76c-.38-.32-.92-.32-1.3 0l-23.35 19.76-.06.05c-1.3 1.09-3.19.89-4.23-.35-1.07-1.27-.91-3.16.35-4.23l25.87-21.89c.51-.49 1.29-.82 2.07-.82.13 0 1.03-.06 2.07.82l25.87 21.89c1.26 1.07 1.42 2.96.35 4.23z" fill="#f44335"/><path d="m57.94 23.71-25.87-21.89c-1.04-.88-1.94-.82-2.07-.82-.534 0-1.061.163-1.509.417.186.107.378.233.579.403l25.87 21.89c1.26 1.07 1.42 2.96.35 4.23-.228.27-.501.48-.794.649 1.252.729 2.856.458 3.794-.649 1.07-1.27.91-3.16-.35-4.23z" fill="#c81e1e"/><path d="m44 11.911v-5.91c0-1.1.9-2 2-2h4c1.1 0 2 .9 2 2v12.68z" fill="#f44335"/><path d="m50 4.001h-3c1.1 0 2 .9 2 2v10.141l3 2.539v-12.68c0-1.1-.9-2-2-2z" fill="#c81e1e"/><path d="m23 59v-24c0-1.105.895-2 2-2h10c1.105 0 2 .895 2 2v24z" fill="#f44335"/><path d="m35 33h-3c1.105 0 2 .895 2 2v24h3v-24c0-1.105-.895-2-2-2z" fill="#c81e1e"/><rect fill="#02a9f4" height="13" rx="1" width="9" x="41" y="33"/><path d="m49 33h-3c.552 0 1 .448 1 1v11c0 .552-.448 1-1 1h3c.552 0 1-.448 1-1v-11c0-.552-.448-1-1-1z" fill="#0377bc"/><rect fill="#02a9f4" height="13" rx="1" width="9" x="10" y="33"/><path d="m18 33h-3c.552 0 1 .448 1 1v11c0 .552-.448 1-1 1h3c.552 0 1-.448 1-1v-11c0-.552-.448-1-1-1z" fill="#0377bc"/><path d="m50.65 49c1.246 0 2.324.766 2.823 1.87.3-.119.622-.183.954-.183 1.463 0 2.654 1.234 2.666 2.755 1.104.365 1.907 1.443 1.907 2.713 0 1.569-1.225 2.845-2.731 2.845h-10.539c-1.506 0-2.731-1.276-2.731-2.845 0-1.44 1.031-2.633 2.365-2.82.335-.934 1.197-1.603 2.208-1.61.241-1.543 1.53-2.725 3.078-2.725z" fill="#60a917"/><path d="m57.093 53.441c-.012-1.521-1.203-2.755-2.666-2.755-.332 0-.655.063-.954.183-.499-1.104-1.577-1.87-2.823-1.87-.545 0-1.054.153-1.5.41.574.331 1.043.838 1.323 1.46.3-.12.622-.183.954-.183 1.463 0 2.654 1.234 2.666 2.755 1.104.365 1.907 1.443 1.907 2.713 0 1.569-1.225 2.845-2.731 2.845h3c1.506 0 2.731-1.276 2.731-2.845 0-1.27-.803-2.348-1.907-2.713z" fill="#549414"/><path d="m28 47h-1c-.552 0-1 .447-1 1s.448 1 1 1h1c.552 0 1-.447 1-1s-.448-1-1-1z"/><path d="m42 47h7c1.103 0 2-.897 2-2v-11c0-1.103-.897-2-2-2h-7c-1.103 0-2 .897-2 2v11c0 1.103.897 2 2 2zm0-13h7v11h-7z"/><path d="m18 32h-7c-1.103 0-2 .897-2 2v11c0 1.103.897 2 2 2h7c1.103 0 2-.897 2-2v-11c0-1.103-.897-2-2-2zm-7 13v-11h7v11z"/><path d="m58.029 52.763c-.286-1.555-1.507-2.773-3.029-3.023v-19.883c.329.085.664.142 1 .142 1.138 0 2.267-.48 3.053-1.414 1.42-1.685 1.21-4.213-.469-5.638l-5.585-4.726v-12.22c0-1.654-1.346-3-3-3h-4c-1.654 0-3 1.346-3 3v3.759l-10.284-8.703c-.818-.692-1.734-1.057-2.659-1.057-1.024-.012-2.076.396-2.772 1.056l-25.872 21.892c-1.677 1.424-1.887 3.952-.468 5.637 1.021 1.21 2.612 1.645 4.056 1.273v27.142c0 1.654 1.346 3 3 3h48.269c2.057 0 3.731-1.726 3.731-3.846 0-1.441-.77-2.731-1.971-3.392zm-13.029-46.762c0-.552.449-1 1-1h4c.551 0 1 .448 1 1v10.528l-6-5.077zm-42.526 21.295c-.711-.844-.607-2.11.231-2.821l25.911-21.927c.356-.337.899-.569 1.444-.548.435 0 .918.207 1.364.584l25.869 21.89c.84.712.944 1.979.232 2.822-.708.841-1.974.943-2.819.231l-23.415-19.813c-.374-.316-.833-.475-1.292-.475s-.918.158-1.292.475l-23.412 19.812c-.847.713-2.112.61-2.821-.23zm4.526 29.704v-28.297l22.999-19.462 23.001 19.463v20.065c-.679-.488-1.495-.77-2.35-.77-1.781 0-3.315 1.153-3.884 2.831-.88.231-1.645.823-2.102 1.639-1.552.479-2.664 1.971-2.664 3.685 0 .672.183 1.295.478 1.846h-4.478v-23c0-1.654-1.346-3-3-3h-10c-1.654 0-3 1.346-3 3v23h-14c-.561 0-1-.439-1-1zm29 1h-12v-23c0-.552.449-1 1-1h10c.551 0 1 .448 1 1zm20.269 0h-10.539c-.954 0-1.73-.828-1.73-1.846 0-.923.646-1.709 1.503-1.829.368-.052.677-.303.803-.653.202-.562.713-.943 1.274-.947.49-.004.905-.361.98-.846.167-1.071 1.066-1.879 2.09-1.879.81 0 1.56.503 1.912 1.281.219.486.785.714 1.28.518.187-.074.384-.112.585-.112.911 0 1.658.791 1.666 1.763.003.429.279.808.686.941.719.238 1.221.963 1.221 1.764 0 1.018-.776 1.846-1.731 1.846z"/></svg>