<svg id="Layer_1" enable-background="new 0 0 512 512" viewBox="0 0 512 512" xmlns="http://www.w3.org/2000/svg" xmlns:xlink="http://www.w3.org/1999/xlink"><linearGradient id="SVGID_1_" gradientTransform="matrix(1 0 0 -1 0 512)" gradientUnits="userSpaceOnUse" x1="-107.77" x2="392.23" y1="392.23" y2="-107.77"><stop offset="0" stop-color="#f8da30"/><stop offset="1" stop-color="#fdab22"/></linearGradient><linearGradient id="SVGID_00000167371141819128826410000012136261790876954552_" gradientTransform="matrix(1 0 0 -1 0 512)" gradientUnits="userSpaceOnUse" x1="240.028" x2="376.793" y1="321.118" y2="184.353"><stop offset="0" stop-color="#ae71fd"/><stop offset="1" stop-color="#974df5"/></linearGradient><g id="Layer_2_00000021077415022919059790000004143628564974305685_"><g id="Layer_2_copy"><g id="_3"><path d="m0 512v-512h56.9v455.1h455.1v56.9z"/><path d="m50.9 461.1v-455.1h-44.9v455.1 44.9h44.9 455.1v-44.9z" fill="url(#SVGID_1_)"/><path d="m84.4 338 135.7-135.7 73 73.1 93.7-93.7-29.4-29.3 129.4-24-24 129.4-29.4-29.5-140.3 140.3-73-73.1-89.1 89.1z"/><path d="m479.3 135.9-109.6 20.3 25.6 25.5-102.2 102.2-73-73.1-127.2 127.2 38.1 38.1 89.1-89.1 73 73.1 140.3-140.3 25.6 25.6z" fill="url(#SVGID_00000167371141819128826410000012136261790876954552_)"/></g></g></g></svg>