<svg id="Layer_1" enable-background="new 0 0 500 500" viewBox="0 0 500 500" xmlns="http://www.w3.org/2000/svg"><g clip-rule="evenodd" fill-rule="evenodd"><path d="m416.852 122.076 48.587 39.697c2.824 2.307 3.488 6.296 1.563 9.393l-20.441 32.901c-2.097 3.375-6.56 4.417-9.934 2.32l-18.068-11.225c-3.375-2.097-7.837-1.054-9.934 2.32l-47.763 76.875c-2.097 3.375-6.559 4.417-9.934 2.321-30.889-19.191-61.778-38.383-92.668-57.574-3.375-2.097-4.417-6.56-2.321-9.935l47.763-76.875c2.097-3.375 1.054-7.838-2.321-9.934l-18.068-11.226c-3.375-2.097-4.417-6.559-2.321-9.934l20.442-32.901c1.924-3.097 5.794-4.269 9.114-2.76l57.113 25.975c-11.196 13.655-7.853 34.033 7.153 43.356 15.034 9.34 34.781 3.235 42.038-12.794z" fill="#19cfba"/><path d="m190.579 311.942c-42.939-.297-88.208-27.561-114.979-73.93-22.893-39.651-26.924-84.031-14.348-119.403 3.625-10.195 15.918-17.292 26.559-15.334 36.921 6.795 73.34 32.475 96.232 72.127 26.772 46.369 27.749 99.205 6.536 136.54z" fill="#c89d8d"/><g fill="#fa6e85"><ellipse cx="253.913" cy="233.109" rx="86.988" ry="86.988" transform="matrix(.165 -.986 .986 .165 -17.988 444.963)"/><path d="m231.399 149.086c46.405-12.434 94.103 15.104 106.538 61.51 12.434 46.405-15.105 94.104-61.51 106.538z"/><path d="m288.628 153.351c23.439 10.22 42.176 30.626 49.308 57.244s1.108 53.659-14.08 74.229c-33.248-32.681-47.681-86.545-35.228-131.473z"/><path d="m219.197 312.868c-23.439-10.22-42.176-30.626-49.308-57.244s-1.108-53.659 14.08-74.229c33.249 32.68 47.682 86.546 35.228 131.473z"/><path d="m231.399 149.086c36.548-9.793 73.893 5.213 94.186 34.698-39.366 32.548-108.038 50.948-158.404 42.444 2.831-35.681 27.67-67.349 64.218-77.142z"/></g><path d="m227.81 313.711-151.354-68.387v121.401l151.354 68.387 151.354-68.387v-121.401z" fill="#f0b16e"/><path d="m227.81 435.112 151.354-68.387v-121.401l-151.354 68.387z" fill="#f0b16e"/><path d="m272.343 349.229-44.533-35.518 151.354-68.387 44.533 35.518z" fill="#f0b16e"/><path d="m183.277 349.229 44.533-35.518-151.354-68.387-44.533 35.518z" fill="#f0b16e"/><path d="m87.794 161.632 3.445-1.993-6.719-11.675c-1.895-3.251-.747-7.425 2.527-9.303 3.216-1.884 7.408-.775 9.303 2.486l6.719 11.681 3.446-1.993c3.273-1.883 7.408-.775 9.303 2.492 1.895 3.262.746 7.431-2.469 9.315l-3.446 1.987 7.753 13.495 3.503-1.993c3.216-1.878 7.408-.764 9.303 2.498 1.838 3.256.746 7.425-2.527 9.309l-3.446 1.987 7.81 13.507 3.446-1.993c3.273-1.883 7.408-.764 9.303 2.492 1.895 3.262.747 7.431-2.469 9.315l-3.446 1.987 6.719 11.669c2.67 4.615-.806 10.234-5.915 10.234-2.355 0-4.652-1.229-5.915-3.423l-6.719-11.663c-2.318 1.337-4.392 2.906-6.834 2.906-6.927 0-9.436-9.233-3.445-12.72l3.445-1.993-7.753-13.501c-2.382 1.378-4.364 2.906-6.891 2.906-6.972 0-9.387-9.264-3.388-12.72l3.446-1.987-7.81-13.495c-2.343 1.351-4.366 2.894-6.834 2.894-6.938.001-9.432-9.212-3.445-12.708zm373.391 5.933-20.387 32.906-.574.126-18.09-11.233c-6.547-4.077-15.218-2.05-19.295 4.52l-28.714 46.24-28.541 12.887c8.934-40.301-10.135-81.619-45.712-101.629l9.648-15.494c4.077-6.57 2.01-15.241-4.537-19.319l-18.089-11.233c-.172-.109-.23-.373-.115-.546l20.444-32.906c.115-.189.287-.241.517-.155l50.019 22.759c-7.886 16.518-2.21 36.445 13.438 46.16 15.705 9.751 36.082 5.974 47.378-8.367l42.553 34.766c.171.139.229.328.057.518zm-187.844 173.734-32.561-25.968 137.423-62.085 32.561 25.974zm99.004 21.018v-50.806l-97.224 43.926c-2.308 1.06-5.029.702-7.006-.89l-33.48-26.687v96.684zm-289.088-50.806 97.224 43.926c2.292 1.052 5.03.71 7.063-.89l33.48-26.687v96.684l-137.767-62.227zm-5.8-58.265-32.561 25.974 137.365 62.079 32.561-25.968zm-9.763-132.364c-13.266 37.333-6.145 83.66 18.549 121.378l87.461 39.51c-19.459-32.244-18.065-72.783 4.135-103.518-21.076-36.133-55.13-61.631-91.252-68.281-7.407-1.355-16.424 3.848-18.893 10.911zm158.958 36.84 15.448 57.662c-7.983 1.907-16.08 3.394-24.119 4.416-6.26-14.569-14.701-27.72-24.981-38.844 9.016-10.531 20.501-18.508 33.652-23.234zm53.924-.196c-12.749-4.519-26.704-5.863-40.773-3.348l15.448 57.674c7.925-2.349 15.678-5.105 23.086-8.223-1.781-15.534-1.092-31.212 2.239-46.103zm10.854 40.09c8.959-4.508 17.286-9.567 24.694-15.086-6.374-7.822-14.185-14.322-22.856-19.215-2.182 11.141-2.814 22.735-1.838 34.301zm-16.539 87.353 29.115-13.157c-11.37-16.148-19.295-34.864-23.373-54.269-7.121 2.866-14.357 5.404-21.822 7.615zm-47.09 21.253 34.456-15.563-16.596-61.987c-7.523 1.803-15.103 3.245-22.684 4.307.689 2.085 1.321 4.175 1.895 6.3 6.317 22.529 7.293 45.534 2.929 66.937zm-43.3-113.206c.115-.235.287-.459.402-.689 7.466 8.517 13.668 18.29 18.664 28.805-9.992.563-19.698.345-28.829-.735 1.551-9.515 4.767-18.772 9.763-27.381zm18.491 101.985c-18.452-15.137-28.876-37.258-29.288-60.982 11.738 1.354 23.37 1.378 35.318.482 7.408 21.214 9.705 44.408 5.973 65.943zm126.34-34.64c7.954-21.841 5.843-46.334-5.513-66.552-9.131 6.771-19.41 12.846-30.494 18.13 3.733 19.445 11.658 38.264 23.315 54.137zm140.409-103.874-48.583-39.694c-3.427-2.832-8.69-1.596-10.509 2.464-5.462 12.192-20.612 17.007-32.217 9.814-11.719-7.264-13.914-23.106-5.513-33.239 2.835-3.42 1.616-8.684-2.412-10.521l-57.14-25.98c-6.374-2.912-14.012-.603-17.745 5.369l-20.444 32.894c-4.077 6.581-2.01 15.235 4.537 19.319l18.089 11.233c.172.109.23.373.115.546l-10.452 16.843c-17.86-6.857-37.959-8.355-57.829-3.044-16.424 4.399-30.953 12.944-42.554 24.74-23.2-37.305-59.494-63.566-98.028-70.664-13.84-2.55-29.517 6.501-34.227 19.755-13.725 38.648-7.867 85.785 15.103 125.478l-42.267 33.71c-3.996 3.205-3.187 9.425 1.436 11.543l40.543 18.308v61.355c0 2.682 1.55 5.117 4.02 6.214l151.32 68.39c1.807.804 3.82.803 5.628 0l151.378-68.39c2.412-1.097 3.962-3.532 3.962-6.214v-61.355l40.544-18.308c4.673-2.113 5.397-8.367 1.436-11.543l-39.969-31.878 26.474-42.553.517-.126 18.09 11.221c6.57 4.087 15.242 2.044 19.295-4.514l20.444-32.9c3.734-5.966 2.414-13.823-3.042-18.273z" fill="#1e2f3f"/></g></svg>