<svg id="uuid-08787049-b4fc-4684-bef6-e48b3117ac70" viewBox="0 0 64 64" xmlns="http://www.w3.org/2000/svg" xmlns:xlink="http://www.w3.org/1999/xlink"><linearGradient id="uuid-7ce716e2-7f28-4336-a97a-c548d10585a0" gradientUnits="userSpaceOnUse" x1="3.856" x2="59.856" y1="31.998" y2="31.998"><stop offset="0" stop-color="#096fe0"/><stop offset=".15843" stop-color="#167ce3"/><stop offset="1" stop-color="#5ec3f6"/></linearGradient><path d="m47.77878 37.89143-4.41584-15.93995c-.1723-.64619-.62463-1.17399-1.22776-1.44324l-2.41259-1.09852-.87239.84005.377 2.36947c.57267 2.80796-2.7426 5.16014-5.21291 3.70487.00008.0001-2.10013-1.11998-2.10013-1.11998l-2.11093 1.08781c-2.50909 1.40561-5.75996-.99899-5.14813-3.8128-.00008.00009.41998-2.35859.41998-2.35859l-.74315-.74315c-1.3635.73075-3.35817 1.07451-3.72653 2.57407 0 .00003-4.39421 15.9292-4.39421 15.9292-.2262.79705.01078 1.65866.60313 2.24023l13.61361 13.16127c.43077.41999.99084.62463 1.56163.62463.57085 0 1.13093-.20464 1.5617-.62463l13.61361-13.16127c.59235-.58157.81855-1.43246.61391-2.22945zm-17.03854-9.75784c.63541-.62469 1.64781-.63541 2.29407-.01078l8.33616 7.94845c1.08586.96813.30935 2.91519-1.14172 2.86489.00007.00003-3.0802.00003-3.0802.00003l-3.62957 8.51924c-.50865 1.32115-2.53584 1.33368-3.04799-.00007 0 .00007-3.64035-8.51916-3.64035-8.51916h-3.09106c-1.44528.04933-2.23451-1.88366-1.16313-2.85416-.00008.00002 8.16379-7.94842 8.16379-7.94842zm-5.83741-11.23334c-.84033-.76737-.32093-2.29709.80772-2.41254l3.30641-.44162c.10774-.0215.20464-.08611.25854-.19386l1.49701-2.98331c.24776-.48467.73243-.81855 1.28166-.77549.54929 0 1.02319.31238 1.26017.79699l1.45396 3.01572c.04306.10768.14002.1723.24769.19386l3.30647.50617c.52773.08618.96935.46311 1.13086.98013.16158.51695.02156 1.07702-.36615 1.44318l-2.41252 2.31563c-.08618.08611-.11852.19386-.10774.31231 0 0 .53851 3.29569.53848 3.29565.21629 1.1261-1.07362 2.03946-2.06784 1.48635l-2.94026-1.59398c-.09696-.04312-.21542-.05384-.31238 0 0 0-2.97253 1.52936-2.9725 1.52931-.99896.55623-2.27895-.39432-2.03562-1.50782l.59235-3.29569c.02156-.11846-.02156-.22613-.09696-.31231 0 0-2.3694-2.35869-2.36935-2.35867zm2.26168 19.88188h-2.21867l6.94682-6.77453 7.09756 6.77453h-2.16483c-.66775 0-1.2601.39849-1.52936 1.01241l-3.30647 7.75452-3.30647-7.75452c-.25848-.61391-.86161-1.01241-1.51858-1.01241zm-20.65732-8.40078c-2.35869-2.69256-2.68178-5.75134-2.6495-7.45306l13.46281 4.85739-1.16314 4.2112c-2.92954-.64625-7.15146-1.40018-9.65016-1.61554zm2.19711 8.60542c-2.85408-1.60476-3.78037-5.01897-4.04962-6.52681 3.10679.02774 7.23056.85644 10.93182 1.61558l-1.31394 4.76043zm10.45793 8.40078h-.14002c-4.14652 0-8.30388-2.44487-10.28557-6.25751 1.30229-.03535 3.95837-.10139 5.26666-.14002.10768 1.00162.56001 1.94941 1.31394 2.68178.81855.7882 2.99541 2.89698 3.84499 3.71575zm28.64883-15.45534-1.17392-4.2327 13.21505-4.77121c.04312 1.69094-.29075 4.74972-2.63866 7.45306-2.42331.20457-6.48371.92623-9.40247 1.55085zm11.25492.5278c-.28004 1.5078-1.19548 4.92201-4.0065 6.51599-.40858-.01704-4.79921-.12097-5.34207-.14003l-1.3355-4.81433c2.96182-.64619 7.1299-1.36778 9.33778-1.51858.45645-.01509.92107-.04541 1.34628-.04306zm-4.09268 8.67003c-1.96019 3.76959-6.04209 6.19289-10.13484 6.24673 0 0 2.67107-2.5956 2.67097-2.59565 1.09769-.98546 2.37883-2.22121 2.45568-3.78032 1.24864.03098 3.76016.09718 5.00819.12924z" fill="url(#uuid-7ce716e2-7f28-4336-a97a-c548d10585a0)"/></svg>