<svg id="Layer_2_00000013186883563594168630000008028818995954088115_" enable-background="new 0 0 512 512" height="512" viewBox="0 0 512 512" width="512" xmlns="http://www.w3.org/2000/svg" xmlns:xlink="http://www.w3.org/1999/xlink"><linearGradient id="_65_00000127023581905361302210000004553578437302242743_" gradientTransform="matrix(1 0 0 -1 0 514)" gradientUnits="userSpaceOnUse" x1="67.126" x2="319.539" y1="384.206" y2="131.794"><stop offset="0" stop-color="#2492ff"/><stop offset="1" stop-color="#0043ae"/></linearGradient><g id="Icon"><path id="_65" d="m210.7 361h-57.5c-1.4 0-2.5-1.1-2.5-2.5v-205c0-1.4 1.1-2.5 2.5-2.5h57.5c19.3 0 35-15.7 35-35s-15.7-35-35-35h-70c-33.1 0-60 26.9-60 60v230c0 33.1 26.9 60 60 60h70c19.3 0 35-15.7 35-35s-15.7-35-35-35zm25 35c0 13.8-11.2 25-25 25h-70c-27.6 0-50-22.4-50-50v-230c0-27.6 22.4-50 50-50h70c13.8 0 25 11.2 25 25 0 13.8-11.2 25-25 25h-57.5c-6.9 0-12.5 5.6-12.5 12.5v205c0 6.9 5.6 12.5 12.5 12.5h57.5c13.8 0 25 11.2 25 25zm160.6-175h-105.4l30.5-30.5c13.6-13.7 13.6-35.9 0-49.5-6.6-6.6-15.4-10.2-24.8-10.2s-18.1 3.6-24.8 10.2l-90.2 90.2c-6.6 6.6-10.2 15.4-10.2 24.8s3.6 18.1 10.2 24.8l90.2 90.2c6.6 6.6 15.4 10.2 24.8 10.2 9.3 0 18.1-3.6 24.8-10.2 13.6-13.6 13.6-35.9 0-49.5l-30.5-30.5h105.4c19.3 0 35-15.7 35-35s-15.7-35-35-35zm25 35c0 13.8-11.2 25-25 25h-129.5l47.5 47.5c9.8 9.8 9.8 25.6 0 35.4-9.8 9.8-25.6 9.8-35.4 0l-90.2-90.2c-9.8-9.8-9.8-25.6 0-35.4l90.2-90.2c9.8-9.8 25.6-9.8 35.4 0 9.8 9.8 9.8 25.6 0 35.4l-47.5 47.5h129.5c13.8 0 25 11.2 25 25z" fill="url(#_65_00000127023581905361302210000004553578437302242743_)"/></g></svg>