<svg height="512" viewBox="0 0 512 512" width="512" xmlns="http://www.w3.org/2000/svg" xmlns:xlink="http://www.w3.org/1999/xlink"><linearGradient id="linear-gradient" gradientUnits="userSpaceOnUse" x1="256" x2="256" y1="508.94" y2="7.49"><stop offset="0" stop-color="#fdae3e"/><stop offset="1" stop-color="#ff0749"/></linearGradient><linearGradient id="linear-gradient-2" x1="256" x2="256" xlink:href="#linear-gradient" y1="19.37" y2="489.18"/><g id="Layer_2" data-name="Layer 2"><g id="switch"><path d="m256 512a256 256 0 0 1 -181-437 256 256 0 0 1 362 362 254.33 254.33 0 0 1 -181 75z" fill="url(#linear-gradient)"/><circle id="background" cx="256" cy="256" fill="url(#linear-gradient-2)" r="236"/><g fill="#fff"><rect height="134.46" rx="26.16" width="52.31" x="229.84" y="116"/><path d="m304 178.56a22.93 22.93 0 0 0 6.18 26.07 82.85 82.85 0 1 1 -108.49.13 23.1 23.1 0 0 0 6.31-26.21c-5.93-14.43-24.3-19-36.11-8.8a128.75 128.75 0 1 0 168.34.11 23 23 0 0 0 -36.23 8.7z"/></g></g></g></svg>