<svg id="Layer_1" enable-background="new 0 0 512 512" height="512" viewBox="0 0 512 512" width="512" xmlns="http://www.w3.org/2000/svg"><g clip-rule="evenodd" fill-rule="evenodd"><g><path d="m18.74 87.636h474.52c10.318 0 18.737 8.419 18.737 18.737v299.254c0 10.29-8.419 18.737-18.737 18.737h-474.52c-10.318 0-18.737-8.447-18.737-18.737v-299.254c0-10.318 8.419-18.737 18.737-18.737z" fill="#ffb229"/><path d="m18.74 87.636h474.52c10.318 0 18.737 8.419 18.737 18.737v44.249l-211.125 149.783c-27.213 19.304-62.532 19.304-89.745 0l-211.124-149.783v-44.249c0-10.318 8.419-18.737 18.737-18.737z" fill="#e6a025"/><path d="m.003 392.162 191.934-136.176-191.934-136.177z" fill="#ff9800"/><path d="m511.997 392.162-191.934-136.176 191.934-136.177z" fill="#ff9800"/><path d="m341.776 271.378-21.713-15.392 191.934-136.177v30.813z" fill="#e68900"/><path d="m18.74 87.636h474.52c10.318 0 18.737 8.419 18.737 18.737v13.436l-225.666 160.101c-18.482 13.124-42.179 13.124-60.661 0l-225.667-160.101v-13.436c0-10.318 8.419-18.737 18.737-18.737z" fill="#ffd54f"/><path d="m170.252 271.378 21.685-15.392-191.934-136.177v30.813z" fill="#e68900"/></g><g><path d="m18.737 87.634h474.526c10.318 0 18.737 8.419 18.737 18.737v299.257c0 10.29-8.419 18.737-18.737 18.737h-474.526c-10.318.001-18.737-8.446-18.737-18.736v-299.258c0-10.318 8.419-18.737 18.737-18.737z" fill="#ffb229"/><path d="m18.737 87.634h474.526c10.318 0 18.737 8.419 18.737 18.737v44.249l-211.127 149.785c-27.213 19.304-62.533 19.304-89.746 0l-211.127-149.784v-44.249c0-10.319 8.419-18.738 18.737-18.738z" fill="#e6a025"/><path d="m0 392.164 191.936-136.178-191.936-136.178z" fill="#ff9800"/><path d="m512 392.164-191.936-136.178 191.936-136.178z" fill="#ff9800"/><path d="m341.777 271.378-21.713-15.392 191.936-136.178v30.813z" fill="#e68900"/><path d="m18.737 87.634h474.526c10.318 0 18.737 8.419 18.737 18.737v13.436l-225.669 160.104c-18.482 13.125-42.18 13.125-60.662 0l-225.669-160.103v-13.436c0-10.319 8.419-18.738 18.737-18.738z" fill="#ffd54f"/><path d="m170.251 271.378 21.685-15.392-191.936-136.178v30.813z" fill="#e68900"/></g></g></svg>