<svg version="1.1" id="Capa_1" xmlns="http://www.w3.org/2000/svg" xmlns:xlink="http://www.w3.org/1999/xlink" x="0px" y="0px" viewBox="0 0 512 512" style="enable-background:new 0 0 512 512;" xml:space="preserve">
<g>
	<g>
		<g>
			<path style="fill:#FED2A4;" d="M316.662,50.496l-134.714,56.921c-3.079,1.301-6.388,1.971-9.73,1.971H32.5&#10;&#9;&#9;&#9;&#9;c-13.807,0-25,11.193-25,25v301.159c0,13.807,11.193,25,25,25h150.449c4.68,0,9.312-0.938,13.622-2.76l125.929-53.209&#10;&#9;&#9;&#9;&#9;c3.732-1.577,7.944-1.577,11.676,0l135.592,57.292c16.482,6.964,34.73-5.136,34.73-23.029V136.574&#10;&#9;&#9;&#9;&#9;c0-10.047-6.015-19.118-15.27-23.029L340.015,50.497C332.551,47.342,324.127,47.342,316.662,50.496z"/>
			<path style="fill:#FED2A4;" d="M316.662,50.496l-134.714,56.921c-3.079,1.301-6.388,1.971-9.73,1.971H32.5&#10;&#9;&#9;&#9;&#9;c-13.807,0-25,11.193-25,25v301.159c0,13.807,11.193,25,25,25h150.449c4.68,0,9.312-0.938,13.622-2.76l125.929-53.209&#10;&#9;&#9;&#9;&#9;c3.732-1.577,7.944-1.577,11.676,0l135.592,57.292c16.482,6.964,34.73-5.136,34.73-23.029V136.574&#10;&#9;&#9;&#9;&#9;c0-10.047-6.015-19.118-15.27-23.029L340.015,50.497C332.551,47.342,324.127,47.342,316.662,50.496z"/>
			<path style="fill:#FED2A4;" d="M316.662,50.496l-134.714,56.921c-3.079,1.301-6.388,1.971-9.73,1.971H32.5&#10;&#9;&#9;&#9;&#9;c-13.807,0-25,11.193-25,25v301.159c0,13.807,11.193,25,25,25h150.449c4.68,0,9.312-0.938,13.622-2.76l125.929-53.209&#10;&#9;&#9;&#9;&#9;c3.732-1.577,7.944-1.577,11.676,0l135.592,57.292c16.482,6.964,34.73-5.136,34.73-23.029V136.574&#10;&#9;&#9;&#9;&#9;c0-10.047-6.015-19.118-15.27-23.029L340.015,50.497C332.551,47.342,324.127,47.342,316.662,50.496z"/>
			<path style="fill:#FFBD86;" d="M489.23,113.545L442,93.702v286.079c0,3.579-3.65,5.999-6.946,4.606l-106.715-45.091L183.661,398&#10;&#9;&#9;&#9;&#9;H7.5v37.548c0,13.807,11.193,25,25,25h150.449c4.68,0,9.312-0.938,13.622-2.76l125.929-53.209c3.732-1.577,7.944-1.577,11.676,0&#10;&#9;&#9;&#9;&#9;l135.592,57.292c16.482,6.964,34.73-5.136,34.73-23.029V136.574C504.5,126.526,498.485,117.455,489.23,113.545z"/>
			<polygon style="fill:#A2E62E;" points="183.661,140.873 328.339,79.742 328.339,367.932 183.661,429.064 &#9;&#9;&#9;"/>
			<polygon style="fill:#97D729;" points="183.661,429.064 328.339,367.932 328.339,339.296 183.661,398 &#9;&#9;&#9;"/>
			<path style="fill:#97D729;" d="M43.984,140.873h139.677v288.19H43.984c-2.761,0-5-2.239-5-5v-278.19&#10;&#9;&#9;&#9;&#9;C38.984,143.112,41.223,140.873,43.984,140.873z"/>
			<path style="fill:#8BC727;" d="M38.984,424.064c0,2.761,2.239,5,5,5h139.677V398H38.984V424.064z"/>
			<path style="fill:#97D729;" d="M328.339,79.742l141.623,59.841c1.851,0.782,3.054,2.596,3.054,4.606v277.334&#10;&#9;&#9;&#9;&#9;c0,3.579-3.65,5.999-6.946,4.606l-137.731-58.196V79.742z"/>
			<path style="fill:#8BC727;" d="M469.962,139.583L442,127.768v252.013c0,3.579-3.65,5.999-6.946,4.606l-106.715-45.091v28.637&#10;&#9;&#9;&#9;&#9;l137.731,58.196c3.296,1.393,6.946-1.027,6.946-4.606V144.189C473.016,142.179,471.813,140.365,469.962,139.583z"/>
			<path style="fill:#22B27F;" d="M413.946,342.989c-3.296-1.393-6.946,1.027-6.946,4.606v53.574l59.07,24.959&#10;&#9;&#9;&#9;&#9;c3.296,1.393,6.946-1.027,6.946-4.606v-53.574L413.946,342.989z"/>
			<path style="fill:#09A76D;" d="M442,354.843v24.938c0,3.579-3.65,5.999-6.946,4.606L407,372.533v28.637l59.07,24.959&#10;&#9;&#9;&#9;&#9;c3.296,1.393,6.946-1.027,6.946-4.606v-53.574L442,354.843z"/>
			<g>
				<path style="fill:#FE646F;" d="M111.323,91.054c-0.569,0-1.136,0.01-1.701,0.029c-33.988,1.148-54.003,38.845-36.805,68.183&#10;&#9;&#9;&#9;&#9;&#9;l34.193,58.329c1.932,3.295,6.695,3.295,8.627,0l34.193-58.329c17.198-29.338-2.817-67.035-36.805-68.183&#10;&#9;&#9;&#9;&#9;&#9;C112.459,91.064,111.892,91.054,111.323,91.054z"/>
				<path style="fill:#FD4755;" d="M113.024,91.083c-0.565-0.019-1.132-0.029-1.701-0.029c-0.569,0-1.136,0.01-1.701,0.029&#10;&#9;&#9;&#9;&#9;&#9;c-4.941,0.167-9.576,1.126-13.855,2.701c25.154,9.252,37.647,40.41,22.95,65.482l-22.95,39.149l11.243,19.179&#10;&#9;&#9;&#9;&#9;&#9;c1.932,3.295,6.695,3.295,8.627,0l34.193-58.329C167.027,129.928,147.012,92.231,113.024,91.083z"/>
				<circle style="fill:#FFFFFF;" cx="111.323" cy="135.19" r="17.018"/>
			</g>
		</g>
		
			<ellipse transform="matrix(0.5 -0.866 0.866 0.5 -70.9255 311.9546)" style="fill:#22B27F;" cx="234.698" cy="217.401" rx="21.239" ry="17.05"/>
		<path style="fill:#22B27F;" d="M291.058,377.97c-3.891-14.94-18.713-21.148-33.107-13.867&#10;&#9;&#9;&#9;c-14.393,7.281-22.907,25.294-19.016,40.234c0.108,0.415,0.228,0.821,0.353,1.223l52.631-22.239&#10;&#9;&#9;&#9;C291.792,381.51,291.513,379.719,291.058,377.97z"/>
	</g>
	<g>
		<path style="fill:none;stroke:#000000;stroke-width:15;stroke-linecap:round;stroke-linejoin:round;stroke-miterlimit:10;" d="&#10;&#9;&#9;&#9;M330.231,133.887l-34.39,16.844c-5.142,2.519-8.402,7.745-8.402,13.471v118.609c0,6.155-3.76,11.685-9.483,13.949l-94.294,37.295"/>
		<g>
			
				<line style="fill:none;stroke:#000000;stroke-width:15;stroke-linecap:round;stroke-linejoin:round;stroke-miterlimit:10;" x1="413" y1="264.966" x2="377" y2="286.054"/>
			
				<line style="fill:none;stroke:#000000;stroke-width:15;stroke-linecap:round;stroke-linejoin:round;stroke-miterlimit:10;" x1="377" y1="250.054" x2="413" y2="300.966"/>
		</g>
		<g>
			
				<polyline style="fill:none;stroke:#000000;stroke-width:15;stroke-linecap:round;stroke-linejoin:round;stroke-miterlimit:10;" points="&#10;&#9;&#9;&#9;&#9;97.323,386.054 82.323,370.05 67.323,386.054 &#9;&#9;&#9;"/>
			
				<polyline style="fill:none;stroke:#000000;stroke-width:15;stroke-linecap:round;stroke-linejoin:round;stroke-miterlimit:10;" points="&#10;&#9;&#9;&#9;&#9;155.323,386.054 140.323,370.05 125.323,386.054 &#9;&#9;&#9;"/>
		</g>
		<g>
			<g>
				
					<line style="fill:none;stroke:#000000;stroke-width:15;stroke-linecap:round;stroke-linejoin:round;" x1="183.661" y1="334.054" x2="178.661" y2="334.054"/>
				
					<line style="fill:none;stroke:#000000;stroke-width:15;stroke-linecap:round;stroke-linejoin:round;stroke-dasharray:8.9055,26.7166;" x1="151.945" y1="334.054" x2="129.681" y2="334.054"/>
				<polyline style="fill:none;stroke:#000000;stroke-width:15;stroke-linecap:round;stroke-linejoin:round;" points="&#10;&#9;&#9;&#9;&#9;&#9;116.323,334.054 111.323,334.054 111.323,329.054 &#9;&#9;&#9;&#9;"/>
				
					<line style="fill:none;stroke:#000000;stroke-width:15;stroke-linecap:round;stroke-linejoin:round;stroke-dasharray:9.5714,28.7143;" x1="111.323" y1="300.34" x2="111.323" y2="276.412"/>
				
					<line style="fill:none;stroke:#000000;stroke-width:15;stroke-linecap:round;stroke-linejoin:round;" x1="111.323" y1="262.054" x2="111.323" y2="257.054"/>
			</g>
		</g>
		
			<polyline style="fill:none;stroke:#000000;stroke-width:15;stroke-linecap:round;stroke-linejoin:round;stroke-miterlimit:10;stroke-dasharray:10,30;" points="&#10;&#9;&#9;&#9;400.677,227.054 400.677,167.072 330.231,133.887 &#9;&#9;"/>
		<path style="fill:none;stroke:#000000;stroke-width:15;stroke-linecap:round;stroke-linejoin:round;stroke-miterlimit:10;" d="&#10;&#9;&#9;&#9;M75.304,109.389H32.5c-13.807,0-25,11.193-25,25v301.159c0,13.807,11.193,25,25,25h150.449c4.68,0,9.312-0.938,13.622-2.76&#10;&#9;&#9;&#9;l53.335-22.536"/>
		<path style="fill:none;stroke:#000000;stroke-width:15;stroke-linecap:round;stroke-linejoin:round;stroke-miterlimit:10;" d="&#10;&#9;&#9;&#9;M413.523,81.556l-73.508-31.059c-7.465-3.154-15.888-3.154-23.353,0l-134.714,56.921c-3.079,1.301-6.388,1.971-9.73,1.971h-24.876&#10;&#9;&#9;&#9;"/>
		<path style="fill:none;stroke:#000000;stroke-width:15;stroke-linecap:round;stroke-linejoin:round;stroke-miterlimit:10;" d="&#10;&#9;&#9;&#9;M282.253,421.585l40.248-17.006c3.732-1.577,7.944-1.577,11.676,0l135.592,57.292c16.482,6.964,34.73-5.136,34.73-23.029V136.574&#10;&#9;&#9;&#9;c0-10.047-6.015-19.118-15.27-23.029l-43.466-18.366"/>
		
			<polygon style="fill:none;stroke:#000000;stroke-width:15;stroke-linecap:round;stroke-linejoin:round;stroke-miterlimit:10;" points="&#10;&#9;&#9;&#9;183.661,140.873 328.339,79.742 328.339,367.932 183.661,429.064 &#9;&#9;"/>
		<path style="fill:none;stroke:#000000;stroke-width:15;stroke-linecap:round;stroke-linejoin:round;stroke-miterlimit:10;" d="&#10;&#9;&#9;&#9;M66.786,140.873H43.984c-2.761,0-5,2.239-5,5V311"/>
		<path style="fill:none;stroke:#000000;stroke-width:15;stroke-linecap:round;stroke-linejoin:round;stroke-miterlimit:10;" d="&#10;&#9;&#9;&#9;M38.984,346v78.064c0,2.761,2.239,5,5,5h139.677v-288.19H155.86"/>
		<path style="fill:none;stroke:#000000;stroke-width:15;stroke-linecap:round;stroke-linejoin:round;stroke-miterlimit:10;" d="&#10;&#9;&#9;&#9;M328.339,79.742l141.623,59.841c1.851,0.782,3.054,2.596,3.054,4.606v277.334c0,3.579-3.65,5.999-6.946,4.606l-137.731-58.196&#10;&#9;&#9;&#9;V79.742z"/>
		<path style="fill:none;stroke:#000000;stroke-width:15;stroke-linejoin:round;stroke-miterlimit:10;" d="M473.016,367.948&#10;&#9;&#9;&#9;l-59.07-24.959c-3.296-1.393-6.946,1.027-6.946,4.606v53.574"/>
		<g>
			<path style="fill:none;stroke:#000000;stroke-width:15;stroke-linecap:round;stroke-linejoin:round;stroke-miterlimit:10;" d="&#10;&#9;&#9;&#9;&#9;M111.323,91.054c-0.569,0-1.136,0.01-1.701,0.029c-33.988,1.148-54.003,38.845-36.805,68.183l34.193,58.329&#10;&#9;&#9;&#9;&#9;c1.932,3.295,6.695,3.295,8.627,0l34.193-58.329c17.198-29.338-2.817-67.035-36.805-68.183&#10;&#9;&#9;&#9;&#9;C112.459,91.064,111.892,91.054,111.323,91.054z"/>
			
				<circle style="fill:none;stroke:#000000;stroke-width:15;stroke-linecap:round;stroke-linejoin:round;stroke-miterlimit:10;" cx="111.323" cy="135.19" r="17.018"/>
		</g>
		
			<ellipse transform="matrix(0.5 -0.866 0.866 0.5 -70.9255 311.9546)" style="fill:none;stroke:#000000;stroke-width:15;stroke-linecap:round;stroke-linejoin:round;stroke-miterlimit:10;" cx="234.698" cy="217.401" rx="21.239" ry="17.05"/>
		<path style="fill:none;stroke:#000000;stroke-width:15;stroke-linejoin:round;stroke-miterlimit:10;" d="M291.918,383.321&#10;&#9;&#9;&#9;c-0.126-1.811-0.405-3.603-0.86-5.352c-3.891-14.94-18.713-21.148-33.107-13.867c-14.393,7.281-22.907,25.294-19.016,40.234&#10;&#9;&#9;&#9;c0.108,0.415,0.228,0.821,0.353,1.223"/>
	</g>
</g>
<g>
</g>
<g>
</g>
<g>
</g>
<g>
</g>
<g>
</g>
<g>
</g>
<g>
</g>
<g>
</g>
<g>
</g>
<g>
</g>
<g>
</g>
<g>
</g>
<g>
</g>
<g>
</g>
<g>
</g>
</svg>