<svg id="Member_Card" enable-background="new 0 0 64 64" viewBox="0 0 64 64" xmlns="http://www.w3.org/2000/svg"><g><path d="m5.87106 54.46462h52.26674c3.23761 0 5.8622-2.6246 5.8622-5.8622v-33.20089c0-3.23761-2.6246-5.8622-5.8622-5.8622h-52.26674c-3.2376 0-5.8622 2.6246-5.8622 5.8622v33.20088c0 3.23761 2.6246 5.86221 5.8622 5.86221z" fill="#5950d3"/><path d="m21.76157 21.40623 2.90145 4.8903 5.54756 1.24826c1.69184.38068 2.35894 2.43381 1.21397 3.73623l-3.75436 4.27063.52712 5.66177c.16076 1.72667-1.58573 2.99557-3.17822 2.30911l-5.22178-2.25091-5.22177 2.25091c-1.59249.68646-3.33898-.58244-3.17822-2.30911l.52712-5.66177-3.75436-4.27063c-1.14497-1.30242-.47787-3.35554 1.21397-3.73623l5.54755-1.24826 2.90145-4.8903c.88488-1.4914 3.04367-1.4914 3.92852 0z" fill="#ffdc6e"/><path d="m54.45104 29.64779h-12.42763c-1.07655 0-1.94926-.87271-1.94926-1.94926v-5.4616c0-1.07655.87271-1.94926 1.94926-1.94926h12.42764c1.07655 0 1.94926.87271 1.94926 1.94926v5.4616c-.00001 1.07655-.87272 1.94926-1.94927 1.94926z" fill="#f0f0fc"/><path d="m35.24992 54.45718h-29.38109c-3.23605 0-5.86883-2.61449-5.86883-5.85064v-33.20222c0-3.23616 2.63278-5.86894 5.86883-5.86894h18.08209c-4.91818 4.88169-7.95314 11.64638-7.95314 19.12425 0 12.19485 8.11774 22.5066 19.25214 25.79755z" opacity=".1"/><g fill="#f0f0fc"><path d="m56.39968 37.97634h-16.325c-.50536 0-.91428-.40893-.91428-.91429s.40893-.91428.91428-.91428h16.325c.50536 0 .91429.40893.91429.91428 0 .50536-.40893.91429-.91429.91429z"/><path d="m56.39968 44.62634h-16.325c-.50536 0-.91428-.40893-.91428-.91429s.40893-.91428.91428-.91428h16.325c.50536 0 .91429.40893.91429.91428s-.40893.91429-.91429.91429z"/></g></g></svg>