<?xml version="1.0" encoding="UTF-8" standalone="no"?>
<!-- Created with Inkscape (http://www.inkscape.org/) -->

<svg
   version="1.1"
   id="svg3438"
   xml:space="preserve"
   width="682.66669"
   height="682.66669"
   viewBox="0 0 682.66669 682.66669"
   xmlns="http://www.w3.org/2000/svg"
   xmlns:svg="http://www.w3.org/2000/svg"><defs
     id="defs3442"><clipPath
       clipPathUnits="userSpaceOnUse"
       id="clipPath3452"><path
         d="M 0,512 H 512 V 0 H 0 Z"
         id="path3450" /></clipPath></defs><g
     id="g3444"
     transform="matrix(1.3333333,0,0,-1.3333333,0,682.66667)"><g
       id="g3446"><g
         id="g3448"
         clip-path="url(#clipPath3452)"><g
           id="g3454"
           transform="translate(220.4033,25.0552)"><path
             d="m 0,0 -156.729,122.351 c -7.427,5.798 -8.731,16.521 -2.911,23.941 L 96.547,472.901 c 5.811,7.41 16.529,8.723 23.947,2.932 L 277.223,353.482 c 7.427,-5.798 8.731,-16.521 2.911,-23.941 L 23.947,2.932 C 18.135,-4.478 7.417,-5.79 0,0"
             style="fill:#57ad7b;fill-opacity:1;fill-rule:nonzero;stroke:none"
             id="path3456" /></g><g
           id="g3458"
           transform="translate(121.4492,15.0479)"><path
             d="m 0,0 -110.725,164.994 c -5.25,7.822 -3.152,18.423 4.684,23.669 l 345.134,231.069 c 7.827,5.241 18.418,3.155 23.662,-4.659 L 373.479,250.08 c 5.25,-7.823 3.152,-18.423 -4.684,-23.669 L 23.661,-4.659 C 15.834,-9.899 5.244,-7.814 0,0"
             style="fill:#81cda1;fill-opacity:1;fill-rule:nonzero;stroke:none"
             id="path3460" /></g><g
           id="g3462"
           transform="translate(494.9287,265.1279)"><path
             d="m 0,0 -110.726,164.993 c -5.243,7.814 -15.834,9.9 -23.66,4.659 L -147.817,160.66 -40,0 c 5.249,-7.823 3.151,-18.423 -4.685,-23.67 l -331.703,-222.077 2.909,-4.333 c 5.244,-7.814 15.833,-9.899 23.661,-4.659 L -4.685,-23.67 C 3.151,-18.423 5.249,-7.823 0,0"
             style="fill:#60bf88;fill-opacity:1;fill-rule:nonzero;stroke:none"
             id="path3464" /></g><g
           id="g3466"
           transform="translate(303.5166,147.0503)"><path
             d="m 0,0 c -41.76,-27.958 -98.308,-16.806 -126.303,24.911 -27.996,41.716 -16.837,98.199 24.923,126.158 41.76,27.958 98.308,16.805 126.303,-24.911 C 52.918,84.441 41.76,27.958 0,0"
             style="fill:#29795d;fill-opacity:1;fill-rule:nonzero;stroke:none"
             id="path3468" /></g><g
           id="g3470"
           transform="translate(62.6387,235.332)"><path
             d="m 0,0 c 22.741,-33.888 13.678,-79.77 -20.245,-102.481 l -31.684,47.212 c -5.243,7.813 -3.139,18.4 4.698,23.647 z"
             style="fill:#29795d;fill-opacity:1;fill-rule:nonzero;stroke:none"
             id="path3472" /></g><g
           id="g3474"
           transform="translate(89.8516,62.1318)"><path
             d="M 0,0 C 33.995,22.759 79.949,13.797 102.643,-20.019 L 55.281,-51.728 c -7.838,-5.247 -18.441,-3.168 -23.684,4.645 z"
             style="fill:#29795d;fill-opacity:1;fill-rule:nonzero;stroke:none"
             id="path3476" /></g><g
           id="g3478"
           transform="translate(443.0361,209.8047)"><path
             d="M 0,0 C -22.741,33.888 -13.678,79.77 20.245,102.481 L 51.929,55.269 c 5.243,-7.813 3.139,-18.4 -4.698,-23.647 z"
             style="fill:#29795d;fill-opacity:1;fill-rule:nonzero;stroke:none"
             id="path3480" /></g><g
           id="g3482"
           transform="translate(415.8232,383.0049)"><path
             d="m 0,0 c -33.995,-22.759 -79.949,-13.797 -102.643,20.019 l 47.362,31.709 c 7.838,5.247 18.441,3.168 23.684,-4.645 z"
             style="fill:#29795d;fill-opacity:1;fill-rule:nonzero;stroke:none"
             id="path3484" /></g><g
           id="g3486"
           transform="translate(364.7139,428.5005)"><path
             d="m 0,0 c 4.396,2.941 10.353,1.777 13.285,-2.592 l 13.738,-20.472 13.442,-20.029 c -27.443,-14.226 -61.318,-7.638 -81.234,15.798 z M 129.922,-69.276 100.916,-106.255 25.718,5.8 C 18.182,17.03 2.9,20.04 -8.345,12.511 l -66.45,-44.488 c -8.058,-5.397 0.286,-17.856 8.346,-12.465 l 13.128,8.79 c 15.815,-19.455 39.293,-29.894 63.183,-29.894 13.289,0 26.702,3.242 38.997,9.944 l 39.494,-58.849 c -14.763,-11.951 -24.795,-28.517 -28.517,-47.371 -3.718,-18.832 -0.744,-37.943 8.347,-54.588 l -112.1,-75.052 c -0.012,-0.008 -0.023,-0.015 -0.035,-0.023 l -126.515,-84.703 c -24.616,30.249 -67.759,38.665 -102.143,19.924 l -39.494,58.85 c 14.761,11.952 24.793,28.518 28.515,47.372 3.721,18.845 0.739,37.969 -8.367,54.623 l 190.666,127.651 c 8.058,5.396 -0.287,17.859 -8.346,12.465 l -55.713,-37.301 123.487,157.432 c 3.254,4.148 9.278,4.889 13.43,1.648 L 128.297,-55.875 c 2.009,-1.568 3.284,-3.823 3.593,-6.352 0.309,-2.533 -0.39,-5.037 -1.968,-7.049 m -55.37,-95.451 c 2.945,14.921 10.732,28.093 22.194,37.768 l 27.252,-40.61 c 1.411,-2.113 1.918,-4.649 1.425,-7.144 -0.495,-2.508 -1.939,-4.673 -4.066,-6.097 l -40.654,-27.218 c -6.904,13.285 -9.092,28.402 -6.151,43.301 m -200.817,-231.157 c -3.255,-4.15 -9.28,-4.89 -13.43,-1.649 l -16.478,12.863 81.508,54.57 z m -97.503,-15.989 c -4.392,-2.929 -10.34,-1.764 -13.27,2.601 l -0.328,0.489 -26.852,40.012 c 27.442,14.227 61.317,7.639 81.234,-15.797 z m -74.537,164.735 c -2.945,-14.921 -10.732,-28.092 -22.194,-37.767 l -23.823,35.5 -3.441,5.127 c -1.419,2.115 -1.929,4.658 -1.435,7.159 0.433,2.194 1.592,4.126 3.299,5.528 0.244,0.2 0.5,0.39 0.765,0.568 l 13.461,9.012 27.199,18.211 c 6.919,-13.294 9.113,-28.424 6.169,-43.338 m 445.084,186.729 c -0.794,6.511 -4.08,12.321 -9.252,16.358 L -19.202,78.3 c -10.653,8.317 -26.114,6.428 -34.463,-4.215 l -151.832,-193.568 -100.744,-67.449 c -0.002,-0.002 -0.005,-0.003 -0.007,-0.004 l -27.81,-18.619 -19.421,-13.003 c -0.341,-0.229 -0.676,-0.465 -1.004,-0.708 -4.913,-3.649 -8.247,-8.915 -9.44,-14.954 -1.267,-6.427 0.043,-12.96 3.692,-18.396 l 0.012,-0.019 c 10e-4,-0.001 10e-4,-0.002 0.002,-0.003 l 23.521,-35.049 8.148,-12.142 v -10e-4 l 47.457,-70.716 c 0,-0.001 0.001,-0.001 0.001,-0.002 l 7.873,-11.731 23.725,-35.353 c 4.729,-7.047 12.509,-10.858 20.427,-10.857 4.698,0 9.446,1.342 13.634,4.145 l 0.016,0.011 c 0.002,0.001 0.004,0.002 0.007,0.004 l 46.113,30.873 20.369,-15.901 c 4.476,-3.494 9.798,-5.186 15.085,-5.186 7.302,0 14.537,3.228 19.379,9.401 l 79.945,101.922 116.552,78.032 c 0.153,0.087 0.312,0.16 0.46,0.26 l 47.232,31.622 c 5.462,3.658 9.171,9.22 10.443,15.662 1.267,6.427 -0.043,12.96 -3.691,18.396 l -0.027,0.039 c -0.003,0.005 -0.006,0.01 -0.01,0.016 l -26.736,39.84 32.019,40.82 c 4.054,5.17 5.85,11.606 5.054,18.124"
             style="fill:#060606;fill-opacity:1;fill-rule:nonzero;stroke:none"
             id="path3488" /></g><g
           id="g3490"
           transform="translate(197.9639,304.3516)"><path
             d="m 0,0 c -21.867,-14.641 -36.715,-36.913 -41.808,-62.715 -5.09,-25.79 0.176,-52.019 14.83,-73.854 14.706,-21.913 37.08,-36.762 63,-41.809 9.222,-1.794 12.226,12.9 2.868,14.723 -21.977,4.28 -40.946,16.867 -53.412,35.444 -12.42,18.506 -16.884,40.735 -12.57,62.592 4.317,21.867 16.902,40.744 35.438,53.155 38.259,25.616 90.254,15.36 115.902,-22.859 12.42,-18.507 16.883,-40.736 12.569,-62.593 -4.317,-21.867 -16.902,-40.744 -35.437,-53.153 -7.295,-4.885 -15.232,-8.569 -23.59,-10.952 -9.326,-2.658 -5.213,-17.082 4.113,-14.425 9.865,2.812 19.225,7.156 27.823,12.912 21.867,14.641 36.714,36.912 41.807,62.713 5.091,25.791 -0.176,52.02 -14.83,73.857 C 106.45,18.115 45.129,30.212 0,0"
             style="fill:#060606;fill-opacity:1;fill-rule:nonzero;stroke:none"
             id="path3492" /></g><g
           id="g3494"
           transform="translate(367.0488,291.5518)"><path
             d="m 0,0 c 1.435,0 2.885,0.411 4.166,1.269 l 35.307,23.637 c 3.441,2.305 4.363,6.963 2.059,10.405 -2.304,3.442 -6.964,4.363 -10.405,2.06 L -4.18,13.733 C -7.621,11.429 -8.543,6.771 -6.239,3.329 -4.793,1.168 -2.419,0 0,0"
             style="fill:#060606;fill-opacity:1;fill-rule:nonzero;stroke:none"
             id="path3496" /></g><g
           id="g3498"
           transform="translate(134.4375,152.3481)"><path
             d="m 0,0 -35.306,-23.638 c -3.441,-2.304 -4.363,-6.962 -2.059,-10.404 1.447,-2.161 3.82,-3.329 6.239,-3.329 1.435,0 2.885,0.412 4.166,1.269 l 35.306,23.638 c 3.441,2.304 4.363,6.963 2.059,10.404 C 8.099,1.382 3.441,2.305 0,0"
             style="fill:#060606;fill-opacity:1;fill-rule:nonzero;stroke:none"
             id="path3500" /></g><g
           id="g3502"
           transform="translate(261.7646,222.5591)"><path
             d="m 0,0 c 12.344,3.164 17.423,-5.735 18.687,-8.538 2.373,-5.258 2.55,-12.393 -1.319,-18.267 L -0.53,-0.134 C -0.351,-0.088 -0.181,-0.046 0,0 m -31.012,10.289 c -3.108,0.229 -6.197,2.903 -7.869,6.813 -1.434,3.354 -1.934,8.143 0.495,12.255 l 12.764,-19.018 c -1.923,-0.14 -3.739,-0.172 -5.39,-0.05 M 17.7,-54.218 c 5.654,-8.426 17.694,0.554 12.455,8.359 l -4.041,6.021 C 36.929,-28.694 37.28,-13.274 32.36,-2.369 24.237,15.633 7.533,17.119 -9.426,13.122 L -26.44,38.476 c 4.273,1.388 7.604,1.026 7.933,0.986 9.548,-1.377 11.754,13.361 2.214,14.835 -0.519,0.079 -9.023,1.288 -18.697,-3.081 l -3.3,4.917 c -5.404,8.052 -17.859,-0.306 -12.455,-8.358 l 3.599,-5.364 C -54.938,34.052 -57.193,21.772 -52.672,11.203 -46.047,-4.286 -31.201,-6.128 -16.274,-3.59 L 5.62,-36.217 c -4.338,-2.357 -7.83,-3.091 -14.382,-3.17 -9.476,-0.115 -9.079,-15.144 0.182,-14.999 10.22,0.123 16.122,1.946 22.583,5.678 z"
             style="fill:#060606;fill-opacity:1;fill-rule:nonzero;stroke:none"
             id="path3504" /></g></g></g></g></svg>
