<svg version="1.1" id="Capa_1" xmlns="http://www.w3.org/2000/svg" xmlns:xlink="http://www.w3.org/1999/xlink" x="0px" y="0px" viewBox="0 0 512 512" style="enable-background:new 0 0 512 512;" xml:space="preserve">
<g>
	<g>
		<path style="fill:#4C5699;" d="M25.473,134.6v93.682c0,12.094,9.804,21.898,21.898,21.898h34.465l53.937-110.986L25.473,134.6z"/>
		<g>
			<g>
				<path style="fill:#BD9CDE;" d="M217.4,308.08h-95.28c-12.22,0-35.139-9.91-35.139-22.14v-41.21&#10;&#9;&#9;&#9;&#9;&#9;c0-32.22,20.696-69.29,62.819-69.29c28.95,9.72,49.8,37.07,49.8,69.29L217.4,308.08z"/>
				<path style="fill:#B18CD9;" d="M122.12,308.08H75.58c-12.22,0-22.13-9.91-22.13-22.14v-41.21c0-40.36,32.71-73.08,73.07-73.08&#10;&#9;&#9;&#9;&#9;&#9;c8.14,0,15.97,1.33,23.28,3.79c-28.95,9.71-49.81,37.07-49.81,69.29v41.21C99.99,298.17,109.9,308.08,122.12,308.08z"/>
				<g>
					<path style="fill:#8288CB;" d="M218.19,276.06v60.62H110.06c-34.647-13.541-41.34-78.891-2.29-93.95h77.09&#10;&#9;&#9;&#9;&#9;&#9;&#9;C203.27,242.73,218.19,257.65,218.19,276.06z"/>
					<path style="fill:#676FB2;" d="M110.06,336.68H34.47v-60.62c0-18.41,14.92-33.33,33.33-33.33h39.97&#10;&#9;&#9;&#9;&#9;&#9;&#9;C87.743,270.125,92.473,310.524,110.06,336.68z"/>
					<path style="fill:#676FB2;" d="M234.89,348.08c0,10.63-8.61,19.24-19.23,19.24h-95.99c-16.036,0-20.12-2.15-23.6-5.63&#10;&#9;&#9;&#9;&#9;&#9;&#9;c-3.49-3.49-5.64-8.29-5.64-13.61c0-10.62,8.814-19.23,29.24-19.23h95.99c5.31,0,10.12,2.15,13.6,5.63&#10;&#9;&#9;&#9;&#9;&#9;&#9;S234.89,342.77,234.89,348.08z"/>
					<path style="fill:#4C5699;" d="M106.07,361.69c3.48,3.48,8.29,5.63,13.6,5.63H37c-5.31,0-10.12-2.15-13.6-5.63&#10;&#9;&#9;&#9;&#9;&#9;&#9;c-3.48-3.49-5.63-8.29-5.63-13.61c0-10.62,8.61-19.23,19.23-19.23h82.67c-10.62,0-19.24,8.61-19.24,19.23&#10;&#9;&#9;&#9;&#9;&#9;&#9;C100.43,353.4,102.58,358.2,106.07,361.69z"/>
				</g>
				<g>
					<path style="fill:#FFCBBE;" d="M7.5,127.148c0-11.043,10.046-19.994,22.439-19.994c4.647,0,11.552-2.156,15.134,0&#10;&#9;&#9;&#9;&#9;&#9;&#9;c5.969,3.593,7.306,13.093,7.306,19.994c0,11.043-10.046,19.994-22.439,19.994S7.5,138.19,7.5,127.148z"/>
					<path style="fill:#FFDDCF;" d="M199.22,165.23c-10.83,15.16-27.45,26.72-47.09,32.2c-60.745-5.041-76.717-38.95-76.717-73.43&#10;&#9;&#9;&#9;&#9;&#9;&#9;c0-34.47,29.878-69.885,76.707-73.41c35.08,9.77,60.53,38.94,60.53,73.41C212.65,139.17,217.4,160.77,199.22,165.23z"/>
					<path style="fill:#FFCBBE;" d="M152.13,197.43c-8.15,2.27-16.81,3.49-25.8,3.49c-47.67,0-86.32-34.44-86.32-76.92&#10;&#9;&#9;&#9;&#9;&#9;&#9;s38.65-76.91,86.32-76.91c8.98,0,17.65,1.22,25.79,3.5C117.04,60.36,91.59,89.53,91.59,124&#10;&#9;&#9;&#9;&#9;&#9;&#9;C91.59,158.48,117.05,187.66,152.13,197.43z"/>
					<path style="fill:#676FB2;" d="M236.82,111.32v59.61h-31.4v-53.89c0-17.64-6.57-27.85-17.45-34.58&#10;&#9;&#9;&#9;&#9;&#9;&#9;c-1.97,10.18-10.92,17.87-21.67,17.87c-8.75,0-16.32-5.1-19.89-12.49c-2.66,5.53-7.57,9.77-13.54,11.56&#10;&#9;&#9;&#9;&#9;&#9;&#9;c-28.721-7.573-41.28-69.504-6.46-82.5C183.82,17.04,239.81,59.23,236.82,111.32z"/>
					<path style="fill:#4C5699;" d="M132.87,99.4c-2.01,0.61-4.14,0.93-6.35,0.93c-8.75,0-16.32-5.1-19.89-12.49&#10;&#9;&#9;&#9;&#9;&#9;&#9;c-3.56,7.39-11.13,12.49-19.88,12.49c-11.03,0-20.16-8.08-21.81-18.65C54.32,87.7,45.55,96.77,41.6,109.36&#10;&#9;&#9;&#9;&#9;&#9;&#9;c0,0-17.2,1.95-25.38,1.96C13.25,59.23,68.89,17,126.33,16.9h0.08C106.22,40.28,115.84,88.9,132.87,99.4z"/>
				</g>
			</g>
			<g>
				<path style="fill:#70DCBA;" d="M458.55,244.73v41.21c0,12.23-9.91,22.14-22.13,22.14h-34.3v-47.72&#10;&#9;&#9;&#9;&#9;&#9;c-33.825-18.6-32.005-70.396-5.04-87.79C431.93,178.12,458.55,208.32,458.55,244.73z"/>
				<path style="fill:#30CD9C;" d="M402.12,260.36v47.72H296.81l15.59-63.35c0-40.36,32.72-73.08,73.08-73.08&#10;&#9;&#9;&#9;&#9;&#9;c3.95,0,7.82,0.31,11.6,0.92C384.26,192.3,381.6,231.63,402.12,260.36z"/>
				<g>
					<path style="fill:#8288CB;" d="M477.14,276.06v58.67h-65.45c-34.902-18.655-37.935-74.374-10.26-92h42.38&#10;&#9;&#9;&#9;&#9;&#9;&#9;C462.22,242.73,477.14,257.65,477.14,276.06z"/>
					<path style="fill:#676FB2;" d="M411.69,334.73H293.42v-58.67c0-18.41,14.92-33.33,33.33-33.33h74.68&#10;&#9;&#9;&#9;&#9;&#9;&#9;C384.35,274.14,394.36,312.69,411.69,334.73z"/>
					<path style="fill:#676FB2;" d="M493.85,348.08c0,10.63-8.62,19.24-19.24,19.24h-65.76c-14.553,0-20.954-2.15-24.434-5.63&#10;&#9;&#9;&#9;&#9;&#9;&#9;c-3.48-3.49-5.63-8.29-5.63-13.61c0-10.62,8.49-19.23,30.064-19.23h65.76c5.31,0,10.12,2.15,13.6,5.63&#10;&#9;&#9;&#9;&#9;&#9;&#9;C491.7,337.96,493.85,342.77,493.85,348.08z"/>
					<path style="fill:#4C5699;" d="M395.24,361.69c3.48,3.48,8.3,5.63,13.61,5.63H295.96c-5.32,0-10.12-2.15-13.61-5.63&#10;&#9;&#9;&#9;&#9;&#9;&#9;c-3.48-3.49-5.63-8.29-5.63-13.61c0-10.62,8.61-19.23,19.24-19.23h112.89c-10.63,0-19.24,8.61-19.24,19.23&#10;&#9;&#9;&#9;&#9;&#9;&#9;C389.61,353.4,391.76,358.2,395.24,361.69z"/>
				</g>
				<g>
					<path style="fill:#FFCBBE;" d="M459.621,129.993c0-7.718,1.094-20.761,6.853-24.895c3.653-2.622,10.776,2.056,15.586,2.056&#10;&#9;&#9;&#9;&#9;&#9;&#9;c5.157,0,9.926,1.191,13.715,4.167c5.318,4.176,8.724,11.307,8.724,18.672c0,12.614-10.046,22.839-22.439,22.839&#10;&#9;&#9;&#9;&#9;&#9;&#9;S459.621,142.606,459.621,129.993z"/>
					<path style="fill:#FFCBBE;" d="M266.452,129.993c0-7.35,3.425-14.494,8.724-18.672c3.795-2.992,8.544-4.167,13.716-4.167&#10;&#9;&#9;&#9;&#9;&#9;&#9;c12.393,0,24.116-2.056,24.116-2.056l0.612,58.753c0,0-20.198-5.916-24.728-11.02&#10;&#9;&#9;&#9;&#9;&#9;&#9;C276.499,152.832,266.452,142.606,266.452,129.993z"/>
					<path style="fill:#FFDDCF;" d="M471.6,124c0,34.43-25.38,63.58-60.39,73.39c-49.936-4.566-73.858-38.96-73.858-73.39&#10;&#9;&#9;&#9;&#9;&#9;&#9;s21.842-72.108,73.858-73.38C446.22,60.43,471.6,89.57,471.6,124z"/>
					<path style="fill:#FFCBBE;" d="M411.21,197.39c-8.18,2.29-16.89,3.53-25.93,3.53c-47.67,0-86.32-34.44-86.32-76.92&#10;&#9;&#9;&#9;&#9;&#9;&#9;s38.65-76.91,86.32-76.91c9.04,0,17.75,1.24,25.93,3.53c-35,9.81-60.39,38.95-60.39,73.38S376.21,187.58,411.21,197.39z"/>
					<path style="fill:#676FB2;" d="M495.89,107.12c0,1.41-0.04,2.81-0.11,4.2c-5.81-0.01-20.6-0.71-25.74-1.95&#10;&#9;&#9;&#9;&#9;&#9;&#9;c-6.86-19.59-25.38-30.95-44.4-34.95c-10.95,13.66-23.99,20.8-35.5,24.47c-21.585-6.435-27.826-71.441,18.18-79.74&#10;&#9;&#9;&#9;&#9;&#9;&#9;C455.31,28.28,495.89,64.2,495.89,107.12z"/>
					<path style="fill:#4C5699;" d="M390.14,98.89c-13.47,4.3-24.83,3.86-28.32,3.59c-0.65-0.05-1.2-0.51-1.34-1.16&#10;&#9;&#9;&#9;&#9;&#9;&#9;c-1.74-8.16-0.74-18.97,3.31-28.88c-23.6-1.11-54.69,9.68-63.24,36.92c0,0-17.2,1.95-25.37,1.96c-0.08-1.39-0.11-2.79-0.11-4.2&#10;&#9;&#9;&#9;&#9;&#9;&#9;c0-49.83,54.29-90.22,110.21-90.22c7.75,0,15.48,0.78,23.04,2.25C372.93,47.67,376.62,83.61,390.14,98.89z"/>
				</g>
			</g>
			<g>
				<path style="fill:#FF8E9E;" d="M329.19,375.37v41.21c0,12.23-9.91,22.14-22.13,22.14h-55.95c-22.109,0-28.08-9.91-28.08-22.14&#10;&#9;&#9;&#9;&#9;&#9;v-41.21c0-32.34,20.588-61.994,56.06-69.39C308.19,315.61,329.19,343.04,329.19,375.37z"/>
				<path style="fill:#EA5B70;" d="M251.11,438.72h-45.94c-12.23,0-22.14-9.91-22.14-22.14v-41.21c0-40.36,32.72-73.08,73.08-73.08&#10;&#9;&#9;&#9;&#9;&#9;c8.03,0,15.75,1.29,22.98,3.69c-29.11,9.62-50.11,37.05-50.11,69.39v41.21C228.98,428.81,238.89,438.72,251.11,438.72z"/>
				<g>
					<path style="fill:#FFCBBE;" d="M330.257,257.789c0-6.443,1.913-16.338,7.224-19.994c3.791-2.61,10.054,0,15.215,0&#10;&#9;&#9;&#9;&#9;&#9;&#9;c12.393,0,22.439,8.952,22.439,19.994c0,11.043-10.046,19.994-22.439,19.994S330.257,268.832,330.257,257.789z"/>
					<path style="fill:#FFCBBE;" d="M137.087,257.789c0-11.043,10.046-19.994,22.439-19.994c5.03,0,11.373-2.49,15.115,0&#10;&#9;&#9;&#9;&#9;&#9;&#9;c5.478,3.646,7.324,13.434,7.324,19.994c0,11.043-10.046,19.994-22.439,19.994&#10;&#9;&#9;&#9;&#9;&#9;&#9;C147.134,277.783,137.087,268.832,137.087,257.789z"/>
					<path style="fill:#FFDDCF;" d="M342.24,254.64c0,34.17-25.01,63.14-59.6,73.16c-51.58-2.288-73.497-38.99-73.497-73.16&#10;&#9;&#9;&#9;&#9;&#9;&#9;s25.747-69.237,73.497-73.15C317.23,191.51,342.24,220.47,342.24,254.64z"/>
					<path style="fill:#FFCBBE;" d="M282.64,327.8c-8.41,2.44-17.39,3.76-26.72,3.76c-47.68,0-86.32-34.44-86.32-76.92&#10;&#9;&#9;&#9;&#9;&#9;&#9;c0-42.48,38.64-76.91,86.32-76.91c9.33,0,18.31,1.32,26.72,3.76c-34.6,10.02-59.61,38.98-59.61,73.15&#10;&#9;&#9;&#9;&#9;&#9;&#9;S248.04,317.78,282.64,327.8z"/>
					<path style="fill:#EAAA83;" d="M366.52,237.76c0,1.41-0.04,2.81-0.11,4.2c-5.8-0.01-20.59-0.71-25.73-1.95&#10;&#9;&#9;&#9;&#9;&#9;&#9;c-7.53-21.49-29.09-33.07-49.94-35.89c0.15,4.54-0.75,9.61-2.83,14.62c-5.39,12.99-16.58,20.69-25,17.2&#10;&#9;&#9;&#9;&#9;&#9;&#9;c-5.24-2.17-8.17-8.18-8.33-15.54c-23.52-10.174-27.234-61.198,9.25-72.59C316.88,151.38,366.52,190.28,366.52,237.76z"/>
					<path style="fill:#E4996D;" d="M254.58,220.4c-9.34,8.43-21.03,10.76-27.15,5.01c-5.1-4.79-4.84-13.76-0.11-22.31&#10;&#9;&#9;&#9;&#9;&#9;&#9;c-22.36,1.14-48.42,12.32-56.14,36.91c0,0-17.19,1.94-25.37,1.95c-0.07-1.39-0.11-2.79-0.11-4.2&#10;&#9;&#9;&#9;&#9;&#9;&#9;c0-49.83,54.3-90.22,110.22-90.22c2.64,0,5.28,0.09,7.91,0.27C244.67,163.25,241.46,198.6,254.58,220.4z"/>
				</g>
			</g>
		</g>
		<g>
			<path style="fill:#8288CB;" d="M347.78,403.84v60.75h-96.27c-36.57-19.748-36.57-80.888-5.05-94.08h67.99&#10;&#9;&#9;&#9;&#9;C332.86,370.51,347.78,385.43,347.78,403.84z"/>
			<path style="fill:#676FB2;" d="M251.51,464.59h-87.45v-60.75c0-18.41,14.92-33.33,33.33-33.33h49.07&#10;&#9;&#9;&#9;&#9;C227.81,392.76,233.94,441.95,251.51,464.59z"/>
			<path style="fill:#676FB2;" d="M364.48,475.86c0,10.63-8.61,19.24-19.24,19.24h-89.06c-18.665,0-23.755-2.15-27.245-5.63&#10;&#9;&#9;&#9;&#9;c-3.48-3.49-5.63-8.29-5.63-13.61c0-10.62,7.755-19.24,32.875-19.24h89.06c5.32,0,10.12,2.16,13.61,5.64&#10;&#9;&#9;&#9;&#9;C362.33,465.74,364.48,470.55,364.48,475.86z"/>
			<path style="fill:#4C5699;" d="M242.57,489.47c3.49,3.48,8.29,5.63,13.61,5.63h-89.59c-5.31,0-10.12-2.15-13.6-5.63&#10;&#9;&#9;&#9;&#9;c-3.49-3.49-5.64-8.29-5.64-13.61c0-10.62,8.62-19.24,19.24-19.24h89.59c-10.63,0-19.24,8.62-19.24,19.24&#10;&#9;&#9;&#9;&#9;C236.94,481.18,239.09,485.98,242.57,489.47z"/>
		</g>
	</g>
	<g>
		<path style="fill:none;stroke:#000000;stroke-width:15;stroke-linecap:round;stroke-linejoin:round;stroke-miterlimit:10;" d="&#10;&#9;&#9;&#9;M144.779,242.727H67.801c-18.408,0-33.332,14.923-33.332,33.332v52.787"/>
		<path style="fill:none;stroke:#000000;stroke-width:15;stroke-linecap:round;stroke-linejoin:round;stroke-miterlimit:10;" d="&#10;&#9;&#9;&#9;M79.645,188.683c-16.32,13.611-26.583,34.439-26.197,57.287"/>
		<path style="fill:none;stroke:#000000;stroke-width:15;stroke-linecap:round;stroke-linejoin:round;stroke-miterlimit:10;" d="&#10;&#9;&#9;&#9;M16.235,111.321c-5.311,3.657-8.735,9.384-8.735,15.827c0,11.043,10.046,19.994,22.439,19.994c4.794,0,9.234-1.344,12.88-3.626"/>
		<path style="fill:none;stroke:#000000;stroke-width:15;stroke-linecap:round;stroke-linejoin:round;stroke-miterlimit:10;" d="&#10;&#9;&#9;&#9;M25.473,146.745v81.537c0,11.908,9.507,21.59,21.345,21.884"/>
		
			<line style="fill:none;stroke:#000000;stroke-width:15;stroke-linecap:round;stroke-linejoin:round;stroke-miterlimit:10;" x1="75.413" y1="129.715" x2="75.413" y2="139.484"/>
		
			<line style="fill:none;stroke:#000000;stroke-width:15;stroke-linecap:round;stroke-linejoin:round;stroke-miterlimit:10;" x1="177.191" y1="129.715" x2="177.191" y2="139.484"/>
		<path style="fill:none;stroke:#000000;stroke-width:15;stroke-linecap:round;stroke-linejoin:round;stroke-miterlimit:10;" d="&#10;&#9;&#9;&#9;M112.885,139.193c3.262,3.739,8.061,6.106,13.417,6.106c5.355,0,10.154-2.366,13.417-6.106"/>
		<path style="fill:none;stroke:#000000;stroke-width:15;stroke-linecap:round;stroke-linejoin:round;stroke-miterlimit:10;" d="&#10;&#9;&#9;&#9;M458.553,246.162c0.442-22.974-9.89-43.97-26.352-57.613"/>
		<path style="fill:none;stroke:#000000;stroke-width:15;stroke-linecap:round;stroke-linejoin:round;stroke-miterlimit:10;" d="&#10;&#9;&#9;&#9;M477.143,328.845v-52.787c0-18.408-14.923-33.332-33.332-33.332h-76.367"/>
		<path style="fill:none;stroke:#000000;stroke-width:15;stroke-linecap:round;stroke-linejoin:round;stroke-miterlimit:10;" d="&#10;&#9;&#9;&#9;M275.176,111.321c-5.299,4.177-8.724,11.322-8.724,18.672c0,8.227,4.276,15.436,10.687,19.456"/>
		<path style="fill:none;stroke:#000000;stroke-width:15;stroke-linecap:round;stroke-linejoin:round;stroke-miterlimit:10;" d="&#10;&#9;&#9;&#9;M352.381,195.119c10.141,3.729,21.248,5.799,32.901,5.799c47.674,0,86.321-34.436,86.321-76.915c0-5.045-0.562-9.971-1.602-14.744&#10;&#9;&#9;&#9;"/>
		<path style="fill:none;stroke:#000000;stroke-width:15;stroke-linecap:round;stroke-linejoin:round;stroke-miterlimit:10;" d="&#10;&#9;&#9;&#9;M300.542,109.365c-1.025,4.74-1.581,9.63-1.581,14.638c0,12.814,3.536,24.885,9.756,35.51"/>
		<path style="fill:none;stroke:#000000;stroke-width:15;stroke-linecap:round;stroke-linejoin:round;stroke-miterlimit:10;" d="&#10;&#9;&#9;&#9;M467.527,147.387c3.916,3.393,8.988,5.444,14.533,5.444c12.393,0,22.439-10.225,22.439-22.839c0-7.365-3.406-14.495-8.724-18.672"/>
		<path style="fill:none;stroke:#000000;stroke-width:15;stroke-linecap:round;stroke-linejoin:round;stroke-miterlimit:10;" d="&#10;&#9;&#9;&#9;M385.282,16.897c-55.918,0-110.216,40.394-110.216,90.22c0,1.408,0.036,2.811,0.109,4.204c8.177-0.011,25.373-1.957,25.373-1.957&#10;&#9;&#9;&#9;c8.555-27.248,39.644-38.036,63.241-36.925c-4.224,10.349-5.133,21.668-3.065,29.94c0,0,38.523,4.951,64.917-27.956&#10;&#9;&#9;&#9;c19.014,3.996,37.536,15.356,44.399,34.941c5.143,1.24,19.929,1.945,25.735,1.956c0.073-1.392,0.109-2.795,0.109-4.204&#10;&#9;&#9;&#9;C495.885,57.292,441.2,16.897,385.282,16.897z"/>
		
			<line style="fill:none;stroke:#000000;stroke-width:15;stroke-linecap:round;stroke-linejoin:round;stroke-miterlimit:10;" x1="334.365" y1="129.715" x2="334.365" y2="139.484"/>
		
			<line style="fill:none;stroke:#000000;stroke-width:15;stroke-linecap:round;stroke-linejoin:round;stroke-miterlimit:10;" x1="436.143" y1="129.715" x2="436.143" y2="139.484"/>
		<path style="fill:none;stroke:#000000;stroke-width:15;stroke-linecap:round;stroke-linejoin:round;stroke-miterlimit:10;" d="&#10;&#9;&#9;&#9;M371.837,139.193c3.262,3.739,8.061,6.106,13.417,6.106c5.355,0,10.154-2.366,13.417-6.106"/>
		<path style="fill:none;stroke:#000000;stroke-width:15;stroke-linecap:round;stroke-linejoin:round;stroke-miterlimit:10;" d="&#10;&#9;&#9;&#9;M145.822,241.962c-5.311,3.656-8.735,9.384-8.735,15.827c0,11.043,10.047,19.994,22.439,19.994c4.794,0,9.234-1.344,12.88-3.626"/>
		<path style="fill:none;stroke:#000000;stroke-width:15;stroke-linecap:round;stroke-linejoin:round;stroke-miterlimit:10;" d="&#10;&#9;&#9;&#9;M171.177,240.006c-1.025,4.741-1.581,9.63-1.581,14.638c0,42.479,38.647,76.915,86.321,76.915s86.321-34.436,86.321-76.915&#10;&#9;&#9;&#9;c0-5.044-0.562-9.969-1.602-14.743"/>
		<path style="fill:none;stroke:#000000;stroke-width:15;stroke-linecap:round;stroke-linejoin:round;stroke-miterlimit:10;" d="&#10;&#9;&#9;&#9;M339.493,273.952c3.705,2.407,8.266,3.831,13.203,3.831c12.393,0,22.439-8.952,22.439-19.994c0-6.443-3.424-12.171-8.735-15.827"/>
		<path style="fill:none;stroke:#000000;stroke-width:15;stroke-linecap:round;stroke-linejoin:round;stroke-miterlimit:10;" d="&#10;&#9;&#9;&#9;M255.917,147.539c-55.918,0-110.216,40.394-110.216,90.22c0,1.408,0.037,2.811,0.109,4.204c8.177-0.011,25.373-1.957,25.373-1.957&#10;&#9;&#9;&#9;c7.718-24.584,33.78-35.768,56.132-36.904c-4.729,8.547-4.983,17.522,0.111,22.307c6.126,5.755,17.814,3.422,27.147-5.011&#10;&#9;&#9;&#9;c0.161,7.363,3.092,13.371,8.338,15.546c8.418,3.49,19.608-4.21,24.993-17.199c2.08-5.018,2.985-10.088,2.833-14.625&#10;&#9;&#9;&#9;c20.849,2.823,42.407,14.401,49.936,35.887c5.143,1.241,19.929,1.945,25.735,1.956c0.073-1.392,0.109-2.795,0.109-4.204&#10;&#9;&#9;&#9;C366.521,187.933,311.836,147.539,255.917,147.539z"/>
		
			<line style="fill:none;stroke:#000000;stroke-width:15;stroke-linecap:round;stroke-linejoin:round;stroke-miterlimit:10;" x1="205" y1="260.356" x2="205" y2="270.125"/>
		
			<line style="fill:none;stroke:#000000;stroke-width:15;stroke-linecap:round;stroke-linejoin:round;stroke-miterlimit:10;" x1="306.778" y1="260.356" x2="306.778" y2="270.125"/>
		<path style="fill:none;stroke:#000000;stroke-width:15;stroke-linecap:round;stroke-linejoin:round;stroke-miterlimit:10;" d="&#10;&#9;&#9;&#9;M242.473,269.834c3.262,3.739,8.061,6.106,13.417,6.106s10.154-2.366,13.417-6.106"/>
		<path style="fill:none;stroke:#000000;stroke-width:15;stroke-linecap:round;stroke-linejoin:round;stroke-miterlimit:10;" d="&#10;&#9;&#9;&#9;M329.168,373.931c-0.426-22.003-10.575-41.622-26.331-54.74"/>
		<path style="fill:none;stroke:#000000;stroke-width:15;stroke-linecap:round;stroke-linejoin:round;stroke-miterlimit:10;" d="&#10;&#9;&#9;&#9;M209.232,319.324c-15.621,13.08-25.695,32.562-26.174,54.414"/>
		<path style="fill:none;stroke:#000000;stroke-width:15;stroke-linecap:round;stroke-linejoin:round;stroke-miterlimit:10;" d="&#10;&#9;&#9;&#9;M58.164,37.562c-26.097,17.302-43.642,43.909-41.941,73.758c8.177-0.011,25.373-1.957,25.373-1.957&#10;&#9;&#9;&#9;c3.954-12.594,12.725-21.668,23.343-27.68c1.646,10.563,10.781,18.646,21.805,18.646c8.757,0,16.323-5.1,19.889-12.492&#10;&#9;&#9;&#9;c3.567,7.392,11.132,12.492,19.889,12.492c8.757,0,16.323-5.1,19.889-12.492c3.567,7.392,11.132,12.492,19.889,12.492&#10;&#9;&#9;&#9;c10.751,0,19.702-7.689,21.666-17.866c10.88,6.73,17.451,16.937,17.451,34.575V158.5"/>
		<path style="fill:none;stroke:#000000;stroke-width:15;stroke-linecap:round;stroke-linejoin:round;stroke-miterlimit:10;" d="&#10;&#9;&#9;&#9;M236.824,149.092v-37.771c2.984-52.106-53.058-94.319-110.494-94.423c-12.453,0.022-24.82,2.027-36.524,5.68"/>
		<path style="fill:none;stroke:#000000;stroke-width:15;stroke-linecap:round;stroke-linejoin:round;stroke-miterlimit:10;" d="&#10;&#9;&#9;&#9;M41.59,109.365c-1.026,4.74-1.581,9.63-1.581,14.638c0,42.479,38.647,76.915,86.321,76.915c11.914,0,23.264-2.151,33.588-6.04"/>
		<path style="fill:none;stroke:#000000;stroke-width:15;stroke-linecap:round;stroke-linejoin:round;stroke-miterlimit:10;" d="&#10;&#9;&#9;&#9;M324.278,495.103h20.965c10.626,0,19.239-8.614,19.239-19.239c0-10.626-8.614-19.239-19.239-19.239h-178.65&#10;&#9;&#9;&#9;c-10.625,0-19.239,8.614-19.239,19.239c0,10.625,8.614,19.239,19.239,19.239h122.686"/>
		<path style="fill:none;stroke:#000000;stroke-width:15;stroke-linecap:round;stroke-linejoin:round;stroke-miterlimit:10;" d="&#10;&#9;&#9;&#9;M164.057,456.624v-52.787c0-18.408,14.923-33.332,33.332-33.332h117.058c18.408,0,33.332,14.923,33.332,33.332v52.787"/>
		<path style="fill:none;stroke:#000000;stroke-width:15;stroke-linecap:round;stroke-linejoin:round;stroke-miterlimit:10;" d="&#10;&#9;&#9;&#9;M328.738,367.324h145.87c10.626,0,19.239-8.614,19.239-19.239c0-10.625-8.614-19.239-19.239-19.239H312.465"/>
		<path style="fill:none;stroke:#000000;stroke-width:15;stroke-linecap:round;stroke-linejoin:round;stroke-miterlimit:10;" d="&#10;&#9;&#9;&#9;M199.758,328.845H37.005c-10.626,0-19.239,8.614-19.239,19.239c0,10.626,8.614,19.239,19.239,19.239h146.48"/>
	</g>
</g>
<g>
</g>
<g>
</g>
<g>
</g>
<g>
</g>
<g>
</g>
<g>
</g>
<g>
</g>
<g>
</g>
<g>
</g>
<g>
</g>
<g>
</g>
<g>
</g>
<g>
</g>
<g>
</g>
<g>
</g>
</svg>