<svg id="Layer_1" enable-background="new 0 0 24 24" viewBox="0 0 24 24" xmlns="http://www.w3.org/2000/svg"><g><g><path d="m3.486 9.773c-.067 0-.134-.013-.197-.041-.188-.081-.307-.267-.303-.471.091-4.046 3.32-7.738 7.51-8.586.613-.124 1.238-.188 1.859-.188 3.342 0 6.469 1.859 7.965 4.736.094.18.069.399-.062.554-.097.114-.237.177-.381.177-.052 0-.104-.008-.154-.024-.484-.157-1.117-.26-1.881-.305-.229-.013-.42-.182-.462-.407-.002-.011-.014-.092-.015-.103-.232-.942-.994-1.598-1.816-1.598-.126 0-.252.016-.375.046-.453.113-.828.422-1.057.869-.141.276-.212.593-.212.945 0 .248-.181.458-.425.495-.626.095-1.277.21-1.963.358-2.37.513-4.562 1.323-6.172 2.28-.629.375-1.136.75-1.507 1.118-.095.095-.223.145-.352.145z" fill="#f00"/></g><g><path d="m15.771 7.489c-.833 0-1.576-.642-1.807-1.56-.13-.519-.076-1.05.152-1.497.229-.447.605-.756 1.058-.87.123-.031.25-.047.378-.047.832 0 1.575.641 1.806 1.559.269 1.07-.274 2.132-1.209 2.367-.124.032-.25.048-.378.048z" fill="#fff"/></g><g><path d="m6.497 12.457c-1.249 0-2.167-.182-2.728-.542-.333-.212-.539-.49-.611-.824-.157-.721.64-1.663 2.186-2.582 1.61-.958 3.802-1.767 6.172-2.28.688-.149 1.36-.267 1.993-.363.025-.003.05-.005.075-.005.205 0 .392.126.467.322.298.78.99 1.305 1.723 1.305.126 0 .252-.016.375-.046.621-.156 1.092-.698 1.23-1.413.046-.236.253-.405.491-.405.011 0 .021 0 .031.001 2.352.146 2.983.815 3.1 1.352.322 1.486-3.333 3.519-8.32 4.629-2.538.565-4.618.851-6.184.851z" fill="#fff"/></g><g><path d="m3.486 9.773c-.067 0-.134-.013-.197-.041-.188-.081-.307-.267-.303-.471.091-4.046 3.32-7.738 7.51-8.586.613-.124 1.238-.188 1.859-.188 3.342 0 6.469 1.859 7.965 4.736.094.18.069.399-.062.554-.097.114-.237.177-.381.177-.052 0-.104-.008-.154-.024-.484-.157-1.117-.26-1.881-.305-.229-.013-.42-.182-.462-.407-.002-.011-.014-.092-.015-.103-.232-.942-.994-1.598-1.816-1.598-.126 0-.252.016-.375.046-.453.113-.828.422-1.057.869-.141.276-.212.593-.212.945 0 .248-.181.458-.425.495-.626.095-1.277.21-1.963.358-2.37.513-4.562 1.323-6.172 2.28-.629.375-1.136.75-1.507 1.118-.095.095-.223.145-.352.145z" fill="#df2c2c"/></g><g><path d="m6.497 12.457c-1.249 0-2.167-.182-2.728-.542-.333-.212-.539-.49-.611-.824-.157-.721.64-1.663 2.186-2.582 1.61-.958 3.802-1.767 6.172-2.28.688-.149 1.36-.267 1.993-.363.025-.003.05-.005.075-.005.205 0 .392.126.467.322.298.78.99 1.305 1.723 1.305.126 0 .252-.016.375-.046.621-.156 1.092-.698 1.23-1.413.046-.236.253-.405.491-.405.011 0 .021 0 .031.001 2.352.146 2.983.815 3.1 1.352.322 1.486-3.333 3.519-8.32 4.629-2.538.565-4.618.851-6.184.851z" fill="#5c6671"/></g><g><g><path d="m20.32 5.224c-1.496-2.876-4.623-4.736-7.965-4.736-.41 0-.821.038-1.23.092 2.844.404 5.387 2.136 6.691 4.643.066.127.053.267.006.397.007.001.013.004.02.005.764.045 1.396.147 1.881.305.051.017.103.024.154.024.145 0 .285-.063.381-.177.131-.154.156-.373.062-.553z" fill="#c92828"/></g></g><g><g><path d="m21.001 6.976c-.116-.536-.748-1.206-3.1-1.352-.01 0-.021-.001-.031-.001-.221 0-.409.148-.473.358.755.278 1.028.662 1.1.994.322 1.486-3.333 3.519-8.32 4.629-1.851.412-3.452.673-4.794.785.339.04.702.067 1.114.067 1.565 0 3.646-.287 6.184-.852 4.987-1.109 8.641-3.142 8.32-4.628z" fill="#535c66"/></g></g><g><path d="m15.553 20.609c-.129 0-.257-.016-.381-.048-.743-.187-1.265-.93-1.268-1.807-.807-.108-1.609-.248-2.387-.417-2.383-.516-4.598-1.298-6.236-2.201-1.161-.641-2.504-1.599-2.303-2.524.061-.282.247-1.14 4.22-1.14 1.683 0 3.63.174 5.483.49 3.385.577 7.188 2.316 8.139 3.722.195.289.268.555.215.792-.188.868-1.592 1.44-3.664 1.493-.24.984-.999 1.64-1.818 1.64z" fill="#666"/></g><g><path d="m12.43 23.511c-.383 0-.771-.024-1.152-.073-4.124-.526-7.494-3.715-8.196-7.755-.036-.207.062-.414.243-.519.078-.044.164-.066.25-.066.115 0 .229.04.322.117 1.457 1.224 4.376 2.421 7.62 3.124.648.141 1.32.262 1.997.361.214.031.384.197.42.411.124.723.61 1.293 1.24 1.452.123.031.248.046.374.046.748 0 1.446-.533 1.738-1.327.069-.187.242-.315.441-.326.651-.038 1.244-.135 1.761-.291.047-.015.096-.021.144-.021.156 0 .306.073.402.203.125.17.131.4.014.576-1.713 2.559-4.561 4.088-7.618 4.088z" fill="#fff"/></g><g><path d="m15.553 20.609c-.129 0-.257-.016-.381-.048-.743-.187-1.265-.93-1.268-1.807-.807-.108-1.609-.248-2.387-.417-2.383-.516-4.598-1.298-6.236-2.201-1.161-.641-2.504-1.599-2.303-2.524.061-.282.247-1.14 4.22-1.14 1.683 0 3.63.174 5.483.49 3.385.577 7.188 2.316 8.139 3.722.195.289.268.555.215.792-.188.868-1.592 1.44-3.664 1.493-.24.984-.999 1.64-1.818 1.64z" fill="#5c6671"/></g><g><path d="m12.43 23.511c-.383 0-.771-.024-1.152-.073-4.124-.526-7.494-3.715-8.196-7.755-.036-.207.062-.414.243-.519.078-.044.164-.066.25-.066.115 0 .229.04.322.117 1.457 1.224 4.376 2.421 7.62 3.124.648.141 1.32.262 1.997.361.214.031.384.197.42.411.124.723.61 1.293 1.24 1.452.123.031.248.046.374.046.748 0 1.446-.533 1.738-1.327.069-.187.242-.315.441-.326.651-.038 1.244-.135 1.761-.291.047-.015.096-.021.144-.021.156 0 .306.073.402.203.125.17.131.4.014.576-1.713 2.559-4.561 4.088-7.618 4.088z" fill="#fff"/></g><g><path d="m20.82 16.685c-.951-1.406-4.753-3.145-8.139-3.722-1.853-.316-3.8-.49-5.483-.49-.464 0-.872.013-1.239.034 1.338.064 2.771.22 4.152.456 3.385.577 7.188 2.316 8.139 3.722.195.289.268.555.215.792-.188.868-1.592 1.44-3.664 1.493-.095.388-.272.722-.5.988.221.294.518.515.871.604.125.032.252.048.381.048.818 0 1.578-.656 1.818-1.639 2.072-.053 3.476-.625 3.664-1.493.052-.238-.02-.504-.215-.793z" fill="#535c66"/></g><g><g><path d="m20.035 18.846c-.096-.13-.246-.203-.402-.203-.048 0-.097.007-.144.021-.518.156-1.11.253-1.761.291-.074.004-.137.039-.2.072.033.134.031.274-.049.393-1.473 2.2-3.784 3.631-6.344 3.992.048.007.095.018.143.024.381.048.769.073 1.152.073 3.057 0 5.904-1.529 7.618-4.089.118-.174.112-.404-.013-.574z" fill="#e6e6e6"/></g></g><g id="Open_Pokeball"><g><path d="m6.508 12.955c-1.359 0-2.364-.206-3.008-.618-.449-.288-.729-.671-.83-1.139-.211-.974.625-2.052 2.419-3.118 1.655-.984 3.901-1.814 6.322-2.339.865-.187 1.692-.334 2.459-.436.273-.036.525.156.562.43.037.273-.156.525-.43.562-.73.097-1.552.243-2.379.422-2.319.502-4.458 1.291-6.023 2.221-1.466.872-2.038 1.656-1.953 2.046.043.201.171.368.392.508.66.423 2.645.935 8.533-.377 5.209-1.16 8.135-3.132 7.939-4.035-.094-.437-.954-.924-3.083-.983-.276-.008-.493-.238-.486-.514.008-.276.249-.491.514-.486 3.034.085 3.867 1.01 4.032 1.771.466 2.154-4.183 4.218-8.699 5.224-2.577.573-4.676.861-6.281.861z" fill="#31395a"/></g><g><path d="m3.139 11.492c-.233 0-.441-.164-.49-.401-.985-4.861 2.563-9.855 7.748-10.906 4.932-1 9.793 1.896 11.067 6.592.072.267-.085.541-.352.613-.266.075-.541-.085-.613-.352-1.137-4.188-5.484-6.77-9.904-5.873-4.653.942-7.843 5.397-6.966 9.727.055.271-.12.534-.391.589-.033.008-.067.011-.099.011z" fill="#31395a"/></g><g><path d="m12.439 24.012c-.405 0-.813-.025-1.224-.078-5.097-.65-9.023-5.232-8.753-10.212.015-.276.251-.499.527-.472.275.015.487.25.472.526-.242 4.468 3.293 8.58 7.881 9.166 3.935.5 7.711-1.748 9.175-5.473.102-.257.393-.381.648-.282.257.101.383.391.282.648-1.479 3.764-5.076 6.177-9.008 6.177z" fill="#31395a"/></g><g><path d="m15.774 7.988c-1.034 0-2.005-.784-2.295-1.937-.16-.636-.092-1.292.192-1.846.295-.577.785-.978 1.381-1.127 1.205-.3 2.456.539 2.792 1.875.336 1.337-.37 2.67-1.573 2.973-.165.042-.332.062-.497.062zm-.221-3.972c-.085 0-.171.01-.257.032-.312.078-.572.296-.734.612-.173.339-.213.747-.112 1.147.202.802.909 1.317 1.578 1.15.668-.168 1.048-.957.847-1.76-.177-.699-.738-1.181-1.322-1.181z" fill="#31395a"/></g><g><path d="m15.548 21.108c-.165 0-.331-.02-.496-.062-.836-.21-1.456-.943-1.611-1.853-.687-.101-1.368-.224-2.03-.367-4.665-1.01-9.376-3.218-8.922-5.32.576-2.659 10.176-1.055 10.276-1.037 3.559.606 7.437 2.408 8.469 3.935.273.405.371.801.29 1.177-.23 1.062-1.628 1.75-3.769 1.873-.366.997-1.26 1.654-2.207 1.654zm-8.35-8.135c-2.151 0-3.632.286-3.731.746-.195.899 2.959 3.005 8.156 4.131.764.166 1.553.303 2.347.409.248.033.433.244.434.494.002.648.369 1.192.892 1.324.665.17 1.376-.348 1.578-1.15.046-.228.251-.45.484-.457 2.039-.052 3.082-.607 3.188-1.1.021-.096-.029-.239-.141-.405-.786-1.163-4.292-2.91-7.809-3.51-1.968-.335-3.855-.482-5.398-.482z" fill="#31395a"/></g></g></g></svg>