<svg id="filled_line" enable-background="new 0 0 16 16" viewBox="0 0 16 16" xmlns="http://www.w3.org/2000/svg"><g><path d="m15.14 8h-14.64c0-2.44 1.17-4.62 2.99-5.98.94-.34 1.96-.52 3.01-.52 4.1 0 7.57 2.75 8.64 6.5z" fill="#c44137"/><path d="m15.5 8c0 4.142-3.358 7.5-7.5 7.5s-7.5-3.358-7.5-7.5z" fill="#eaeaea"/><circle cx="8" cy="8" fill="#676a75" r="3.5"/><circle cx="8" cy="8" fill="#afb6bb" r="1.5"/><g fill="#3e3643"><path d="m8 0c-4.411 0-8 3.589-8 8s3.589 8 8 8 8-3.589 8-8-3.589-8-8-8zm0 15c-3.691 0-6.716-2.874-6.975-6.5h1.475c.276 0 .5-.224.5-.5s-.224-.5-.5-.5h-1.475c.259-3.626 3.284-6.5 6.975-6.5s6.716 2.874 6.975 6.5h-3.025c-.25-1.968-1.916-3.5-3.95-3.5-2.206 0-4 1.794-4 4s1.794 4 4 4c2.034 0 3.7-1.532 3.949-3.5h3.025c-.258 3.626-3.283 6.5-6.974 6.5zm3-7c0 1.654-1.346 3-3 3s-3-1.346-3-3 1.346-3 3-3 3 1.346 3 3z"/><path d="m8 6c-1.103 0-2 .897-2 2s.897 2 2 2 2-.897 2-2-.897-2-2-2zm0 3c-.551 0-1-.449-1-1s.449-1 1-1 1 .449 1 1-.449 1-1 1z"/></g></g></svg>