<svg id="Capa_1" enable-background="new 0 0 512 512" viewBox="0 0 512 512" xmlns="http://www.w3.org/2000/svg"><g><g><g><path d="m478.699 99.902h-83.252v-66.601h83.252c18.392 0 33.301 14.909 33.301 33.301 0 18.391-14.909 33.3-33.301 33.3z" fill="#d8ecfe"/></g><g><path d="m395.447 99.902h-281.894v-66.601h281.894c18.392 0 33.301 14.909 33.301 33.301 0 18.391-14.909 33.3-33.301 33.3z" fill="#62dbfb"/></g><g><path d="m478.699 289.301h-145.691v-66.602h145.691c18.392 0 33.301 14.909 33.301 33.301 0 18.392-14.909 33.301-33.301 33.301z" fill="#d8ecfe"/></g><g><path d="m333.008 289.301h-219.455v-66.602h219.455c18.392 0 33.301 14.909 33.301 33.301 0 18.392-14.909 33.301-33.301 33.301z" fill="#62dbfb"/></g><g><path d="m478.699 478.699h-93.659v-66.602h93.659c18.392 0 33.301 14.909 33.301 33.301 0 18.392-14.909 33.301-33.301 33.301z" fill="#d8ecfe"/></g><g><path d="m385.041 478.699h-271.488v-66.602h271.488c18.392 0 33.301 14.909 33.301 33.301-.001 18.392-14.91 33.301-33.301 33.301z" fill="#62dbfb"/></g><g><path d="m113.553 99.902h40.584c3.952-10.353 6.123-21.577 6.123-33.301s-2.172-22.948-6.123-33.301h-40.584z" fill="#01d0fb"/></g><g><path d="m113.553 289.301h40.584c3.952-10.353 6.123-21.577 6.123-33.301s-2.172-22.948-6.123-33.301h-40.584z" fill="#01d0fb"/></g><g><path d="m113.553 478.699h40.584c3.952-10.353 6.123-21.577 6.123-33.301s-2.172-22.948-6.123-33.301h-40.584z" fill="#01d0fb"/></g><path d="m120.141 74.039-3.942-47.584-13.063-15.532c-10.491-6.897-23.04-10.923-36.534-10.923-36.783 0-66.602 29.819-66.602 66.602s29.819 66.602 66.602 66.602c17.732 0 33.833-6.943 45.768-18.242z" fill="#00f2a6"/><path d="m96.772 302.947 24.777-63.633-3.942-16.049-8.822-17.644-5.648-5.299c-10.491-6.898-23.04-10.924-36.535-10.924-36.783 0-66.602 29.819-66.602 66.602s29.819 66.602 66.602 66.602c15.345 0 29.467-5.203 40.729-13.923z" fill="#fe5694"/><g><path d="m103.136 200.322c6.898 10.491 10.924 23.04 10.924 36.535 0 36.783-29.819 66.602-66.602 66.602-13.495 0-26.043-4.026-36.535-10.924 11.905 18.106 32.389 30.067 55.678 30.067 36.783 0 66.602-29.819 66.602-66.602 0-23.288-11.961-43.773-30.067-55.678z" fill="#fd3581"/></g><g><path d="m103.136 10.924c6.898 10.491 10.924 23.04 10.924 36.535 0 36.783-29.819 66.602-66.602 66.602-13.495 0-26.043-4.026-36.535-10.924 11.905 18.106 32.389 30.067 55.678 30.067 36.783 0 66.602-29.819 66.602-66.602 0-23.289-11.961-43.773-30.067-55.678z" fill="#05e39c"/></g><path d="m121.549 445.398v-28.044l-7.996-15.204-10.417-12.429c-10.491-6.898-23.04-10.924-36.535-10.924-36.782 0-66.601 29.818-66.601 66.601s29.819 66.602 66.602 66.602c14.079 0 27.129-4.38 37.885-11.835z" fill="#ffe177"/><g><path d="m103.136 389.721c6.898 10.491 10.924 23.04 10.924 36.535 0 36.783-29.819 66.602-66.602 66.602-13.495 0-26.043-4.026-36.535-10.924 11.906 18.105 32.39 30.066 55.679 30.066 36.783 0 66.602-29.819 66.602-66.602-.001-23.288-11.962-43.772-30.068-55.677z" fill="#ffd15b"/></g></g><g fill="#eaf6ff"><path d="m92.718 229.883c-2.929-2.928-7.678-2.928-10.606 0l-15.51 15.511-15.51-15.511c-2.929-2.928-7.678-2.928-10.606 0-2.929 2.93-2.929 7.678 0 10.607l15.509 15.51-15.509 15.51c-2.929 2.93-2.929 7.678 0 10.607 2.929 2.928 7.678 2.928 10.606 0l15.51-15.511 15.51 15.511c1.464 1.464 3.384 2.196 5.303 2.196s3.839-.732 5.303-2.196c2.929-2.93 2.929-7.678 0-10.607l-15.51-15.51 15.509-15.51c2.93-2.929 2.93-7.678.001-10.607z"/><path d="m99.977 43.606c-2.929-2.928-7.678-2.929-10.606.001l-30.079 30.08-15.459-15.459c-2.929-2.928-7.678-2.928-10.606 0-2.929 2.93-2.929 7.678 0 10.607l20.762 20.762c1.406 1.406 3.314 2.196 5.303 2.196s3.897-.79 5.303-2.197l35.382-35.382c2.929-2.93 2.929-7.678 0-10.608z"/><g><path d="m90.39 423.845c-.645-12.441-10.914-22.384-23.378-22.635-12.092-.265-22.489 8.6-24.16 20.572-.572 4.103 2.29 7.892 6.392 8.464 4.105.582 7.893-2.289 8.465-6.392.621-4.45 4.472-7.757 9.001-7.648 4.639.094 8.46 3.79 8.701 8.416.128 2.474-.736 4.82-2.434 6.609-1.699 1.79-3.992 2.775-6.454 2.775-4.142 0-7.5 3.357-7.5 7.5v9.365c0 4.143 3.358 7.5 7.5 7.5s7.5-3.357 7.5-7.5v-3.082c3.708-1.23 7.105-3.359 9.832-6.231 4.558-4.8 6.879-11.091 6.535-17.713z"/><path d="m66.602 474.365c-4.267 0-7.726 3.459-7.726 7.726s3.459 7.726 7.726 7.726 7.726-3.459 7.726-7.726c0-4.266-3.459-7.726-7.726-7.726z"/></g></g></g><g/><g/><g/><g/><g/><g/><g/><g/><g/><g/><g/><g/><g/><g/><g/></svg>