<svg id="Layer_1" viewBox="0 0 512 512" xmlns="http://www.w3.org/2000/svg" xmlns:xlink="http://www.w3.org/1999/xlink" data-name="Layer 1"><linearGradient id="linear-gradient" gradientUnits="userSpaceOnUse" x1="138.376" x2="351.35" y1="445.332" y2="76.45"><stop offset="0" stop-color="#ff6100"/><stop offset="1" stop-color="#fdb82e"/></linearGradient><path d="m481 166.786c0 14.783-12.057 26.84-26.84 26.84-1.684 0-3.331-.164-4.931-.463l-28.692 153.505c-.323-.007-.645-.013-.97-.013h-327.135c-.324 0-.647.005-.969.012l-28.692-153.504c-1.6.299-3.246.463-4.93.463-14.783 0-26.84-12.057-26.84-26.84s12.057-26.84 26.84-26.84 26.84 12.057 26.84 26.84c0 6.058-2.027 11.656-5.434 16.156l80.559 60.799 85.375-88.79c-11.678-4.399-20.026-15.692-20.026-28.877 0-16.989 13.856-30.846 30.846-30.846s30.845 13.856 30.845 30.846c0 13.185-8.348 24.478-20.027 28.877l85.375 88.789 80.559-60.799c-3.407-4.5-5.434-10.098-5.434-16.156 0-14.783 12.057-26.84 26.84-26.84s26.84 12.057 26.84 26.84zm-61.433 209.869h-327.135c-7.28 0-13.237 5.957-13.237 13.237v13.641c0 7.28 5.957 13.237 13.237 13.237h327.135c7.281 0 13.237-5.957 13.237-13.237v-13.641c0-7.281-5.957-13.237-13.237-13.237z" fill="url(#linear-gradient)" fill-rule="evenodd"/></svg>