<?xml version="1.0" encoding="UTF-8" standalone="no"?>
<!-- Created with Inkscape (http://www.inkscape.org/) -->

<svg
   version="1.1"
   id="svg273"
   xml:space="preserve"
   width="682.66669"
   height="682.66669"
   viewBox="0 0 682.66669 682.66669"
   xmlns="http://www.w3.org/2000/svg"
   xmlns:svg="http://www.w3.org/2000/svg"><defs
     id="defs277"><clipPath
       clipPathUnits="userSpaceOnUse"
       id="clipPath287"><path
         d="M 0,512 H 512 V 0 H 0 Z"
         id="path285" /></clipPath></defs><g
     id="g279"
     transform="matrix(1.3333333,0,0,-1.3333333,0,682.66667)"><g
       id="g281"><g
         id="g283"
         clip-path="url(#clipPath287)"><g
           id="g289"
           transform="translate(318.7861,264.1758)"><path
             d="m 0,0 v -68.297 c -26.413,7.211 -52.835,16.392 -79.248,23.603 V 23.603 C -52.835,16.392 -26.413,7.211 0,0"
             style="fill:#4f4c5f;fill-opacity:1;fill-rule:nonzero;stroke:none"
             id="path291" /></g><g
           id="g293"
           transform="translate(160.29,299.5796)"><path
             d="m 0,0 v -68.297 c -26.413,-0.65 -52.826,-7.211 -79.238,-23.602 l -23.163,34.148 23.163,34.148 C -52.826,-7.211 -26.413,-0.65 0,0"
             style="fill:#4f4c5f;fill-opacity:1;fill-rule:nonzero;stroke:none"
             id="path295" /></g><g
           id="g297"
           transform="translate(239.5381,287.7783)"><path
             d="m 0,0 v -68.297 c -26.413,7.211 -52.835,12.462 -79.248,11.801 V 11.801 C -52.835,12.461 -26.413,7.221 0,0"
             style="fill:#e8e8e8;fill-opacity:1;fill-rule:nonzero;stroke:none"
             id="path299" /></g><g
           id="g301"
           transform="translate(239.5381,356.0293)"><path
             d="m 0,0 v -68.297 c -26.413,7.211 -52.835,12.461 -79.248,11.801 V 11.801 C -52.835,12.461 -26.413,7.221 0,0"
             style="fill:#4f4c5f;fill-opacity:1;fill-rule:nonzero;stroke:none"
             id="path303" /></g><g
           id="g305"
           transform="translate(160.29,436.1934)"><path
             d="m 0,0 v -68.297 c -26.413,-0.65 -52.826,-7.211 -79.238,-23.602 l -23.163,36.896 23.163,31.4 C -52.826,-7.211 -26.413,-0.65 0,0"
             style="fill:#4f4c5f;fill-opacity:1;fill-rule:nonzero;stroke:none"
             id="path307" /></g><g
           id="g309"
           transform="translate(239.5381,424.2798)"><path
             d="m 0,0 v -68.297 c -26.413,7.211 -52.835,12.462 -79.248,11.801 V 11.801 C -52.835,12.461 -26.413,7.221 0,0"
             style="fill:#e8e8e8;fill-opacity:1;fill-rule:nonzero;stroke:none"
             id="path311" /></g><g
           id="g313"
           transform="translate(239.5381,492.5308)"><path
             d="m 0,0 v -68.297 c -26.413,7.211 -52.835,12.461 -79.248,11.801 V 11.801 C -52.835,12.461 -26.413,7.221 0,0"
             style="fill:#4f4c5f;fill-opacity:1;fill-rule:nonzero;stroke:none"
             id="path315" /></g><g
           id="g317"
           transform="translate(160.29,367.8862)"><path
             d="m 0,0 v -68.297 c -26.413,-0.65 -52.826,-7.21 -79.238,-23.602 l -23.163,36.225 23.163,32.072 C -52.826,-7.21 -26.413,-0.65 0,0"
             style="fill:#e8e8e8;fill-opacity:1;fill-rule:nonzero;stroke:none"
             id="path319" /></g><g
           id="g321"
           transform="translate(160.29,504.5)"><path
             d="m 0,0 v -68.297 c -26.413,-0.65 -52.826,-7.211 -79.238,-23.602 l -23.163,38.033 23.163,30.263 C -52.826,-7.21 -26.413,-0.65 0,0"
             style="fill:#e8e8e8;fill-opacity:1;fill-rule:nonzero;stroke:none"
             id="path323" /></g><g
           id="g325"
           transform="translate(398.0239,252.375)"><path
             d="m 0,0 v -68.297 c -26.413,-0.66 -52.825,4.58 -79.238,11.801 V 11.801 C -52.825,4.59 -26.413,-0.66 0,0"
             style="fill:#e8e8e8;fill-opacity:1;fill-rule:nonzero;stroke:none"
             id="path327" /></g><g
           id="g329"
           transform="translate(477.272,275.9771)"><path
             d="m 0,0 v -59.286 c 0,-5.691 -3.061,-10.981 -8.061,-13.711 -23.722,-12.961 -47.455,-18.322 -71.187,-18.902 v 68.297 C -52.825,-22.952 -26.423,-16.392 0,0"
             style="fill:#4f4c5f;fill-opacity:1;fill-rule:nonzero;stroke:none"
             id="path331" /></g><g
           id="g333"
           transform="translate(398.0239,320.6533)"><path
             d="m 0,0 v -68.297 c -26.413,-0.66 -52.825,4.581 -79.238,11.801 V 11.801 C -52.825,4.59 -26.413,-0.66 0,0"
             style="fill:#4f4c5f;fill-opacity:1;fill-rule:nonzero;stroke:none"
             id="path335" /></g><g
           id="g337"
           transform="translate(398.0239,252.3564)"><path
             d="m 0,0 v 68.297 c 26.423,0.65 52.825,7.211 79.248,23.602 V 23.621 C 52.825,7.229 26.423,0.668 0,0.019"
             style="fill:#e8e8e8;fill-opacity:1;fill-rule:nonzero;stroke:none"
             id="path339" /></g><g
           id="g341"
           transform="translate(398.0239,320.6353)"><path
             d="m 0,0 v 68.297 c 26.423,0.65 52.825,7.21 79.248,23.602 V 23.621 C 52.825,7.229 26.423,0.668 0,0.018"
             style="fill:#4f4c5f;fill-opacity:1;fill-rule:nonzero;stroke:none"
             id="path343" /></g><g
           id="g345"
           transform="translate(398.0239,388.9321)"><path
             d="m 0,0 v -68.297 c -26.413,-0.66 -52.825,4.58 -79.238,11.801 V 11.801 C -52.825,4.59 -26.413,-0.66 0,0"
             style="fill:#e8e8e8;fill-opacity:1;fill-rule:nonzero;stroke:none"
             id="path347" /></g><g
           id="g349"
           transform="translate(398.0239,457.2104)"><path
             d="m 0,0 v -68.297 c -26.413,-0.66 -52.825,4.581 -79.238,11.801 V 11.801 C -52.825,4.59 -26.413,-0.66 0,0"
             style="fill:#4f4c5f;fill-opacity:1;fill-rule:nonzero;stroke:none"
             id="path351" /></g><g
           id="g353"
           transform="translate(457.9639,470.5269)"><path
             d="m 0,0 c -19.98,-8.951 -39.954,-12.825 -59.94,-13.316 v -68.279 c 26.423,0.65 52.825,7.211 79.248,23.602 v 45.579 C 19.308,-2.482 9.064,4.061 0,0"
             style="fill:#e8e8e8;fill-opacity:1;fill-rule:nonzero;stroke:none"
             id="path355" /></g><g
           id="g357"
           transform="translate(318.7861,332.478)"><path
             d="m 0,0 v -68.297 c -26.413,7.211 -52.835,16.392 -79.248,23.602 V 23.602 C -52.835,16.392 -26.413,7.21 0,0"
             style="fill:#e8e8e8;fill-opacity:1;fill-rule:nonzero;stroke:none"
             id="path359" /></g><g
           id="g361"
           transform="translate(318.7861,400.7798)"><path
             d="m 0,0 v -68.297 c -26.413,7.211 -52.835,16.392 -79.248,23.603 V 23.603 C -52.835,16.392 -26.413,7.21 0,0"
             style="fill:#4f4c5f;fill-opacity:1;fill-rule:nonzero;stroke:none"
             id="path363" /></g><g
           id="g365"
           transform="translate(318.7861,469.0815)"><path
             d="m 0,0 v -68.297 c -26.413,7.211 -52.835,16.392 -79.248,23.603 V 23.603 C -52.835,16.392 -26.413,7.211 0,0"
             style="fill:#e8e8e8;fill-opacity:1;fill-rule:nonzero;stroke:none"
             id="path367" /></g><g
           id="g369"
           transform="translate(57.8887,241.8291)"><path
             d="m 0,0 23.163,-34.148 c 10,6.205 19.999,10.999 29.998,14.599 v 68.297 c -9.999,-3.6 -19.998,-8.394 -29.998,-14.6 z"
             style="fill:#423e4f;fill-opacity:1;fill-rule:nonzero;stroke:none"
             id="path371" /></g><g
           id="g373"
           transform="translate(57.8887,312.2124)"><path
             d="m 0,0 23.163,-36.225 c 10,6.205 19.999,10.999 29.998,14.6 V 46.671 C 43.162,43.071 33.163,38.277 23.163,32.072 Z"
             style="fill:#c7c5cb;fill-opacity:1;fill-rule:nonzero;stroke:none"
             id="path375" /></g><g
           id="g377"
           transform="translate(57.8887,381.1899)"><path
             d="m 0,0 23.163,-36.896 c 10,6.206 19.999,11 29.998,14.6 v 68.297 c -9.999,-3.6 -19.998,-8.395 -29.998,-14.6 z"
             style="fill:#423e4f;fill-opacity:1;fill-rule:nonzero;stroke:none"
             id="path379" /></g><g
           id="g381"
           transform="translate(57.8887,450.6338)"><path
             d="m 0,0 23.163,-38.033 c 10,6.206 19.999,11 29.998,14.6 v 53.688 c 0,4.815 -0.825,9.439 -2.322,13.75 -9.225,-3.493 -18.45,-8.016 -27.676,-13.741 z"
             style="fill:#c7c5cb;fill-opacity:1;fill-rule:nonzero;stroke:none"
             id="path383" /></g><g
           id="g385"
           transform="translate(69.0234,492.9155)"><path
             d="m 0,0 h -22.269 c -6.642,0 -12.026,-5.384 -12.026,-12.026 v -461.363 c 0,-6.642 5.384,-12.027 12.026,-12.027 H 0 c 6.642,0 12.026,5.385 12.026,12.027 V -12.026 C 12.026,-5.384 6.642,0 0,0"
             style="fill:#358bd8;fill-opacity:1;fill-rule:nonzero;stroke:none"
             id="path387" /></g><g
           id="g389"
           transform="translate(318.7856,264.1758)"><path
             d="m 0,0 v -68.297 c -26.413,7.211 -52.835,16.392 -79.248,23.603 V 23.603 C -52.835,16.392 -26.413,7.21 0,0 Z"
             style="fill:none;stroke:#000000;stroke-width:15;stroke-linecap:round;stroke-linejoin:round;stroke-miterlimit:10;stroke-dasharray:none;stroke-opacity:1"
             id="path391" /></g><g
           id="g393"
           transform="translate(160.2896,299.5791)"><path
             d="m 0,0 v -68.297 c -26.413,-0.65 -52.825,-7.21 -79.238,-23.602 v 68.297 C -52.825,-7.21 -26.413,-0.65 0,0 Z"
             style="fill:none;stroke:#000000;stroke-width:15;stroke-linecap:round;stroke-linejoin:round;stroke-miterlimit:10;stroke-dasharray:none;stroke-opacity:1"
             id="path395" /></g><g
           id="g397"
           transform="translate(239.5376,287.7783)"><path
             d="m 0,0 v -68.297 c -26.413,7.211 -52.835,12.461 -79.248,11.801 V 11.801 C -52.835,12.461 -26.413,7.221 0,0 Z"
             style="fill:none;stroke:#000000;stroke-width:15;stroke-linecap:round;stroke-linejoin:round;stroke-miterlimit:10;stroke-dasharray:none;stroke-opacity:1"
             id="path399" /></g><g
           id="g401"
           transform="translate(239.5376,356.0288)"><path
             d="m 0,0 v -68.297 c -26.413,7.211 -52.835,12.462 -79.248,11.801 V 11.801 C -52.835,12.461 -26.413,7.221 0,0 Z"
             style="fill:none;stroke:#000000;stroke-width:15;stroke-linecap:round;stroke-linejoin:round;stroke-miterlimit:10;stroke-dasharray:none;stroke-opacity:1"
             id="path403" /></g><g
           id="g405"
           transform="translate(239.5376,424.2798)"><path
             d="m 0,0 v -68.297 c -26.413,7.211 -52.835,12.461 -79.248,11.801 V 11.801 C -52.835,12.461 -26.413,7.221 0,0 Z"
             style="fill:none;stroke:#000000;stroke-width:15;stroke-linecap:round;stroke-linejoin:round;stroke-miterlimit:10;stroke-dasharray:none;stroke-opacity:1"
             id="path407" /></g><g
           id="g409"
           transform="translate(239.5376,492.5303)"><path
             d="m 0,0 v -68.297 c -26.413,7.211 -52.835,12.462 -79.248,11.801 V 11.801 C -52.835,12.461 -26.413,7.221 0,0 Z"
             style="fill:none;stroke:#000000;stroke-width:15;stroke-linecap:round;stroke-linejoin:round;stroke-miterlimit:10;stroke-dasharray:none;stroke-opacity:1"
             id="path411" /></g><g
           id="g413"
           transform="translate(398.0239,252.3745)"><path
             d="m 0,0 v -68.297 c -26.413,-0.66 -52.826,4.581 -79.238,11.801 V 11.801 C -52.826,4.59 -26.413,-0.66 0,0 Z"
             style="fill:none;stroke:#000000;stroke-width:15;stroke-linecap:round;stroke-linejoin:round;stroke-miterlimit:10;stroke-dasharray:none;stroke-opacity:1"
             id="path415" /></g><g
           id="g417"
           transform="translate(477.272,275.9771)"><path
             d="m 0,0 v -59.286 c 0,-5.691 -3.061,-10.981 -8.061,-13.712 -23.723,-12.961 -47.455,-18.321 -71.187,-18.901 v 68.296 C -52.826,-22.953 -26.423,-16.392 0,0 Z"
             style="fill:none;stroke:#000000;stroke-width:15;stroke-linecap:round;stroke-linejoin:round;stroke-miterlimit:10;stroke-dasharray:none;stroke-opacity:1"
             id="path419" /></g><g
           id="g421"
           transform="translate(398.0239,320.6533)"><path
             d="m 0,0 v -68.297 c -26.413,-0.66 -52.826,4.58 -79.238,11.801 V 11.801 C -52.826,4.59 -26.413,-0.66 0,0 Z"
             style="fill:none;stroke:#000000;stroke-width:15;stroke-linecap:round;stroke-linejoin:round;stroke-miterlimit:10;stroke-dasharray:none;stroke-opacity:1"
             id="path423" /></g><g
           id="g425"
           transform="translate(398.0239,252.3564)"><path
             d="m 0,0 v 68.297 c 26.422,0.65 52.825,7.21 79.248,23.602 V 23.621 C 52.825,7.229 26.422,0.668 0,0.018"
             style="fill:none;stroke:#000000;stroke-width:15;stroke-linecap:round;stroke-linejoin:round;stroke-miterlimit:10;stroke-dasharray:none;stroke-opacity:1"
             id="path427" /></g><g
           id="g429"
           transform="translate(398.0239,388.9316)"><path
             d="m 0,0 v -68.297 c -26.413,-0.66 -52.826,4.581 -79.238,11.801 V 11.801 C -52.826,4.59 -26.413,-0.66 0,0 Z"
             style="fill:none;stroke:#000000;stroke-width:15;stroke-linecap:round;stroke-linejoin:round;stroke-miterlimit:10;stroke-dasharray:none;stroke-opacity:1"
             id="path431" /></g><g
           id="g433"
           transform="translate(398.0239,320.6348)"><path
             d="m 0,0 v 68.297 c 26.422,0.65 52.825,7.211 79.248,23.602 V 23.621 C 52.825,7.229 26.422,0.668 0,0.019"
             style="fill:none;stroke:#000000;stroke-width:15;stroke-linecap:round;stroke-linejoin:round;stroke-miterlimit:10;stroke-dasharray:none;stroke-opacity:1"
             id="path435" /></g><g
           id="g437"
           transform="translate(398.0239,457.2104)"><path
             d="m 0,0 v -68.297 c -26.413,-0.66 -52.826,4.581 -79.238,11.801 V 11.801 C -52.826,4.59 -26.413,-0.66 0,0 Z"
             style="fill:none;stroke:#000000;stroke-width:15;stroke-linecap:round;stroke-linejoin:round;stroke-miterlimit:10;stroke-dasharray:none;stroke-opacity:1"
             id="path439" /></g><g
           id="g441"
           transform="translate(457.9639,470.5269)"><path
             d="m 0,0 c -19.98,-8.952 -39.955,-12.825 -59.94,-13.316 v -68.279 c 26.422,0.65 52.825,7.211 79.248,23.602 v 45.579 C 19.308,-2.482 9.064,4.061 0,0 Z"
             style="fill:none;stroke:#000000;stroke-width:15;stroke-linecap:round;stroke-linejoin:round;stroke-miterlimit:10;stroke-dasharray:none;stroke-opacity:1"
             id="path443" /></g><g
           id="g445"
           transform="translate(318.7856,332.4775)"><path
             d="m 0,0 v -68.297 c -26.413,7.211 -52.835,16.392 -79.248,23.603 V 23.603 C -52.835,16.392 -26.413,7.211 0,0 Z"
             style="fill:none;stroke:#000000;stroke-width:15;stroke-linecap:round;stroke-linejoin:round;stroke-miterlimit:10;stroke-dasharray:none;stroke-opacity:1"
             id="path447" /></g><g
           id="g449"
           transform="translate(318.7856,400.7798)"><path
             d="m 0,0 v -68.297 c -26.413,7.211 -52.835,16.392 -79.248,23.602 V 23.602 C -52.835,16.392 -26.413,7.21 0,0 Z"
             style="fill:none;stroke:#000000;stroke-width:15;stroke-linecap:round;stroke-linejoin:round;stroke-miterlimit:10;stroke-dasharray:none;stroke-opacity:1"
             id="path451" /></g><g
           id="g453"
           transform="translate(318.7856,469.0815)"><path
             d="m 0,0 v -68.297 c -26.413,7.211 -52.835,16.392 -79.248,23.602 V 23.602 C -52.835,16.392 -26.413,7.21 0,0 Z"
             style="fill:none;stroke:#000000;stroke-width:15;stroke-linecap:round;stroke-linejoin:round;stroke-miterlimit:10;stroke-dasharray:none;stroke-opacity:1"
             id="path455" /></g><g
           id="g457"
           transform="translate(81.0513,480.8975)"><path
             d="m 0,0 -0.002,-0.003 c 0,-0.002 0,-0.004 0,-0.005 V -68.293 L 0,-68.297 c 26.413,16.392 52.826,22.952 79.238,23.603 V 23.603 C 52.826,22.952 26.413,16.392 0,0 Z"
             style="fill:none;stroke:#000000;stroke-width:15;stroke-linecap:round;stroke-linejoin:round;stroke-miterlimit:10;stroke-dasharray:none;stroke-opacity:1"
             id="path459" /></g><g
           id="g461"
           transform="translate(81.0513,412.5903)"><path
             d="m 0,0 -0.002,-0.003 v -68.29 L 0,-68.296 c 26.413,16.391 52.826,22.952 79.238,23.602 V 23.603 C 52.826,22.953 26.413,16.392 0,0 Z"
             style="fill:none;stroke:#000000;stroke-width:15;stroke-linecap:round;stroke-linejoin:round;stroke-miterlimit:10;stroke-dasharray:none;stroke-opacity:1"
             id="path463" /></g><g
           id="g465"
           transform="translate(81.0513,344.2837)"><path
             d="m 0,0 -0.002,-0.003 v -68.29 L 0,-68.297 c 26.413,16.392 52.826,22.952 79.238,23.603 V 23.603 C 52.826,22.952 26.413,16.392 0,0 Z"
             style="fill:none;stroke:#000000;stroke-width:15;stroke-linecap:round;stroke-linejoin:round;stroke-miterlimit:10;stroke-dasharray:none;stroke-opacity:1"
             id="path467" /></g><g
           id="g469"
           transform="translate(81.0513,275.9771)"><path
             d="m 0,0 -0.002,-0.003 v -68.29 L 0,-68.297 c 26.413,16.392 52.826,22.952 79.238,23.602 V 23.602 C 52.826,22.952 26.413,16.392 0,0 Z"
             style="fill:none;stroke:#000000;stroke-width:15;stroke-linecap:round;stroke-linejoin:round;stroke-miterlimit:10;stroke-dasharray:none;stroke-opacity:1"
             id="path471" /></g><g
           id="g473"
           transform="translate(81.0493,124.6841)"><path
             d="m 0,0 v 356.205 c 0,6.642 -5.384,12.026 -12.026,12.026 h -22.269 c -6.643,0 -12.026,-5.384 -12.026,-12.026 v -61.216"
             style="fill:none;stroke:#000000;stroke-width:15;stroke-linecap:round;stroke-linejoin:round;stroke-miterlimit:10;stroke-dasharray:none;stroke-opacity:1"
             id="path475" /></g><g
           id="g477"
           transform="translate(34.728,389.6733)"><path
             d="m 0,0 v -370.147 c 0,-6.642 5.384,-12.026 12.026,-12.026 h 22.269 c 6.642,0 12.026,5.384 12.026,12.026 v 75.158"
             style="fill:none;stroke:#000000;stroke-width:15;stroke-linecap:round;stroke-linejoin:round;stroke-miterlimit:10;stroke-dasharray:none;stroke-opacity:1"
             id="path479" /></g><g
           id="g481"
           transform="translate(81.0493,126.1934)"><path
             d="M 0,0 C -0.103,118.275 -0.103,236.275 0,354.696"
             style="fill:none;stroke:#000000;stroke-width:15;stroke-linecap:round;stroke-linejoin:round;stroke-miterlimit:10;stroke-dasharray:none;stroke-opacity:1"
             id="path483" /></g><g
           id="g485"
           transform="translate(81.0493,19.5259)"><path
             d="M 0,0 C -0.103,24.942 -0.103,48.942 0,73.537"
             style="fill:none;stroke:#000000;stroke-width:15;stroke-linecap:round;stroke-linejoin:round;stroke-miterlimit:10;stroke-dasharray:none;stroke-opacity:1"
             id="path487" /></g></g></g></g></svg>
