<svg id="icon" height="512" viewBox="0 0 340 340" width="512" xmlns="http://www.w3.org/2000/svg"><path d="m183.166 155.768s-5.957-17.02 3.165-29.73l21.633 4.109s-8.341 16.941 1.563 43.786z" fill="#c5d6ad"/><path d="m221.394 151.976s16.455-6.118 17.3-24.05h20.674s.422 17.3-12.025 28.9l21.519 6.239s11.814 12.566 12.236 14.344 2.025 23.087 1.012 25.407-27.383 9.072-30.547 8.861-27.848-15.63-27.848-15.63l-16.242-22.116z" fill="#909d78"/><path d="m195.391 164.192s7.36-28.572 31.077-29.093l10.425 14.886s-20.85 6.225-17.462 33.591z" fill="#c5d6ad"/><path d="m227.52 192.206s9.362-7.157 9.311-22.279l18.139 1s5.716 19.243-8.406 35.6z" fill="#c5d6ad"/><path d="m121.929 141.828s.758-.63 2.148-1.576a44.866 44.866 0 0 1 51.027.55c9.314 6.562 25.724 18.881 39.655 33.292 0 0 20.429 21.03 38.736 23.762a15.971 15.971 0 0 0 11.781-2.6c3.361-2.436 6.565-6.876 5.836-14.879a15.811 15.811 0 0 0 -1.5-5.357 88.425 88.425 0 0 0 -4.262-7.837c-5.381-8.833 4.708-19.014 13.545-13.64 12.348 7.512 24.8 20.871 31.225 44.6 0 0 23.3 79.555-54.493 86.008 0 0-11.831 17.208-35.851 12.189.002.005-73.086-86.395-97.847-154.512z" fill="#f99995"/><path d="m232.9 11.856h21.329s-9.4 15.961 3.041 34.76h-22.95s-10.038-13.125-1.42-34.76z" fill="#c5d6ad"/><path d="m298.355 99.275-16.246-13.821s17.5-6.067 20.208-28.446l17.476 14.868s-.859 16.501-21.438 27.399z" fill="#c5d6ad"/><path d="m208.885 68.273 20.515 5.821s-13.4 12.791-6.559 34.27l-22.071-6.264s-6.07-15.363 8.115-33.827z" fill="#c5d6ad"/><path d="m313.138 230.327c-15.668 24.917-41.613 21.3-52.25 18.515a5.69 5.69 0 0 0 -6.363 2.528c-3.918 6.7-11.19 3.919-11.19 3.919-17.291-4.669-33.808-61.814-33.808-61.814-4.623-16.978-10.187-29.426-15.833-38.564-7.2-5.881-13.825-10.752-18.591-14.109a44.864 44.864 0 0 0 -51.026-.55c-1.39.946-2.148 1.576-2.148 1.576 24.761 68.117 97.849 154.517 97.849 154.517 24.02 5.019 35.851-12.189 35.851-12.189 44.224-3.668 55.771-30.956 57.509-53.829z" fill="#d86667"/><path d="m76.113 257.8s.165 18.3 1.345 35.551a18.09 18.09 0 0 0 13.723 16.481c.135.032.272.063.409.092a18.189 18.189 0 0 0 20.51-10.859c4.654-11.044 11.256-30.911 13.519-58.587l-7.156-10.336z" fill="#6f6a7f"/><path d="m108.363 241.106 23.408 64.511s-5.928 15.545 5.579 19.454c0 0 18.481 6.9 53.7 0 24.549-4.81 35.206-15.247 39.409-21.129a9.133 9.133 0 0 0 -.055-11.009 7.549 7.549 0 0 0 -3.088-2.311s-24.244-80.881-54.175-127.555z" fill="#978faa"/><path d="m76.113 190.528s15.165-13.728 27.587-22.015l14.765 25.987-27.187 19.089z" fill="#ed9b8e"/><path d="m91.278 150.954s14.7 21.676 14.948 45.1l34.334-34.132s-15.593-15.635-19.972-34.859z" fill="#ffddcf"/><path d="m196.582 293.839a86.327 86.327 0 0 1 -32.281-2.8 10.077 10.077 0 0 1 -6.723-6.381l-13.136-37.825a13.81 13.81 0 0 1 2.016-12.813c16.3-21.756 26.353-48.667 26.353-48.667l-13.619-2.91-4.413 2.747-46.416 55.918 23.408 64.511s-5.928 15.545 5.579 19.454c0 0 12.238 4.568 35.771 2.553a24 24 0 0 1 -7.095-15.07 8.94 8.94 0 0 1 7.92-9.872 100.447 100.447 0 0 0 23.364-5.75 1.6 1.6 0 0 0 -.728-3.095z" fill="#6f6a7f"/><path d="m82.161 185.238c5.535 4.61 15.809 13.24 34.465 7.98l.726-.51-13.714-24.259a209.164 209.164 0 0 0 -21.477 16.789z" fill="#ffddcf"/><path d="m126.129 141.731a62.056 62.056 0 0 1 -5.541-14.673l-29.31 23.9s14.7 21.676 14.948 45.1l10.018-9.958a110.273 110.273 0 0 0 -5.735-21.542 8.824 8.824 0 0 1 2.058-9.378z" fill="#ed9b8e"/><path d="m32.729 90.356 4.49 32.427-3.581 7.474a13.189 13.189 0 0 0 -.532 10.087 97.257 97.257 0 0 0 19.277 32.138 11.952 11.952 0 0 0 15.88 1.453l50.64-39.373a15.237 15.237 0 0 0 6.522-10.135l1.318-7.908c.071-.428.124-.855.159-1.288.3-3.709 1.8-20.835-2.2-36.6z" fill="#ffddcf"/><path d="m69.1 99.257 57.856-8.963a85.542 85.542 0 0 0 -2.05-11.662l-91.979 11.724 4.49 32.427-3.582 7.474a13.189 13.189 0 0 0 -.531 10.087 97.258 97.258 0 0 0 19.276 32.138 11.953 11.953 0 0 0 15.881 1.453l15.862-12.335c-11.383-18.285-17.576-44.2-19.9-55.643a5.643 5.643 0 0 1 4.677-6.7z" fill="#ed9b8e"/><path d="m76 84.933a40.122 40.122 0 0 0 14.342 23.183 15.066 15.066 0 0 1 1.968-4.521c4.327-6.722 14.853-5.516 17.182 2.131a8.916 8.916 0 0 1 -.517 6.365 9.217 9.217 0 0 1 -2.975 3.759l-.086.062a6.586 6.586 0 0 0 -1.732 9.1l10.209 14.907 6.431-4.743a15.237 15.237 0 0 0 6.523-10.135l1.318-7.908c.071-.429.124-.855.158-1.288.3-3.709 1.441-21.449-2.555-37.213z" fill="#5d5d72"/><path d="m28.623 97.871c14.89-2.871 59.087-10.927 99.325-13.551a6.463 6.463 0 0 0 6.048-6.7c-.18-4.208-1.742-9.324-7.741-11.456 0 0-5.882-48.547-51.351-48.057 0 0-15.335 1.481-20.132 3.245-12.183 4.483-33.303 18.208-30.148 59.228a11.344 11.344 0 0 0 -4 12.145 6.9 6.9 0 0 0 7.999 5.146z" fill="#978faa"/><path d="m105.593 126.355a47.292 47.292 0 0 1 -38.568 0c-16.7-8.7-29.806-3.572-29.806-3.572l-3.581 7.474a13.189 13.189 0 0 0 -.532 10.087 97.247 97.247 0 0 0 19.277 32.138 11.952 11.952 0 0 0 15.88 1.453l52.562-38.759a15.237 15.237 0 0 0 6.523-10.135l1.318-7.908v-.018c-6.826 2.541-14.894 5.696-23.073 9.24z" fill="#978faa"/><path d="m67.025 126.355c-16.7-8.7-29.806-3.572-29.806-3.572l-3.581 7.474a13.189 13.189 0 0 0 -.532 10.087 97.247 97.247 0 0 0 19.277 32.138 11.952 11.952 0 0 0 15.88 1.453l16.133-11.9c-6.535-10.351-11.378-23.232-14.777-34.564a26.307 26.307 0 0 1 -2.594-1.116z" fill="#6f6a7f"/><path d="m133.262 155.056c-10.762 9.531-15.251 26.421-41.984 50.915l-15.165-15.443s-24.348 20.228-33.995 50.051a21.338 21.338 0 0 0 -.989 5.442c0 .071-.007.142-.011.214a22.469 22.469 0 0 0 26.51 23.065 49.8 49.8 0 0 0 15.327-5.859s73.707-43.244 90.393-79.2a23.969 23.969 0 0 0 2.145-12.729c-.013-.113-.026-.226-.039-.341a25.42 25.42 0 0 0 -42.192-16.115z" fill="#978faa"/><path d="m91.278 205.971-15.165-15.443s-24.348 20.228-33.995 50.051a21.338 21.338 0 0 0 -.989 5.442c0 .071-.007.142-.011.214a22.477 22.477 0 0 0 23.076 23.43c-13.094-37.847 27.084-63.694 27.084-63.694z" fill="#6f6a7f"/><path d="m265.276 195.259s20.14-10.9 13.987-41.484c-.122-.076-.244-.154-.366-.229-8.837-5.374-18.926 4.807-13.545 13.64a88.425 88.425 0 0 1 4.262 7.837 15.811 15.811 0 0 1 1.5 5.357c.727 8.003-2.477 12.443-5.838 14.879z" fill="#d86667"/><path d="m220.926 95.212c-14.026-1.832-16.634-12.207-16.492-20.131-8.3 15.285-3.664 27.022-3.664 27.022l22.075 6.261a38.86 38.86 0 0 1 -1.919-13.152z" fill="#909d78"/><path d="m239.473 32.688c0-10.2 7.178-13.916 12.565-15.266a25.67 25.67 0 0 1 2.186-5.566h-21.324c-8.613 21.635 1.425 34.76 1.425 34.76h12.949c-4.328-3.249-7.801-7.757-7.801-13.928z" fill="#909d78"/><path d="m307.722 92.914c-10.715-12.554-2.68-24.042 2.38-29.283l-7.785-6.623c-2.706 22.379-20.208 28.446-20.208 28.446l16.246 13.821a49.45 49.45 0 0 0 9.367-6.361z" fill="#909d78"/><path d="m41.093 95.312c-1.777-13.574 3.58-18.271 3.58-18.271l33.362-5.57a2.412 2.412 0 0 0 -.237-4.786c-4.624-.326-9.215-.516-13.46-.617a19.85 19.85 0 0 1 -18.8-24.693 48.933 48.933 0 0 1 10.28-20.357c-.389.111-.741.223-1.05.336-12.179 4.481-33.3 18.206-30.144 59.226a11.344 11.344 0 0 0 -4 12.145 6.9 6.9 0 0 0 8 5.146c3.035-.585 7.3-1.388 12.491-2.314-.009-.082-.015-.164-.022-.245z" fill="#6f6a7f"/><path d="m122.2 119.814s-.1-21.084 35.134-19.589c0 0 5.5 31.145-31.972 21.875z" fill="#978faa"/><g fill="#3d3c4c"><path d="m234.32 50.616h22.946a4 4 0 0 0 3.336-6.208c-10.825-16.355-3.248-29.97-2.931-30.522a4 4 0 0 0 -3.446-6.03h-21.331a4 4 0 0 0 -3.716 2.52c-9.344 23.473 1.5 38.06 1.965 38.67a4 4 0 0 0 3.177 1.57zm1.362-34.76h12.63a37.615 37.615 0 0 0 2.143 26.76h-13.913c-1.893-3.542-5.542-12.934-.86-26.76z"/><path d="m279.518 88.5 16.246 13.821a4 4 0 0 0 4.464.488c22.327-11.824 23.52-29.96 23.559-30.726a4 4 0 0 0 -1.4-3.255l-17.479-14.867a4 4 0 0 0 -6.562 2.567c-2.354 19.472-16.946 24.931-17.546 25.147a4 4 0 0 0 -1.281 6.826zm25.394-24.033 10.6 9.015c-.856 3.957-4.159 13.446-16.685 20.939l-9.619-8.183a37.618 37.618 0 0 0 15.704-21.77z"/><path d="m199.679 105.951 22.074 6.261a4 4 0 0 0 4.9-5.061c-5.949-18.688 5.055-29.719 5.51-30.164a4 4 0 0 0 -1.67-6.741l-20.519-5.821a4 4 0 0 0 -4.264 1.411c-15.395 20.032-8.944 37.024-8.662 37.738a4 4 0 0 0 2.631 2.377zm10.8-33.069 12.15 3.447a37.609 37.609 0 0 0 -5.241 26.329l-13.388-3.797c-.855-3.924-1.8-13.955 6.475-25.979z"/><path d="m16.74 93.681a10.875 10.875 0 0 0 12.641 8.119l.872-.168 2.84 20.508-3.063 6.39a17.09 17.09 0 0 0 -.7 13.143 101.326 101.326 0 0 0 20.1 33.516 15.786 15.786 0 0 0 11.67 5.117 16.038 16.038 0 0 0 9.538-3.152l21.712-16.011a83.7 83.7 0 0 1 9.43 28.5c-3 3.387-6.409 6.96-10.382 10.742l-9.478-9.653c2.464-2.15 6.167-5.321 10.314-8.669a4 4 0 1 0 -5.025-6.224c-7.365 5.945-13.183 11.184-13.73 11.679-1.7 1.423-25.426 21.715-35.167 51.829a25.342 25.342 0 0 0 -1.177 6.454l-.013.247a26.492 26.492 0 0 0 26.378 27.636 26.548 26.548 0 0 0 4.862-.45 54.227 54.227 0 0 0 16.619-6.342c1.477-.867 19.053-11.251 38.739-25.89l22.4 61.873c-1.215 3.453-3.42 11.853.111 20.134a45.975 45.975 0 0 1 -7.485-1.685l-.113-.041a5.692 5.692 0 0 1 -3.6-3.013c-1.161-2.452-.856-5.872-.319-8.41a20.739 20.739 0 0 0 3.2-.3 4 4 0 1 0 -1.369-7.882 12.851 12.851 0 0 1 -1.888.184l-10.626-29.284-.014-.039-5.817-16.031a4 4 0 1 0 -7.519 2.728l5.411 14.914a161.935 161.935 0 0 1 -7.682 23.363 14.167 14.167 0 0 1 -15.979 8.5l-.34-.077a14.169 14.169 0 0 1 -10.648-12.86c-.22-3.217-.421-6.736-.6-10.459a4 4 0 0 0 -7.991.38c.18 3.779.384 7.354.609 10.625a22.224 22.224 0 0 0 16.8 20.1l.476.107a21.65 21.65 0 0 0 4.609.5 22.278 22.278 0 0 0 20.437-13.707c1.807-4.287 3.467-8.841 4.978-13.606l6.77 18.66c-.932 3.078-2.507 10.111.256 15.986a13.72 13.72 0 0 0 8.224 7.184c.963.349 9.582 3.3 25.43 3.3a158.209 158.209 0 0 0 30.379-3.146c25.952-5.085 37.388-16.423 41.9-22.729a13.141 13.141 0 0 0 -.2-15.846 11.722 11.722 0 0 0 -2.862-2.567c-3.669-11.953-26.139-83.113-53.967-126.664a29.441 29.441 0 0 0 -41.63-12.4 69.765 69.765 0 0 1 -4.7-7.631 40.684 40.684 0 0 1 42.441 2.91c8.634 6.082 25.191 18.431 39.09 32.809.851.876 20.576 20.986 39.563 24.674.047.011.094.016.141.025.437.083.874.167 1.31.232a19.864 19.864 0 0 0 14.72-3.314c3.918-2.841 8.395-8.352 7.471-18.479a19.7 19.7 0 0 0 -1.87-6.716 92.31 92.31 0 0 0 -4.457-8.2 5.709 5.709 0 0 1 .88-7.265 5.634 5.634 0 0 1 7.169-.875c14.31 8.7 24.216 22.911 29.466 42.308.1.35 10.05 35.226-6.24 58.957-8.7 12.673-23.51 20.021-44.009 21.866-9.543-2.878-11.126-9.158-11.212-9.538a4 4 0 0 0 -7.858 1.5c.075.408 1.722 8.681 11.683 13.7a30.938 30.938 0 0 1 -5.883 4.021 4 4 0 1 0 3.714 7.085 38.423 38.423 0 0 0 11.218-8.881c22.507-2.213 38.967-10.7 48.943-25.228 18.416-26.829 7.784-64.158 7.344-65.654-5.781-21.364-16.886-37.168-33.007-46.974a13.639 13.639 0 0 0 -16.986 2.055 14.233 14.233 0 0 0 -3.013 4.433l-6.416-1.861c9.044-12.037 8.822-26.246 8.8-26.928a4 4 0 0 0 -4-3.9h-20.671a4 4 0 0 0 -4 3.814 23.916 23.916 0 0 1 -.384 3.331 4 4 0 0 0 7.864 1.476c.038-.206.075-.413.109-.621h12.8c-.666 5.306-2.913 14.928-10.474 21.976a4 4 0 0 0 1.613 6.768l13.909 4.033a14.221 14.221 0 0 0 1.8 4.564 83.83 83.83 0 0 1 4.071 7.48 11.739 11.739 0 0 1 1.125 4c.467 5.124-.946 8.918-4.2 11.276a10.846 10.846 0 0 1 -4.828 1.9 44.778 44.778 0 0 0 .7-24.123 4 4 0 0 0 -3.613-2.855l-17.184-.958a4 4 0 0 0 -4.158 3.282c-.021.114-.512 2.847-.921 6.2a4 4 0 1 0 7.941.966c.1-.8.2-1.566.3-2.264l10.523.583a37.492 37.492 0 0 1 -1.71 18.205c-10.184-3.03-20.717-11.185-26.893-16.579.676-17.89 14.375-22.383 14.953-22.564a4 4 0 0 0 2.132-6.127l-10.422-14.888a4.028 4.028 0 0 0 -3.364-1.7 31 31 0 0 0 -16.205 4.946 26.508 26.508 0 0 1 1.377-4.132 4 4 0 0 0 -2.843-5.7l-21.633-4.109a4 4 0 0 0 -4 1.6 31.4 31.4 0 0 0 -5.411 14.012c-.085-.059-.18-.128-.263-.186a48.667 48.667 0 0 0 -49.144-4.277 19.242 19.242 0 0 0 3.03-7.556 4.07 4.07 0 0 0 .053-.528c.129-3.966-1.433-6.243-2.766-7.454a7.988 7.988 0 0 0 -1.634-1.148c1.741-4.441 7.515-12.065 26.66-12.372 0 2.963-.5 7.353-3.031 10.65-2.2 2.868-5.56 4.462-10.272 4.874a4 4 0 0 0 .343 7.985q.177 0 .354-.015c6.974-.61 12.331-3.293 15.923-7.974 6.356-8.286 4.43-19.706 4.346-20.188a4 4 0 0 0 -3.823-3.3c-9.833-.292-17.973 1.025-24.341 3.905q-.021-.59-.049-1.193-.041-.914-.094-1.815c-.016-.273-.031-.545-.048-.822q-.042-.653-.09-1.3c-.016-.217-.034-.436-.052-.655q-.082-1.044-.18-2.072-.044-.448-.09-.9c-.037-.36-.074-.72-.115-1.077q-.1-.9-.218-1.813c-.03-.236-.063-.469-.095-.7-.021-.156-.042-.312-.064-.468a10.5 10.5 0 0 0 5.982-9.86c-.279-6.509-3.142-11.416-8.133-14.061-1.266-6.843-6.309-27.164-23.007-39.556-11.777-8.74-26.724-11.61-44.437-8.536a47.506 47.506 0 0 0 -22.77 10.064c-9.786 7.9-20.926 23.566-19.14 53.543a15.271 15.271 0 0 0 -3.761 14.769zm171.511 36.793 14.4 2.735a55.521 55.521 0 0 0 -1.906 12.589c0 .052 0 .1-.006.155-.042 1.073-.068 2.175-.052 3.335a4 4 0 0 0 4 3.947h.053a4 4 0 0 0 3.948-4.052c-.007-.491 0-.962 0-1.434 4.51-5.018 9.809-7.875 15.788-8.517l6.371 9.1a31.678 31.678 0 0 0 -14.962 21.215 284.73 284.73 0 0 0 -30.627-26.3 26.024 26.024 0 0 1 2.993-12.773zm-140.518-52.245a4 4 0 0 0 .633-2.63c-3.177-29.037 3.856-42.313 9.5-48.165-.52 8.854.087 23.975 6.157 45.082a27.706 27.706 0 0 0 .441 15.09c-7.024 1.085-13.523 2.165-19.243 3.16-1.268-6.532 2.479-12.484 2.512-12.537zm-4.453 21 .049-.009c7.72-1.368 17.135-2.945 27.512-4.492.1-.01.191-.025.287-.042 16.272-2.42 34.872-4.756 52.982-6.086.01.072.021.143.031.216.035.257.071.515.1.771q.1.814.2 1.645c.039.347.074.691.109 1.035q.043.411.082.827.088.926.16 1.835c.02.248.04.5.059.746.028.388.054.771.078 1.152.022.337.041.676.06 1.016q.04.72.072 1.42.03.66.054 1.326c.011.307.02.609.029.908q.027.942.042 1.9c.01.673.015 1.317.016 1.938-.051.047-.106.091-.156.139a22.127 22.127 0 0 0 -6.475 11.227c-3.985 1.562-7.839 3.129-11.514 4.685a2.683 2.683 0 0 1 1.151-2.191l.145-.1a13.227 13.227 0 0 0 4.275-5.378 12.846 12.846 0 0 0 .683-9.146 13.163 13.163 0 0 0 -10.935-9.227 13.577 13.577 0 0 0 -13.437 6.1c-.061.1-.122.192-.18.287-.732-.816-1.571-1.855-2.579-3.209a4 4 0 1 0 -6.416 4.778c3.39 4.553 5.663 6.739 8.683 8.357a4.022 4.022 0 0 0 5.794-2.666 11.384 11.384 0 0 1 1.425-3.217 5.671 5.671 0 0 1 5.608-2.5 5.176 5.176 0 0 1 4.385 3.634 5.022 5.022 0 0 1 -.351 3.587 5.274 5.274 0 0 1 -1.711 2.174 10.58 10.58 0 0 0 -4.111 11.714 42.544 42.544 0 0 1 -30.614-1.558c-12.088-6.3-22.519-5.963-28.3-4.974l-2.447-17.676q2.43-.461 5.155-.945zm22.609 71.485a7.92 7.92 0 0 1 -10.56-.938 92.992 92.992 0 0 1 -18.45-30.762 9.135 9.135 0 0 1 .366-7.03l2.824-5.894c3.525-.9 13.2-2.395 25.091 3.8.778.409 19.2 9.864 41.734.25.017-.008.035-.013.052-.021.079-.034.158-.063.238-.1 4.92-2.132 10.222-4.3 15.771-6.459a.971.971 0 0 1 .225.05 2.156 2.156 0 0 1 .173 1.041 11.284 11.284 0 0 1 -4.761 7.2c-.047.032-.095.065-.141.1zm32.964-14.367 22.117-16.309c.075.173.149.346.225.517a3.939 3.939 0 0 0 .5 1.207c.032.05.074.088.107.135a76.952 76.952 0 0 0 6.986 11.9c-3.771 3.817-6.883 8.476-10.407 13.762-2.79 4.185-5.9 8.834-9.89 13.991a97.342 97.342 0 0 0 -9.638-25.202zm126.977 137.989a3.555 3.555 0 0 1 1.462 1.111 5.13 5.13 0 0 1 -.086 6.169c-3.816 5.339-13.687 14.976-36.925 19.53a142.762 142.762 0 0 1 -34.063 2.846c-5.024-5.789-4.121-12.909-3.1-16.716 1.469.121 3.377.22 5.708.22a109.306 109.306 0 0 0 24.206-2.94 4 4 0 1 0 -1.783-7.8c-13.931 3.185-23.784 2.873-27.931 2.5l-22.932-63.328c19.111-14.849 38.719-33.049 46.587-50a28.86 28.86 0 0 0 1.848-5.277c25.053 46.21 44.445 110.4 44.66 111.119a4 4 0 0 0 2.349 2.566zm-68.055-140.352a21.274 21.274 0 0 1 13.71 17.7l.033.272a20.009 20.009 0 0 1 -1.8 10.605c-15.967 34.4-88.063 77-88.734 77.4a46.169 46.169 0 0 1 -14.091 5.41 18.469 18.469 0 0 1 -21.778-18.971l.008-.165a17.386 17.386 0 0 1 .8-4.422c7.287-22.528 23.565-39.6 30.027-45.738l9.53 9.706a157.566 157.566 0 0 1 -15.075 11.619 4 4 0 1 0 4.438 6.657 168.8 168.8 0 0 0 19.136-15.137l.026-.024a185.416 185.416 0 0 0 14.881-15.241c.072-.079.144-.156.21-.24a201.1 201.1 0 0 0 15.942-21.415c3.923-5.883 7.022-10.531 10.876-13.944a21.145 21.145 0 0 1 21.861-4.072zm-36.332-91.646c-6.174.272-17.35.928-27.222 2.377a4 4 0 1 0 1.162 7.915c12.06-1.77 26.64-2.328 30.172-2.442 1.961.848 4.232 2.648 4.445 7.605a2.468 2.468 0 0 1 -2.313 2.535h-.053a4.057 4.057 0 0 0 -.847.055l-.017.005c-18.378 1.234-37.412 3.547-54.2 6-2.7-6.1-.623-12.519-.6-12.574a4 4 0 0 0 .058-2.438c-7.111-24.2-6.64-40.145-5.844-47.081a43.594 43.594 0 0 1 23.741 19.453 4 4 0 0 0 6.959-3.948 50.093 50.093 0 0 0 -16.511-17.475 41.857 41.857 0 0 1 21.662 7.9c12.671 9.369 17.658 24.688 19.408 32.113zm-75.6-31.725c-4.563 8.9-7.764 22.841-5.571 44.551-1.471 2.754-4.369 9.436-2.927 17-3.713.676-6.913 1.281-9.484 1.776a2.906 2.906 0 0 1 -3.356-2.174 7.462 7.462 0 0 1 1.9-7.489l4.118-.912a4 4 0 1 0 -1.73-7.81l-.437.1c-.809-25.055 8.337-38.186 17.491-45.042z"/><path d="m199.478 299.47a3.993 3.993 0 0 0 1.387-.249l1.095-.409a4 4 0 0 0 -2.818-7.487l-1.05.392a4 4 0 0 0 1.386 7.753z"/><path d="m46.768 108.524a4 4 0 0 0 3.952 3.414 4.1 4.1 0 0 0 .591-.043l3.51-.52a4 4 0 0 0 -1.172-7.914l-3.51.52a4 4 0 0 0 -3.371 4.543z"/><path d="m94.792 56.291.027.1c.022.11.043.2.06.276a4 4 0 0 0 7.793-1.812l-.027-.115c-.037-.194-.078-.351-.106-.462a4 4 0 1 0 -7.744 2.009z"/></g></svg>