<svg height="512" viewBox="0 0 128 128" width="512" xmlns="http://www.w3.org/2000/svg"><g><path d="m85.708 80.98v39.29h-72.12v-26.64a12.652 12.652 0 0 1 12.65-12.65z" fill="#5e92a8"/><path d="m77.2 31.547a25.5 25.5 0 0 1 -.5 4.958l-44.947-.172a25.491 25.491 0 0 1 -.468-4.963c0-.436.011-.872.046-1.308.675-12.726 10.731-22.806 22.99-22.762s22.249 10.2 22.841 22.935c.032.439.038.875.038 1.312z" fill="#4c7b9b"/><path d="m33.826 36.419h5.819a0 0 0 0 1 0 0v15.9a0 0 0 0 1 0 0h-5.819a5.409 5.409 0 0 1 -5.409-5.409v-5.08a5.409 5.409 0 0 1 5.409-5.409z" fill="#f4cbbd"/><path d="m74.338 36.419h5.819a0 0 0 0 1 0 0v15.9a0 0 0 0 1 0 0h-5.819a5.409 5.409 0 0 1 -5.409-5.409v-5.08a5.409 5.409 0 0 1 5.409-5.411z" fill="#f4cbbd" transform="matrix(-1 0 0 -1 149.087 88.736)"/><g><ellipse cx="54.221" cy="74.456" fill="#326277" rx="28.109" ry="14.094"/><path d="m67.178 76.3a5.013 5.013 0 0 1 -3.384-4.784v-7.945h-19.014v7.947a5.013 5.013 0 0 1 -3.38 4.782l-.083.026s4.061 5.161 12.974 5.161 12.974-5.161 12.974-5.161z" fill="#f4cbbd"/></g><path d="m34.031 33.529v18.092c0 11.548 9.069 20.909 20.256 20.909s20.256-9.361 20.256-20.909v-18.092z" fill="#fcd4c3"/><path d="m80.725 32.4a4.163 4.163 0 0 1 -1.093 2.839 3.573 3.573 0 0 1 -2.632 1.18h-45.429a3.883 3.883 0 0 1 -3.722-4.02 4.165 4.165 0 0 1 1.093-2.84 3.585 3.585 0 0 1 2.429-1.172 1.488 1.488 0 0 1 .2-.009h45.429a1.488 1.488 0 0 1 .2.009 3.9 3.9 0 0 1 3.525 4.013z" fill="#326277"/><path d="m74.538 51.614q-20.164 9.3-40.507 0v-8.842h40.507z" fill="#326277"/><g fill="#e55151"><path d="m40.29 42.772h11.076a0 0 0 0 1 0 0v3.719a2.591 2.591 0 0 1 -2.591 2.591h-5.894a2.591 2.591 0 0 1 -2.591-2.591v-3.719a0 0 0 0 1 0 0z"/><path d="m57.208 42.772h11.076a0 0 0 0 1 0 0v3.719a2.591 2.591 0 0 1 -2.591 2.591h-5.893a2.591 2.591 0 0 1 -2.591-2.591v-3.719a0 0 0 0 1 -.001 0z"/></g><g><path d="m94.569 67.69h-3.751a3.146 3.146 0 0 1 -2.871-2.007l-2.244-5.4a3.388 3.388 0 0 1 2.871-4.783h8.239a3.389 3.389 0 0 1 2.871 4.793l-2.244 5.4a3.146 3.146 0 0 1 -2.871 1.997z" fill="#7acc82"/><path d="m114.382 98.338s.044-24.5-21.689-28.669c-21.733 4.172-21.688 27.492-21.688 27.492-1.382 30.586 44.758 31.763 43.377 1.177z" fill="#7acc82"/><path d="m92.693 73.784a30.435 30.435 0 0 1 -7.62-.978 4.146 4.146 0 0 1 -2.823-4.964 3.81 3.81 0 0 1 4.595-3.048 23.156 23.156 0 0 0 11.7 0 3.811 3.811 0 0 1 4.594 3.048 4.144 4.144 0 0 1 -2.822 4.964 30.443 30.443 0 0 1 -7.624.978z" fill="#8ddb92"/></g></g><g><path d="m41.73 118.52h-12.616v-15.678a1.75 1.75 0 1 0 -3.5 0v15.678h-10.274v-24.89a10.8 10.8 0 0 1 .618-3.63 1.75 1.75 0 1 0 -3.3-1.175 14.267 14.267 0 0 0 -.822 4.807v26.64a1.75 1.75 0 0 0 1.75 1.75h28.144a1.75 1.75 0 1 0 0-3.5z"/><path d="m63 118.52h-13.27a1.75 1.75 0 0 0 0 3.5h13.27a1.75 1.75 0 0 0 0-3.5z"/><path d="m116.13 98.3c-.007-1.17-.334-17.307-12.357-25.854a6.143 6.143 0 0 0 1.076-4.983 5.877 5.877 0 0 0 -2.611-3.727 5.344 5.344 0 0 0 -1.8-.688l.868-2.083v-.005a5.355 5.355 0 0 0 -.489-5.035 4.824 4.824 0 0 0 -4-2.183h-8.237a4.775 4.775 0 0 0 -4.009 2.186 5.357 5.357 0 0 0 -.486 5.037l.866 2.078a5.388 5.388 0 0 0 -1.784.68 5.848 5.848 0 0 0 -2.5 3.271 22.927 22.927 0 0 0 -7-4.633 23 23 0 0 0 2.514-8.433 7.171 7.171 0 0 0 5.729-7.018v-5.08a7.162 7.162 0 0 0 -1.76-4.713 5.5 5.5 0 0 0 .761-.684 5.891 5.891 0 0 0 1.569-4.033 5.723 5.723 0 0 0 -3.958-5.533c-2.073-12.186-12.243-21.267-24.196-21.317-12.047-.088-22.34 9.057-24.4 21.369a5.424 5.424 0 0 0 -2.274 1.458 5.93 5.93 0 0 0 -1.552 4.023 5.861 5.861 0 0 0 2.344 4.728 7.121 7.121 0 0 0 -1.774 4.7v5.08a7.173 7.173 0 0 0 5.73 7.016 22.907 22.907 0 0 0 2.492 8.376c-6.717 2.978-10.532 7.338-10.532 12.16a9.542 9.542 0 0 0 1.35 4.789 14.307 14.307 0 0 0 -7.543 2.451 1.75 1.75 0 0 0 1.965 2.9c3.662-2.484 7.077-1.732 8.486-1.868 6.289 5.544 17.156 7.57 25.6 7.57a51.429 51.429 0 0 0 16.642-2.628 36.858 36.858 0 0 0 -1.593 9.116v.149c-.17 9.269 2.523 16.621 10.316 21.581h-8.583a1.75 1.75 0 0 0 0 3.5h14.71a1.735 1.735 0 0 0 1.107-.405 26.19 26.19 0 0 0 6.532.842c12.972-.002 23.443-9.157 22.781-24.157zm-28.65-40.428a1.332 1.332 0 0 1 1.1-.632h8.24a1.32 1.32 0 0 1 1.089.629 1.865 1.865 0 0 1 .165 1.75l-1.6 3.831-.106.021a22.882 22.882 0 0 1 -3.667.322h-.015a22.653 22.653 0 0 1 -3.774-.342l-1.6-3.829a1.867 1.867 0 0 1 .168-1.75zm-3.522 10.347a2.365 2.365 0 0 1 1.042-1.513c1.384-.846 2.249.588 7.7.588 4.888 0 6.481-1.335 7.707-.58a2.321 2.321 0 0 1 1.03 1.506 2.483 2.483 0 0 1 -1.268 2.8c-2.459 1.009-8.938 1.569-14.667.1a1.6 1.6 0 0 1 -.294-.12 2.468 2.468 0 0 1 -1.25-2.781zm-21 .337a18.307 18.307 0 0 1 -17.335 0 19.669 19.669 0 0 1 -9.647-14.214 47.9 47.9 0 0 0 36.634 0 19.115 19.115 0 0 1 -9.653 14.214zm-18.715 8.09a6.854 6.854 0 0 0 2.157-3.786c0-.026.015-.05.02-.075.018.007.036.011.053.018a21.47 21.47 0 0 0 15.7-.018 7.056 7.056 0 0 0 2.166 3.867c-5.503 4.112-14.539 4.159-20.097-.006zm-8.463-26.182v-5.944h2.76v1.97a4.345 4.345 0 0 0 4.34 4.34h5.9a4.345 4.345 0 0 0 4.34-4.34v-1.97h2.34v1.97a4.345 4.345 0 0 0 4.34 4.34h5.9a4.345 4.345 0 0 0 4.34-4.34v-1.97h2.75v5.957c-12.816 5.531-24.844 5.181-37.01-.013zm13.84-5.944v1.97a.841.841 0 0 1 -.84.84h-5.9a.841.841 0 0 1 -.84-.84v-1.97zm16.92 0v1.97a.841.841 0 0 1 -.84.84h-5.9a.841.841 0 0 1 -.84-.84v-1.97zm6.26-3.5h-37.02v-2.85l37.02.075zm5.61 5.89a3.668 3.668 0 0 1 -2.11 3.316v-11.711a3.634 3.634 0 0 1 2.11 3.315zm-24.167-37.86h.07c9.979.043 18.538 7.471 20.63 17.58h-41.406c2.098-10.161 10.685-17.58 20.706-17.58zm-24.02 21.7a1.819 1.819 0 0 1 1.24-.613h45.649a2.108 2.108 0 0 1 1.868 2.263 2.409 2.409 0 0 1 -.64 1.657 1.812 1.812 0 0 1 -1.34.613h-45.43a2.139 2.139 0 0 1 -1.97-2.27 2.43 2.43 0 0 1 .623-1.649zm-.053 16.16v-5.08a3.664 3.664 0 0 1 2.11-3.315v11.71a3.663 3.663 0 0 1 -2.11-3.315zm6.578 18.39c.021.028.045.053.066.082a22.337 22.337 0 0 0 6.115 5.642c.035.021.066.047.1.069a3.438 3.438 0 0 1 -2.329 3.6 1.75 1.75 0 0 0 -.757 2.718c6.109 7.776 22.655 7.683 28.692 0a1.749 1.749 0 0 0 .31-1.549 1.773 1.773 0 0 0 -1.217-1.224c-2.468-.814-2.151-3.441-2.179-3.541a22.794 22.794 0 0 0 6.193-5.671c.019-.024.04-.046.059-.071 4.82 2.068 7.937 4.911 8.62 7.851a27.3 27.3 0 0 0 -7.829 9.977c-5.473 2.556-12.305 3.617-18.372 3.617-9.92 0-19.22-2.78-23.711-7.085a7.352 7.352 0 0 1 -2.649-5.255c0-3.414 3.295-6.782 8.888-9.16zm49.51 52.514c-8.9-2.935-13.945-10.628-13.5-20.658.025-.1.09-15.529 11.912-22.645a32.451 32.451 0 0 0 15.95.024c11.86 7.38 12.008 23.635 12.008 23.8v.079c.738 16.219-13.483 23.656-26.37 19.404z"/><path d="m99.2 86.928a1.75 1.75 0 0 0 0-3.5h-4.755v-1.516a1.75 1.75 0 0 0 -3.5 0v1.672c-3.713.659-6.5 3.365-6.5 6.6s2.792 5.937 6.5 6.6v6.661h-4.755a1.75 1.75 0 0 0 0 3.5h4.755v1.517a1.75 1.75 0 0 0 3.5 0v-1.674c3.714-.658 6.505-3.364 6.505-6.6s-2.791-5.937-6.505-6.6v-6.66zm-8.255 6.262c-1.74-.488-3-1.667-3-3.009s1.265-2.522 3-3.01zm6.505 7c0 1.343-1.265 2.521-3.005 3.01v-6.024c1.74.488 3.005 1.667 3.005 3.009z"/></g></svg>