<svg enable-background="new 0 0 512 512" height="512" viewBox="0 0 512 512" width="512" xmlns="http://www.w3.org/2000/svg"><g id="_x38_1_Trash"><g><path d="m418.321 130.914v317.606c0 28.76-23.314 52.074-52.074 52.074h-220.494c-28.76 0-52.074-23.314-52.074-52.074v-317.606z" fill="#d7e9ff"/><path d="m470.034 96.928c0-18.77-15.216-33.986-33.986-33.986h-360.097c-18.77 0-33.986 15.216-33.986 33.986 0 18.77 15.216 33.986 33.986 33.986h360.097c18.77 0 33.986-15.216 33.986-33.986z" fill="#94c1ff"/><g fill="#fff"><path d="m205.405 201.989v227.53c0 11.426-9.263 20.689-20.689 20.689-11.426 0-20.689-9.263-20.689-20.689v-227.53c0-11.426 9.263-20.689 20.689-20.689 11.427 0 20.689 9.263 20.689 20.689z"/><path d="m276.689 201.989v227.53c0 11.426-9.263 20.689-20.689 20.689-11.426 0-20.689-9.263-20.689-20.689v-227.53c0-11.426 9.263-20.689 20.689-20.689 11.426 0 20.689 9.263 20.689 20.689z"/><path d="m347.972 201.989v227.53c0 11.426-9.263 20.689-20.689 20.689-11.426 0-20.689-9.263-20.689-20.689v-227.53c0-11.426 9.263-20.689 20.689-20.689 11.426 0 20.689 9.263 20.689 20.689z"/></g><g fill="#116fff"><path d="m436.049 57.737h-109.86v-23.688c0-15.353-12.487-27.845-27.84-27.845h-84.698c-15.353 0-27.84 12.492-27.84 27.845v23.688h-109.86c-21.609 0-39.188 17.584-39.188 39.193s17.579 39.188 39.188 39.188h12.522v312.402c0 31.58 25.695 57.275 57.28 57.275h220.492c31.585 0 57.28-25.695 57.28-57.275v-312.402h12.522c21.609 0 39.188-17.579 39.188-39.188s-17.577-39.193-39.186-39.193zm-239.83-23.688c0-9.615 7.821-17.437 17.432-17.437h84.698c9.61 0 17.432 7.821 17.432 17.437v23.688h-119.562zm216.9 414.472c0 25.843-21.025 46.867-46.872 46.867h-220.493c-25.848 0-46.872-21.025-46.872-46.867v-312.403h314.237zm22.93-322.811c-79.543 0-219.398 0-360.098 0-15.871 0-28.78-12.909-28.78-28.78s12.909-28.785 28.78-28.785h360.098c15.871 0 28.78 12.914 28.78 28.785s-12.909 28.78-28.78 28.78z"/><path d="m184.718 455.412c14.276 0 25.893-11.618 25.893-25.893v-227.532c0-14.276-11.618-25.893-25.893-25.893s-25.893 11.618-25.893 25.893v227.531c0 14.276 11.618 25.894 25.893 25.894zm-15.485-253.425c0-8.538 6.947-15.485 15.485-15.485s15.485 6.947 15.485 15.485v227.531c0 8.538-6.947 15.485-15.485 15.485s-15.485-6.947-15.485-15.485z"/><path d="m256 455.412c14.276 0 25.893-11.618 25.893-25.893v-227.532c0-14.276-11.618-25.893-25.893-25.893-14.276 0-25.893 11.618-25.893 25.893v227.531c0 14.276 11.617 25.894 25.893 25.894zm-15.485-253.425c0-8.538 6.947-15.485 15.485-15.485s15.485 6.947 15.485 15.485v227.531c0 8.538-6.947 15.485-15.485 15.485s-15.485-6.947-15.485-15.485z"/><path d="m327.282 455.412c14.276 0 25.893-11.618 25.893-25.893v-227.532c0-14.276-11.618-25.893-25.893-25.893-14.276 0-25.893 11.618-25.893 25.893v227.531c-.001 14.276 11.617 25.894 25.893 25.894zm-15.485-253.425c0-8.538 6.947-15.485 15.485-15.485s15.485 6.947 15.485 15.485v227.531c0 8.538-6.947 15.485-15.485 15.485s-15.485-6.947-15.485-15.485z"/></g></g></g></svg>