<svg id="Layer_1" enable-background="new 0 0 512 512" viewBox="0 0 512 512" xmlns="http://www.w3.org/2000/svg"><g clip-rule="evenodd" fill-rule="evenodd"><g><g><path d="m377.566 359.366c-2.747-91.608-78.526-165.696-170.769-165.696s-168.021 74.087-170.769 165.696c-.043 1.402.434 2.623 1.411 3.631s2.185 1.519 3.589 1.519h331.537c1.404 0 2.612-.511 3.589-1.519.977-1.007 1.454-2.228 1.412-3.631z" fill="#64b5f6"/><circle cx="206.797" cy="101.334" fill="#ffd6bd" r="92.337"/></g><g><path d="m399.055 327.18 76.561 132.608c1.357 2.35-.649 5.205-3.319 4.726l-46.862-8.404-16.153 44.786c-.921 2.552-4.396 2.861-5.752.512l-59.997-103.918-59.997 103.918c-1.357 2.35-4.832 2.04-5.753-.512l-16.153-44.786-46.861 8.404c-2.671.479-4.676-2.376-3.32-4.726l68.26-118.23 74.291 25.176z" fill="#64b5f6"/><path d="m443.152 373.147c18.288-6.331 26.667-32.118 15.593-47.99-4.659-6.678-4.66-15.135-.001-21.812 11.075-15.872 2.696-41.659-15.592-47.991-7.694-2.664-12.666-9.505-12.821-17.646-.37-19.35-22.306-35.288-40.823-29.661-7.79 2.367-15.834-.245-20.744-6.739-11.673-15.438-38.787-15.438-50.461-.001-4.911 6.495-12.954 9.109-20.744 6.741-18.517-5.628-40.454 10.309-40.824 29.659-.156 8.141-5.126 14.983-12.82 17.647-18.289 6.331-26.668 32.118-15.594 47.991 4.659 6.677 4.66 15.134.001 21.812-11.075 15.872-2.696 41.659 15.592 47.991 7.694 2.664 12.666 9.505 12.821 17.646.37 19.35 22.305 35.288 40.823 29.661 7.79-2.367 15.834.245 20.745 6.74 11.673 15.438 38.788 15.438 50.461.001 4.911-6.495 12.954-9.108 20.744-6.74 18.517 5.628 40.453-10.31 40.823-29.66.155-8.144 5.126-14.985 12.821-17.649z" fill="#ffda2d"/><circle cx="343.532" cy="314.25" fill="#eff4f7" r="74.197"/></g><path d="m344.628 262.522 13.445 31.982 34.572 2.904c1.05.088 1.475 1.396.677 2.084l-26.263 22.67 7.922 33.777c.24 1.026-.872 1.834-1.773 1.288l-29.676-17.972-29.676 17.972c-.901.546-2.013-.262-1.773-1.288l7.922-33.777-26.263-22.67c-.798-.689-.373-1.996.677-2.084l34.572-2.904 13.445-31.982c.407-.965 1.786-.965 2.192 0z" fill="#ffda2d"/></g><path d="m361.823 316.106c-2.264 1.953-3.254 4.981-2.547 7.881l4.197 18.012-15.8-9.579c-1.273-.774-2.735-1.165-4.15-1.165s-2.877.391-4.15 1.165l-15.8 9.565 4.198-17.998c.708-2.9-.283-5.928-2.547-7.881l-14.008-12.079 18.441-1.547c2.971-.255 5.565-2.132 6.697-4.872l7.169-17.045 7.169 17.045c1.132 2.74 3.726 4.617 6.697 4.872l18.441 1.547zm39.476-20.347c-1.179-3.533-4.292-6.014-7.971-6.32l-29.761-2.5-11.603-27.516c-1.415-3.415-4.716-5.622-8.442-5.627-3.726 0-7.028 2.207-8.49 5.627l-11.555 27.516-29.761 2.5c-3.679.307-6.792 2.788-7.971 6.32-1.132 3.518-.047 7.367 2.783 9.787l22.545 19.512-6.792 29.058c-.849 3.613.566 7.353 3.537 9.532 1.604 1.17 3.49 1.759 5.424 1.759 1.651 0 3.254-.439 4.764-1.339l25.516-15.461 25.516 15.461c3.207 1.919 7.169 1.759 10.187-.42 2.971-2.179 4.386-5.919 3.537-9.532l-6.839-29.058 22.592-19.512c2.832-2.42 3.917-6.268 2.784-9.787zm-57.776 86.41c37.448 0 67.916-30.473 67.916-67.921s-30.468-67.917-67.916-67.917-67.917 30.468-67.917 67.917 30.469 67.921 67.917 67.921zm83.906-67.921c0-46.273-37.637-83.919-83.905-83.919s-83.905 37.646-83.905 83.919c0 46.282 37.637 83.919 83.905 83.919 46.267 0 83.905-37.637 83.905-83.919zm-.614 133.989c-3.82-.689-7.594 1.49-8.914 5.16l-12.64 35.034-31.553-54.663c.472-.566.99-1.151 1.415-1.75 2.877-3.797 7.499-5.301 12.027-3.91 11.084 3.363 23.912.882 34.288-6.65 5.943-4.339 10.565-9.971 13.442-16.177l28.629 49.527zm-102.158-25.87c4.009 5.259 11.037 8.4 18.866 8.4s14.857-3.141 18.866-8.4c6.886-9.15 18.441-12.899 29.43-9.57 6.32 1.92 13.866.321 20.186-4.278 6.32-4.604 10.187-11.282 10.329-17.88.189-11.47 7.358-21.304 18.206-25.054 6.226-2.155 11.367-7.891 13.819-15.328 2.405-7.438 1.603-15.112-2.17-20.521-6.603-9.409-6.603-21.568 0-30.968 3.773-5.41 4.575-13.083 2.17-20.521-2.453-7.447-7.594-13.173-13.819-15.333-10.848-3.749-18.017-13.583-18.206-25.054-.142-6.593-4.009-13.277-10.329-17.875-6.32-4.603-13.866-6.202-20.186-4.282-10.989 3.334-22.544-.42-29.43-9.57-4.009-5.259-11.037-8.4-18.866-8.4-7.829 0-14.857 3.141-18.866 8.4-6.886 9.145-18.441 12.904-29.43 9.57-6.32-1.92-13.866-.316-20.186 4.282-6.32 4.599-10.187 11.282-10.329 17.875-.189 11.466-7.358 21.304-18.205 25.054-6.226 2.155-11.367 7.886-13.819 15.328-2.405 7.443-1.604 15.116 2.17 20.526 6.603 9.4 6.603 21.559 0 30.959-3.773 5.41-4.575 13.093-2.17 20.531 2.452 7.438 7.593 13.173 13.819 15.328 10.848 3.75 18.017 13.583 18.205 25.054.142 6.598 4.009 13.277 10.329 17.88 6.32 4.598 13.866 6.197 20.186 4.278 2.641-.811 5.33-1.203 8.018-1.203 8.301 0 16.177 3.844 21.412 10.772zm-42.872 66.063-12.64-35.034c-1.321-3.669-5.094-5.848-8.961-5.16l-36.647 6.57 28.628-49.527c2.877 6.207 7.499 11.838 13.442 16.177 10.376 7.532 23.205 10.023 34.288 6.65 4.528-1.391 9.15.113 12.027 3.91.425.599.896 1.184 1.415 1.75zm-64.285-215.13c-3.962 12.183-2.358 25.12 4.245 34.619 2.736 3.91 2.736 8.759 0 12.659-6.603 9.499-8.206 22.441-4.245 34.618.141.453.283.882.472 1.321h-173.848c4.198-86.094 75.557-154.845 162.67-154.845 18.63 0 36.788 3.141 54.145 9.32-7.546 7.282-12.027 16.857-12.216 26.563-.094 4.759-2.924 8.683-7.452 10.239-10.942 3.787-19.809 13.323-23.771 25.506zm-95.036-171.966c0-46.504 37.826-84.334 84.33-84.334s84.33 37.831 84.33 84.334c0 46.504-37.826 84.339-84.33 84.339s-84.33-37.835-84.33-84.339zm360.053 354.454-41.505-71.93c1.226-1.401 2.83-2.49 4.764-3.151 10.942-3.787 19.809-13.319 23.771-25.511 3.962-12.178 2.358-25.12-4.245-34.618-2.736-3.9-2.736-8.749 0-12.65 6.603-9.499 8.207-22.445 4.245-34.628-3.962-12.182-12.829-21.714-23.771-25.506-4.528-1.556-7.358-5.48-7.452-10.239-.236-11.579-6.556-22.983-16.885-30.515-10.376-7.527-23.205-10.013-34.288-6.646-4.528 1.382-9.15-.113-12.027-3.91-6.98-9.24-18.819-14.753-31.6-14.753-12.829 0-24.62 5.514-31.6 14.753-2.877 3.797-7.499 5.296-12.027 3.91-6.886-2.085-14.432-1.92-21.601.293-8.82-3.882-17.875-7.018-27.072-9.4 33.062-16.413 55.89-50.565 55.89-89.952 0-55.323-44.995-100.332-100.318-100.332s-100.368 45.008-100.368 100.331c0 39.373 22.828 73.515 55.89 89.938-30.61 7.867-58.767 23.87-81.83 46.928-33.911 33.873-52.541 78.741-52.541 126.315 0 4.424 3.585 8.004 7.971 8.004h192.242c3.82 3.679 8.254 6.499 13.112 8.188 1.934.661 3.537 1.75 4.764 3.151l-41.552 71.93c-2.17 3.811-1.981 8.419.566 12.017 2.5 3.603 6.792 5.363 11.131 4.584l40.184-7.211 13.866 38.43c1.509 4.141 5.188 6.961 9.527 7.348.377.033.708.042 1.038.042 4.009 0 7.641-2.08 9.669-5.589l35.892-62.191c5.235 2.288 11.084 3.547 17.168 3.547s11.932-1.259 17.168-3.547l35.892 62.191c2.028 3.509 5.66 5.589 9.669 5.589.33 0 .66-.009 1.038-.042 4.339-.387 8.018-3.207 9.527-7.348l13.819-38.43 40.231 7.211c4.339.769 8.631-.981 11.131-4.584 2.544-3.598 2.733-8.206.517-12.017z"/></g></svg>