<svg id="bbeb6587-642e-46ff-aee3-f3dd67c3fab9" enable-background="new 0 0 128 128" height="512" viewBox="0 0 128 128" width="512" xmlns="http://www.w3.org/2000/svg"><g><path d="m38.452 45.026 5.669 12.47c.504 1.109 1.556 1.871 2.767 2.005l13.64 1.513c1.897.209 3.265 1.917 3.055 3.813-.092.837-.488 1.612-1.111 2.179l-10.125 9.194c-.905.822-1.309 2.06-1.061 3.257l2.768 13.377c.386 1.87-.818 3.699-2.688 4.084-.821.169-1.675.035-2.404-.379l-11.952-6.771c-1.058-.6-2.353-.6-3.411 0l-11.952 6.773c-1.661.942-3.771.36-4.713-1.301-.414-.729-.548-1.583-.379-2.404l2.768-13.377c.248-1.197-.156-2.436-1.061-3.257l-10.125-9.195c-1.413-1.283-1.518-3.468-.235-4.881.566-.624 1.341-1.019 2.179-1.112l13.64-1.513c1.211-.134 2.262-.896 2.767-2.005l5.669-12.47c.791-1.739 2.842-2.507 4.581-1.716.759.347 1.368.956 1.714 1.716z" fill="#ffe161"/><path d="m95.648 45.026 5.669 12.47c.504 1.109 1.556 1.871 2.767 2.005l13.64 1.513c1.897.209 3.265 1.917 3.055 3.813-.092.838-.488 1.613-1.112 2.179l-10.125 9.194c-.905.822-1.309 2.06-1.061 3.257l2.768 13.377c.386 1.87-.818 3.699-2.688 4.084-.821.169-1.675.035-2.404-.379l-11.952-6.773c-1.058-.6-2.353-.6-3.411 0l-11.951 6.773c-1.661.942-3.771.36-4.713-1.301-.414-.729-.548-1.583-.379-2.404l2.768-13.377c.248-1.197-.156-2.436-1.061-3.257l-10.125-9.194c-1.413-1.283-1.518-3.468-.235-4.881.566-.624 1.341-1.019 2.179-1.112l13.64-1.513c1.211-.134 2.262-.896 2.767-2.005l5.669-12.47c.791-1.739 2.842-2.507 4.581-1.715.759.347 1.368.956 1.714 1.716z" fill="#fbbc05"/><g><path d="m52.35 76.2c-.907.822-1.314 2.061-1.07 3.26l2.77 13.38c.385 1.868-.817 3.695-2.686 4.08-.821.169-1.675.034-2.404-.38l-11.95-6.77c-.504-.286-1.071-.44-1.65-.45l2.05-9.9c.324-1.566-.205-3.186-1.39-4.26l-16.68-15.17 4.38-.49c1.211-.132 2.264-.892 2.77-2l4.2-9.24 8.78-.98 4.65 10.22c.504 1.11 1.558 1.871 2.77 2l13.64 1.52c1.895.209 3.262 1.915 3.053 3.81-.092.838-.488 1.613-1.113 2.18z" fill="#fbbc05"/><path d="m90.926 81.044c-.139-.535-.252-1.078-.336-1.624-.324-1.566.205-3.186 1.39-4.26l16.66-15.15-4.56-.51c-1.21-.129-2.26-.891-2.76-2l-4.21-9.27-8.77-.97-4.66 10.24c-.5 1.109-1.55 1.871-2.76 2l-13.64 1.52c-1.897.207-3.267 1.913-3.059 3.81.092.838.486 1.613 1.109 2.18l10.13 9.19c.904.823 1.307 2.062 1.06 3.26l-2.77 13.38c-.383 1.87.821 3.696 2.691 4.079.819.168 1.672.033 2.399-.379l11.95-6.77.005-.002c.235-.129.485-.231.744-.302.044-.012.086-.03.13-.041.226-.052.456-.082.688-.088.081-.003.161-.008.242-.006.563.012 1.115.162 1.607.437l11.951 6.773c1.661.943 3.772.36 4.714-1.301.049-.087.095-.176.136-.266-4.007 1.026-18.007-7.974-20.081-13.93z" fill="#f4950c"/></g><path d="m67.62 25.332 9.589 21.113c.58 1.276 1.788 2.153 3.181 2.307l23.087 2.564c2.182.242 3.755 2.208 3.513 4.39-.107.962-.561 1.852-1.277 2.503l-17.149 15.585c-1.04.946-1.504 2.37-1.219 3.747l4.686 22.668c.444 2.15-.939 4.254-3.089 4.698-.944.195-1.928.04-2.766-.435l-20.214-11.466c-1.217-.69-2.707-.69-3.924 0l-20.214 11.466c-1.91 1.083-4.336.414-5.42-1.496-.476-.839-.631-1.822-.435-2.766l4.686-22.668c.285-1.377-.179-2.801-1.219-3.747l-17.149-15.585c-1.625-1.477-1.745-3.991-.268-5.616.651-.716 1.541-1.171 2.503-1.277l23.087-2.564c1.393-.155 2.602-1.031 3.181-2.307l9.589-21.114c.908-1.999 3.265-2.884 5.265-1.975.876.397 1.578 1.099 1.976 1.975z" fill="#ffe161"/><path d="m105.713 58.21c1.625-1.477 1.745-3.991.269-5.616-.651-.717-1.541-1.171-2.504-1.278l-23.087-2.564c-1.393-.155-2.602-1.031-3.181-2.307l-9.59-21.113c-.791-1.761-2.738-2.693-4.605-2.205 7.654 6.817 20.253 42.519 1.985 59.873-12.211 11.6-22.549 14.995-28.757 15.883l-.274 1.326c-.444 2.15.938 4.254 3.089 4.698.944.195 1.928.04 2.767-.435l20.214-11.466c1.217-.69 2.707-.69 3.923 0l20.214 11.466c1.91 1.083 4.336.414 5.42-1.496.476-.839.631-1.822.435-2.767l-4.686-22.668c-.285-1.377.179-2.801 1.219-3.747z" fill="#fbbc05"/></g></svg>