<svg id="Filled_Expand" height="512" viewBox="0 0 64 64" width="512" xmlns="http://www.w3.org/2000/svg" data-name="Filled Expand"><path d="m21 48h22l4 11h-30z" fill="#91888e"/><path d="m24 48-4 11h27l-4-11z" fill="#81787e"/><circle cx="32" cy="29" fill="#f2fbff" r="24"/><path d="m34 7a24 24 0 0 0 -17.938 39.938 24 24 0 0 0 33.876-33.876 23.906 23.906 0 0 0 -15.938-6.062z" fill="#e2f6ff"/><circle cx="32" cy="29" fill="#6488e8" r="20"/><path d="m35 12a19.991 19.991 0 0 0 -15.557 32.557 19.991 19.991 0 0 0 28.114-28.114 19.914 19.914 0 0 0 -12.557-4.443z" fill="#7896ed"/><path d="m39.652 10.527a19.935 19.935 0 0 0 -15.3 0l7.648 18.473z" fill="#dc3366"/><path d="m32 29 6.883-16.616a19.866 19.866 0 0 0 -13.007 1.833z" fill="#eb466e"/><path d="m24.348 10.527a19.934 19.934 0 0 0 -10.821 10.821l18.473 7.652z" fill="#5adc5a"/><path d="m17.217 22.876 14.783 6.124-6.124-14.783a20.06 20.06 0 0 0 -8.659 8.659z" fill="#6beb71"/><path d="m50.473 21.348a19.934 19.934 0 0 0 -10.821-10.821l-7.652 18.473z" fill="#f7cf21"/><path d="m38.883 12.384-6.883 16.616 18.473-7.652a20.061 20.061 0 0 0 -2.9-4.895 19.9 19.9 0 0 0 -8.69-4.069z" fill="#ffdc46"/><path d="m24.348 47.473a19.935 19.935 0 0 0 15.3 0l-7.648-18.473z" fill="#eb466e"/><path d="m50.473 36.652-18.473-7.652 7.652 18.473a19.937 19.937 0 0 0 10.821-10.821z" fill="#6beb71"/><path d="m13.527 36.652a19.937 19.937 0 0 0 10.821 10.821l7.652-18.473z" fill="#f7cf21"/><path d="m19.433 44.543a20.009 20.009 0 0 0 4.915 2.93l7.652-18.473-16.616 6.883a19.907 19.907 0 0 0 4.049 8.66z" fill="#ffdc46"/><circle cx="32" cy="29" fill="#81787e" r="6"/><path d="m29.236 1h5.528a2 2 0 0 1 1.789 2.894l-4.553 9.106-4.553-9.106a2 2 0 0 1 1.789-2.894z" fill="#91888e"/><path d="m36.553 3.894a1.967 1.967 0 0 0 .2-.894h-6.135a1 1 0 0 0 -.894 1.447l3.276 6.553z" fill="#81787e"/><path d="m16 59h32a4 4 0 0 1 4 4 0 0 0 0 1 0 0h-40a0 0 0 0 1 0 0 4 4 0 0 1 4-4z" fill="#f2fbff"/><path d="m52 63a3.959 3.959 0 0 0 -.529-1.953 4.061 4.061 0 0 0 -.471-.047h-32a3.982 3.982 0 0 0 -3.445 2z" fill="#e2f6ff"/><path d="m48 58.25h-.474l-2.9-7.974a24.724 24.724 0 0 0 -7.675-45.5l.273-.545a2.75 2.75 0 0 0 -2.46-3.981h-5.528a2.75 2.75 0 0 0 -2.46 3.98l.273.545a24.724 24.724 0 0 0 -7.675 45.5l-2.9 7.974h-.474a4.756 4.756 0 0 0 -4.75 4.751.75.75 0 0 0 .75.75h40a.75.75 0 0 0 .75-.75 4.756 4.756 0 0 0 -4.75-4.75zm-18.764-56.5h5.528a1.25 1.25 0 0 1 1.118 1.809l-3.882 7.764-3.882-7.764a1.25 1.25 0 0 1 1.118-1.809zm-3.143 23.991-11.579-4.8a19.1 19.1 0 0 1 9.433-9.427l4.794 11.575a6.8 6.8 0 0 0 -2.648 2.652zm5.907-1.991a5.25 5.25 0 1 1 -5.25 5.25 5.256 5.256 0 0 1 5.25-5.25zm-6.48 3.378a6.625 6.625 0 0 0 0 3.744l-11.558 4.788a19.122 19.122 0 0 1 -1.212-6.66 19.35 19.35 0 0 1 1.189-6.669zm.573 5.131a6.8 6.8 0 0 0 2.648 2.648l-4.787 11.557a19.342 19.342 0 0 1 -9.418-9.418zm4.035 3.221a6.625 6.625 0 0 0 3.744 0l4.787 11.558a18.9 18.9 0 0 1 -13.318 0zm5.131-.573a6.8 6.8 0 0 0 2.648-2.648l11.557 4.787a19.342 19.342 0 0 1 -9.418 9.418zm3.221-4.035a6.625 6.625 0 0 0 0-3.744l11.581-4.8a19.35 19.35 0 0 1 1.189 6.672 19.122 19.122 0 0 1 -1.212 6.66zm-.573-5.131a6.8 6.8 0 0 0 -2.648-2.648l4.794-11.575a19.1 19.1 0 0 1 9.433 9.427zm-4.035-3.221a6.625 6.625 0 0 0 -3.744 0l-4.794-11.574a19.355 19.355 0 0 1 4.286-1.028l1.709 3.418a.751.751 0 0 0 1.342 0l1.709-3.418a19.355 19.355 0 0 1 4.286 1.028zm-25.122 6.48a23.123 23.123 0 0 1 18.992-22.839l1.172 2.344a20.75 20.75 0 1 0 6.172 0l1.172-2.344a23.242 23.242 0 1 1 -27.508 22.839zm11.95 22.01a24.659 24.659 0 0 0 22.594 0l2.632 7.24h-27.855zm-7.863 11.24a3.256 3.256 0 0 1 3.163-2.5h32a3.256 3.256 0 0 1 3.163 2.5z"/></svg>