<svg id="Flags" enable-background="new 0 0 512 512" viewBox="0 0 512 512" xmlns="http://www.w3.org/2000/svg"><path d="m491.595 256c0 62.93-24.506 122.093-69.004 166.591s-103.661 69.004-166.591 69.004-122.093-24.506-166.591-69.004-69.004-103.661-69.004-166.591 24.506-122.093 69.004-166.591 103.661-69.004 166.591-69.004 122.093 24.506 166.591 69.004 69.004 103.661 69.004 166.591z" fill="#efefef"/><path d="m491.6 256c0 16.25-1.64 32.26-4.83 47.83h-185.97v183.54c-14.61 2.8-29.6 4.23-44.8 4.23s-30.19-1.43-44.8-4.23v-183.54h-185.97c-3.19-15.57-4.83-31.58-4.83-47.83s1.64-32.26 4.83-47.83h185.97v-183.54c14.61-2.8 29.6-4.23 44.8-4.23s30.19 1.43 44.8 4.23v183.54h185.97c3.19 15.57 4.83 31.58 4.83 47.83z" fill="#d51425"/><path d="m491.6 256c0 62.93-24.51 122.09-69.01 166.59s-103.66 69.01-166.59 69.01c-48.02 0-93.84-14.27-132.62-40.8 39.8 17.33 83.7 23.45 127.79 17.35 63.24-8.75 119.28-41.61 157.81-92.51 38.52-50.91 54.92-113.77 46.17-177-7.66-55.27-33.71-105.04-74.14-142.43 14.89 9.35 28.84 20.46 41.58 33.2 44.5 44.5 69.01 103.66 69.01 166.59z" fill="#160204" opacity=".13"/><path d="m367.99 48.6c-41.95-12.1-86.55-12.68-129.86-1.23-63.13 16.7-115.97 56.98-148.81 113.42-32.83 56.45-41.72 122.3-25.02 185.43 10.19 38.54 29.17 73.24 55.26 101.91-10.64-7.58-20.72-16.11-30.15-25.54-44.5-44.5-69.01-103.66-69.01-166.59s24.51-122.09 69.01-166.59 103.66-69.01 166.59-69.01c39.75 0 77.99 9.78 111.99 28.2z" fill="#fff" opacity=".25"/></svg>