<svg id="Flags" enable-background="new 0 0 512 512" viewBox="0 0 512 512" xmlns="http://www.w3.org/2000/svg"><path d="m491.595 256c0 62.93-24.506 122.093-69.004 166.591s-103.661 69.004-166.591 69.004-122.093-24.506-166.591-69.004-69.004-103.661-69.004-166.591 24.506-122.093 69.004-166.591 103.661-69.004 166.591-69.004 122.093 24.506 166.591 69.004 69.004 103.661 69.004 166.591z" fill="#efefef"/><path d="m478.59 178.43h-445.18c11.51-33.13 30.47-63.49 56-89.02 44.5-44.5 103.66-69.01 166.59-69.01s122.09 24.51 166.59 69.01c25.53 25.53 44.49 55.89 56 89.02z" fill="#c6001e"/><path d="m478.59 333.57c-11.51 33.13-30.47 63.49-56 89.02-44.5 44.5-103.66 69.01-166.59 69.01s-122.09-24.51-166.59-69.01c-25.53-25.53-44.49-55.89-56-89.02z" fill="#244787"/><path d="m491.6 256c0 62.93-24.51 122.09-69.01 166.59s-103.66 69.01-166.59 69.01c-48.02 0-93.84-14.27-132.62-40.8 39.8 17.33 83.7 23.45 127.79 17.35 63.24-8.75 119.28-41.61 157.81-92.51 38.52-50.91 54.92-113.77 46.17-177-7.66-55.27-33.71-105.04-74.14-142.43 14.89 9.35 28.84 20.46 41.58 33.2 44.5 44.5 69.01 103.66 69.01 166.59z" fill="#160204" opacity=".13"/><path d="m367.99 48.6c-41.95-12.1-86.55-12.68-129.86-1.23-63.13 16.7-115.97 56.98-148.81 113.42-32.83 56.45-41.72 122.3-25.02 185.43 10.19 38.54 29.17 73.24 55.26 101.91-10.64-7.58-20.72-16.11-30.15-25.54-44.5-44.5-69.01-103.66-69.01-166.59s24.51-122.09 69.01-166.59 103.66-69.01 166.59-69.01c39.75 0 77.99 9.78 111.99 28.2z" fill="#fff" opacity=".25"/></svg>